<?xml version="1.0" encoding="UTF-8"?>
<svg version="1.1" xmlns="http://www.w3.org/2000/svg" width="512" height="512">
<path d="M0 0 C6.88131942 0.35483565 11.77891505 3.32925927 17.69921875 6.6640625 C19.8161991 7.7996095 21.93541857 8.93099018 24.05664062 10.05859375 C27.37470369 11.8291743 30.67347581 13.61700331 33.94067383 15.47998047 C45.68462318 22.67847301 45.68462318 22.67847301 58.86734009 24.66845703 C64.36530942 23.04052828 69.1192554 20.30799756 73.9390564 17.25140381 C76.63996993 15.61141062 79.40533541 14.55205643 82.39453125 13.546875 C83.29453857 13.24031982 84.1945459 12.93376465 85.12182617 12.61791992 C86.00974854 12.33150635 86.8976709 12.04509277 87.8125 11.75 C88.80548096 11.42555908 89.79846191 11.10111816 90.8215332 10.7668457 C101.37335972 7.41728429 112.09146579 4.87461129 123 3 C123.71172363 2.87505157 124.42344727 2.75010315 125.15673828 2.62136841 C139.51721772 0.15449799 153.57074959 -0.52544622 168.125 -0.4375 C169.7332515 -0.43293793 169.7332515 -0.43293793 171.37399292 -0.42828369 C187.89688924 -0.35910585 203.81595664 0.40626228 220 4 C221.53285645 4.32943604 221.53285645 4.32943604 223.09667969 4.66552734 C267.89217662 14.49105314 309.49504442 35.57882235 343 67 C344.39017565 68.21483818 345.78557612 69.42373834 347.1875 70.625 C354.97224759 77.42874281 361.59635515 84.89155785 368 93 C368.80566406 94.01191406 369.61132812 95.02382812 370.44140625 96.06640625 C406.50980187 141.81445381 425.20776487 196.61892934 425.25 254.75 C425.25100708 255.7102005 425.25201416 256.670401 425.25305176 257.65969849 C425.24287931 271.99552044 424.65868232 285.88148007 422 300 C421.71788776 301.65610335 421.43664294 303.31235469 421.15625 304.96875 C412.35431186 354.59649191 387.79388944 399.82219715 353 436 C352.29593018 436.73694092 352.29593018 436.73694092 351.57763672 437.48876953 C345.12127473 444.21650225 338.33511369 450.25248626 331 456 C330.03835938 456.77859375 329.07671875 457.5571875 328.0859375 458.359375 C296.37809408 483.5651037 259.14724136 499.31601402 219.75 507.75 C218.36856812 508.04825684 218.36856812 508.04825684 216.95922852 508.35253906 C200.77300917 511.65868459 184.85120983 512.37373987 168.375 512.3125 C167.35775848 512.31067719 166.34051697 512.30885437 165.29244995 512.30697632 C150.65298716 512.26277878 136.40129693 511.83201859 122 509 C120.67476318 508.76651855 120.67476318 508.76651855 119.32275391 508.52832031 C79.50034531 501.49959856 42.64250071 483.89376252 11 459 C10.03835937 458.25234375 9.07671875 457.5046875 8.0859375 456.734375 C-28.95933581 427.22929006 -57.01887074 387.56347079 -73 343 C-73.27005859 342.25427734 -73.54011719 341.50855469 -73.81835938 340.74023438 C-77.41910009 330.6137068 -79.96465214 320.30858632 -82.25 309.8125 C-82.49637207 308.68521484 -82.74274414 307.55792969 -82.99658203 306.39648438 C-86.25411843 290.82694622 -87.35014459 275.84131643 -87.31567383 259.97583008 C-87.3125297 256.96593397 -87.33601112 253.95704009 -87.36132812 250.94726562 C-87.42058096 233.01322548 -85.7865959 215.1767451 -81.375 197.75 C-81.12266602 196.73389648 -80.87033203 195.71779297 -80.61035156 194.67089844 C-71.44857404 158.94977062 -56.2572298 126.69806923 -33 98 C-32.19820312 96.98679687 -31.39640625 95.97359375 -30.5703125 94.9296875 C-16.61856515 77.5024159 -16.61856515 77.5024159 -10.7762146 73.46214294 C-6.96286053 70.68208247 -4.40216272 68.54766371 -3.18890381 63.87861633 C-2.91393045 60.09476892 -2.9091953 56.36547223 -3.0078125 52.578125 C-3.00978037 51.18666523 -3.00733456 49.79519292 -3.0007019 48.40374756 C-2.99311165 44.76130118 -3.0363564 41.12137328 -3.09332275 37.47943115 C-3.17631547 31.6384388 -3.18263885 25.79695075 -3.18636703 19.95546722 C-3.19518141 17.92088372 -3.22657982 15.88761551 -3.26150513 13.85333252 C-3.27076019 12.6181488 -3.28001526 11.38296509 -3.28955078 10.11035156 C-3.31361496 8.48108734 -3.31361496 8.48108734 -3.33816528 6.81890869 C-2.95938083 3.66140307 -2.12150694 2.31649213 0 0 Z M17 61 C14.55233445 63.44766555 14.74638387 64.08749028 14.73257446 67.44726562 C14.72404449 68.38321564 14.71551453 69.31916565 14.70672607 70.28347778 C14.70763245 71.31399261 14.70853882 72.34450745 14.70947266 73.40625 C14.70275543 74.48953583 14.69603821 75.57282166 14.68911743 76.68893433 C14.67003002 80.29266893 14.66620592 83.89621788 14.6640625 87.5 C14.6576352 90.00992916 14.6509069 92.51985757 14.64389038 95.02978516 C14.63188602 100.30926548 14.62812655 105.58867676 14.62939453 110.86816406 C14.63045608 116.26086338 14.61654654 121.65327352 14.58837891 127.04589844 C14.55479032 133.57110297 14.54129206 140.0960492 14.54261398 146.62133789 C14.54027249 149.09612488 14.5315321 151.57091526 14.51594925 154.0456543 C14.33218111 186.28620829 22.22912529 213.71155673 45.20703125 237.1796875 C46.12871094 238.11039063 47.05039063 239.04109375 48 240 C48.66386719 240.72445312 49.32773438 241.44890625 50.01171875 242.1953125 C60.32211093 253.24375878 73.30871572 260.91779225 87 267 C88.04285156 267.47050781 89.08570313 267.94101562 90.16015625 268.42578125 C102.1346911 273.41645836 115.19455817 276.17065117 128 278 C128.33 249.62 128.66 221.24 129 192 C135.92903603 197.03929893 142.13159669 201.57106183 148.0625 207.5625 C148.74296387 208.24940918 149.42342773 208.93631836 150.12451172 209.64404297 C168.62839897 228.81489509 175.19670334 250.76820896 176 277 C179.63 277 183.26 277 187 277 C187.14695312 275.20369141 187.14695312 275.20369141 187.296875 273.37109375 C189.96599122 243.24865514 202.53381491 218.38598277 225 198 C227.97 196.02 230.94 194.04 234 192 C234.33 220.05 234.66 248.1 235 277 C264.80985232 273.68779419 290.25536591 259.42178993 309.37841797 236.3359375 C312.20283555 232.73133699 314.67232925 228.93704535 317 225 C317.38381836 224.35305176 317.76763672 223.70610352 318.16308594 223.03955078 C323.91479585 213.16648182 328.44312038 203.18017327 331 192 C331.25834625 190.89910538 331.25834625 190.89910538 331.52191162 189.77597046 C333.66080835 179.04019488 333.30883918 168.17394154 333.30078125 157.27734375 C333.30467334 155.08207621 333.30900907 152.88680941 333.31376648 150.69154358 C333.32119122 146.11505679 333.320962 141.53864724 333.31567383 136.9621582 C333.30984426 131.09086412 333.32691192 125.21988192 333.3500185 119.34863949 C333.36471588 114.82687019 333.36563369 110.30517708 333.36250877 105.78338814 C333.36302269 103.61718687 333.3682736 101.45098142 333.37832069 99.28480339 C333.39060778 96.26900362 333.38394313 93.25382631 333.37231445 90.23803711 C333.37995819 89.34195236 333.38760193 88.44586761 333.39547729 87.52262878 C333.38846298 86.70284546 333.38144867 85.88306213 333.3742218 85.03843689 C333.37438954 84.32672805 333.37455729 83.61501921 333.37473011 82.88174343 C332.88386032 80.41679338 331.96279202 79.52609791 330 78 C324.26931983 77.04631859 319.74321138 79.55631005 314.6875 81.9375 C313.80956787 82.34282959 312.93163574 82.74815918 312.02709961 83.16577148 C298.87766205 89.30581282 286.20336468 96.1349536 274 104 C273.42072754 104.37205566 272.84145508 104.74411133 272.24462891 105.12744141 C254.87608699 116.33189945 237.74117153 128.68545879 223.37109375 143.62890625 C222 145 222 145 219.5 146.9375 C216.67775726 149.26585026 214.42307346 151.79020635 212.0625 154.578125 C210.59357645 156.30299735 209.08942495 157.99813034 207.5625 159.671875 C201.60761662 166.28877926 196.68561735 173.30445818 192 180.875 C191.17218018 182.21244263 191.17218018 182.21244263 190.32763672 183.5769043 C188.05259336 187.33026816 185.90836412 191.00110155 184.25 195.0703125 C183 198 183 198 181 199 C180.88390381 198.26966553 180.76780762 197.53933105 180.64819336 196.78686523 C179.98789303 193.94794688 179.06245965 191.93624506 177.62890625 189.41015625 C177.14220459 188.55035156 176.65550293 187.69054687 176.15405273 186.8046875 C175.62884033 185.89976562 175.10362793 184.99484375 174.5625 184.0625 C174.02117432 183.12535156 173.47984863 182.18820313 172.92211914 181.22265625 C163.50238562 165.12744487 151.97721782 151.25277228 139.3125 137.625 C138.70704346 136.97096191 138.10158691 136.31692383 137.4777832 135.64306641 C133.22705788 131.12224351 128.72640773 127.0167313 124 123 C123.08476562 122.20335937 122.16953125 121.40671875 121.2265625 120.5859375 C106.20907282 107.82332615 89.92944846 97.04508704 73 87 C72.09121094 86.45843262 71.18242187 85.91686523 70.24609375 85.35888672 C59.09234566 78.75644828 47.74558121 72.73578696 36 67.25 C34.90792236 66.73622803 33.81584473 66.22245605 32.69067383 65.69311523 C25.13287729 62.20616734 25.13287729 62.20616734 17 61 Z " fill="#010101" transform="translate(87,0)"/>
<path d="M0 0 C2.8125 1.5 2.8125 1.5 5 3 C8.00514762 3.30894687 8.00514762 3.30894687 9.87890625 1.5234375 C13.56706397 -1.12551556 17.63844085 -0.51062156 22 0 C26.64448995 1.81740911 28.59202756 4.70928401 31 9 C31.33663684 11.75064877 31.47224142 14.07348366 31.390625 16.8046875 C31.38496521 17.5286673 31.37930542 18.25264709 31.37347412 18.99856567 C31.35123667 21.29140788 31.30106987 23.58263716 31.25 25.875 C31.22991841 27.43747729 31.21167055 28.99997929 31.1953125 30.5625 C31.15141416 34.3756133 31.08247971 38.18753402 31 42 C27.37 42 23.74 42 20 42 C19.97494385 41.13197754 19.9498877 40.26395508 19.92407227 39.36962891 C19.82900516 36.15286837 19.72976797 32.93627151 19.62768555 29.71972656 C19.58434154 28.3268741 19.54266604 26.93396869 19.50268555 25.54101562 C19.44497068 23.54023349 19.38078131 21.53964141 19.31640625 19.5390625 C19.26141968 17.73236084 19.26141968 17.73236084 19.20532227 15.88916016 C19.18947013 13.06003633 19.18947013 13.06003633 18 11 C15.08347826 10.83318891 15.08347826 10.83318891 12 11 C9.20822431 13.79177569 9.68786516 15.63183572 9.5859375 19.5390625 C9.54726563 20.84101563 9.50859375 22.14296875 9.46875 23.484375 C9.43729237 24.86457862 9.40604509 26.24478704 9.375 27.625 C9.33682066 29.01304541 9.29776895 30.40106711 9.2578125 31.7890625 C9.16327057 35.19257185 9.07772103 38.59607165 9 42 C5.37 42 1.74 42 -2 42 C-2.01981934 41.10168457 -2.03963867 40.20336914 -2.06005859 39.27783203 C-2.13809261 35.94909922 -2.22478114 32.62082744 -2.31738281 29.29248047 C-2.35569674 27.8511626 -2.39054543 26.40974832 -2.421875 24.96826172 C-2.46747446 22.89776114 -2.52547444 20.82792567 -2.5859375 18.7578125 C-2.63306885 16.88826904 -2.63306885 16.88826904 -2.68115234 14.98095703 C-2.69682309 11.88458224 -2.69682309 11.88458224 -5 10 C-7.93453261 10.36681658 -8.86437246 10.86437246 -11 13 C-11.37296556 16.00972657 -11.37296556 16.00972657 -11.4140625 19.5390625 C-11.45273437 20.84101563 -11.49140625 22.14296875 -11.53125 23.484375 C-11.56270763 24.86457862 -11.59395491 26.24478704 -11.625 27.625 C-11.66317934 29.01304541 -11.70223105 30.40106711 -11.7421875 31.7890625 C-11.83672943 35.19257185 -11.92227897 38.59607165 -12 42 C-15.63 42 -19.26 42 -23 42 C-23 28.47 -23 14.94 -23 1 C-20.03 1 -17.06 1 -14 1 C-14 1.99 -14 2.98 -14 4 C-13.175 3.34 -12.35 2.68 -11.5 2 C-7.54118525 -0.62985094 -4.68553223 -0.52061469 0 0 Z " fill="#F4F4F4" transform="translate(312,318)"/>
<path d="M0 0 C4.93512263 1.8757619 8.70419977 4.9243595 11.5625 9.375 C14.37552069 16.12104037 14.49650112 25.80489031 12.046875 32.671875 C9.14403565 37.55893364 5.396646 40.934824 0.1875 43.25 C-7.24285357 44.99831849 -14.03237402 44.30675929 -20.6875 40.4375 C-26.03279987 34.803265 -27.28701747 29.12040179 -27.5625 21.4375 C-27.34364615 13.89836206 -25.75471507 9.64455228 -20.40234375 4.44921875 C-14.11242967 -1.03706994 -8.11566325 -0.89979905 0 0 Z " fill="#F4F4F4" transform="translate(222,392)"/>
<path d="M0 0 C1.27746094 -0.01417969 2.55492187 -0.02835937 3.87109375 -0.04296875 C7.46531971 0.18143266 10.22446958 0.88221144 13.5625 2.1875 C12.95424965 6.53214536 12.30082608 10.86301867 11.5625 15.1875 C10.53962891 14.94773437 10.53962891 14.94773437 9.49609375 14.703125 C6.16732407 14.11804165 3.0045261 13.98153291 -0.375 13.9375 C-1.55964844 13.91171875 -2.74429688 13.8859375 -3.96484375 13.859375 C-8.5288687 14.29062145 -11.7982271 15.60541104 -15.1171875 18.80859375 C-18.9357873 24.61136795 -19.568821 30.35243561 -18.4375 37.1875 C-16.54369772 40.98601985 -14.62357332 43.44092696 -10.796875 45.46875 C-3.73030412 47.6214802 4.41659104 46.52531857 11.5625 45.1875 C12.70014351 49.45366316 13.5625 52.75236311 13.5625 57.1875 C2.67081063 60.78947601 -7.1452035 61.89083862 -17.9609375 57.44921875 C-25.74169814 53.48520347 -29.58937475 47.99262566 -32.6875 39.9375 C-34.51606623 30.79466886 -33.72158237 23.48524094 -29.4375 15.1875 C-29.12167969 14.54941406 -28.80585938 13.91132813 -28.48046875 13.25390625 C-24.67791823 6.859355 -17.06016817 2.49862955 -10.02734375 0.50390625 C-6.67081917 0.09383311 -3.38152897 0.01702683 0 0 Z " fill="#F6F6F6" transform="translate(177.4375,376.8125)"/>
<path d="M0 0 C4.47870656 2.15937638 7.18198188 4.92952939 10 9 C12.43960723 16.3188217 12.29400807 27.13524065 9.3125 34.3125 C6.95932345 38.60456145 3.99021988 40.89432229 -0.25 43.25 C-5.59247319 44.70703814 -10.18038691 44.83982143 -15.25 42.5 C-20.25575742 37.94931144 -23.60346694 32.87323979 -24 26 C-24.061875 25.08992188 -24.12375 24.17984375 -24.1875 23.2421875 C-24.4536818 16.60427883 -24.10175361 11.40230964 -20 6 C-13.85852155 -0.26681474 -8.53211362 -0.80407354 0 0 Z " fill="#F5F5F5" transform="translate(344,392)"/>
<path d="M0 0 C4.66970721 3.39098414 7.07275121 7.6408071 8.6875 13.125 C9.76745306 21.00961301 9.26493857 28.42630941 4.6875 35.125 C1.65871467 38.33922117 -1.42761442 40.95287721 -5.921875 41.36328125 C-16.46131343 41.61234758 -16.46131343 41.61234758 -21.3125 37.125 C-27.38540186 30.39556821 -26.88223821 23.47639603 -26.72265625 14.8359375 C-26.40316489 9.01638516 -24.66463655 5.06599001 -20.3125 1.125 C-14.40547065 -3.30527202 -6.46672531 -3.44729024 0 0 Z " fill="#F1F1F1" transform="translate(276.3125,319.875)"/>
<path d="M0 0 C4.87639619 2.36355938 7.40702411 4.97801853 9.38671875 10.08203125 C11.63392602 17.92355197 11.30075783 26.23076135 7.515625 33.5078125 C4.75312109 37.65156837 1.04920808 39.99062798 -3.6875 41.3125 C-9.00463078 41.82706104 -12.55038244 41.55982361 -17.08203125 38.65625 C-20.76305368 35.57529692 -23.18005237 31.83484289 -24.6875 27.3125 C-25.88111549 10.81712523 -25.88111549 10.81712523 -20.6875 4.3125 C-18.1875 1.9375 -18.1875 1.9375 -15.6875 0.3125 C-14.759375 -0.30625 -14.759375 -0.30625 -13.8125 -0.9375 C-8.89772852 -2.67212523 -4.70337625 -1.9107466 0 0 Z " fill="#F4F4F4" transform="translate(157.6875,319.6875)"/>
<path d="M0 0 C8.91 0 17.82 0 27 0 C27 3.3 27 6.6 27 10 C21.39 10 15.78 10 10 10 C10 13.96 10 17.92 10 22 C15.28 22 20.56 22 26 22 C26 25.3 26 28.6 26 32 C21.05 32 16.1 32 11 32 C11 36.62 11 41.24 11 46 C16.28 46 21.56 46 27 46 C27 49.3 27 52.6 27 56 C18.09 56 9.18 56 0 56 C0 37.52 0 19.04 0 0 Z " fill="#F7F7F7" transform="translate(74,304)"/>
<path d="M0 0 C4.33836303 4.33836303 6.86113856 9.31817396 7.4375 15.44921875 C7.4375 18.34302126 7.2929607 21.23607595 7.125 24.125 C-0.135 24.125 -7.395 24.125 -14.875 24.125 C-13.22422098 27.87670424 -13.22422098 27.87670424 -10.875 31.125 C-8.17845146 31.19819621 -5.50808542 31.21742537 -2.8125 31.1875 C-2.05388672 31.18298828 -1.29527344 31.17847656 -0.51367188 31.17382812 C1.36591871 31.1620068 3.24546899 31.14407078 5.125 31.125 C5.125 34.425 5.125 37.725 5.125 41.125 C-1.96709473 42.77090123 -11.26982289 43.94619609 -18 40.625 C-22.766557 36.48016783 -25.62088972 30.6532235 -26.078125 24.3046875 C-26.2950389 9.01225733 -26.2950389 9.01225733 -21.4453125 3.5 C-15.40569014 -1.78842555 -7.52573249 -2.29044032 0 0 Z " fill="#F2F2F2" transform="translate(431.875,318.875)"/>
<path d="M0 0 C8.25 0 16.5 0 25 0 C25 3.3 25 6.6 25 10 C20.05 10 15.1 10 10 10 C10 13.96 10 17.92 10 22 C14.62 22 19.24 22 24 22 C24 25.63 24 29.26 24 33 C19.71 33 15.42 33 11 33 C11 37.29 11 41.58 11 46 C16.28 46 21.56 46 27 46 C27 49.3 27 52.6 27 56 C18.09 56 9.18 56 0 56 C0 37.52 0 19.04 0 0 Z " fill="#F8F8F8" transform="translate(191,304)"/>
<path d="M0 0 C4.0226217 1.56435288 5.59149109 2.38723663 8 6 C8.17207928 8.90184868 8.23201104 11.70544247 8.1953125 14.60546875 C8.1924826 15.44467361 8.18965271 16.28387848 8.18673706 17.14851379 C8.17554385 19.82832103 8.15044101 22.50779381 8.125 25.1875 C8.11496908 27.00455246 8.10584343 28.82161017 8.09765625 30.63867188 C8.07560734 35.09257675 8.04108351 39.54623167 8 44 C4.37 44 0.74 44 -3 44 C-3.33 33.44 -3.66 22.88 -4 12 C-6.475 11.505 -6.475 11.505 -9 11 C-11.42170679 14.63256018 -11.3044503 16.52578695 -11.4140625 20.85546875 C-11.43342865 21.51710526 -11.4527948 22.17874176 -11.4727478 22.86042786 C-11.53242687 24.96932164 -11.57888087 27.07827037 -11.625 29.1875 C-11.66319066 30.61916415 -11.70224303 32.05080559 -11.7421875 33.48242188 C-11.83811773 36.98807312 -11.92219197 40.49389445 -12 44 C-15.63 44 -19.26 44 -23 44 C-23 29.81 -23 15.62 -23 1 C-20.36 1 -17.72 1 -15 1 C-14.67 2.32 -14.34 3.64 -14 5 C-13.34 5 -12.68 5 -12 5 C-11.67 4.01 -11.34 3.02 -11 2 C-7.27993273 -0.48004485 -4.31020129 -0.53775668 0 0 Z " fill="#F2F2F2" transform="translate(281,391)"/>
<path d="M0 0 C3.21207838 2.35030125 4.07708851 4.18857343 5.5625 7.875 C5.80928591 10.56363958 5.91546343 13.00281248 5.85546875 15.6796875 C5.85122391 16.4036673 5.84697906 17.12764709 5.84260559 17.87356567 C5.82592972 20.16610287 5.78830081 22.45773246 5.75 24.75 C5.73493871 26.31248722 5.72125284 27.87498835 5.70898438 29.4375 C5.67606293 33.25034505 5.62436002 37.06251911 5.5625 40.875 C2.5925 40.875 -0.3775 40.875 -3.4375 40.875 C-3.7675 40.215 -4.0975 39.555 -4.4375 38.875 C-5.0975 39.37 -5.7575 39.865 -6.4375 40.375 C-10.22563232 42.26906616 -13.27623385 42.79972581 -17.4375 41.875 C-20.70934462 39.22967882 -23.08921446 37.00429114 -23.78125 32.7734375 C-24.10818468 27.49344241 -23.69493687 24.46700968 -20.1875 20.375 C-15.68968892 15.68497477 -11.85274816 14.61522094 -5.4375 13.875 C-5.7675 12.225 -6.0975 10.575 -6.4375 8.875 C-11.65729128 8.6950072 -15.51012981 8.90405192 -20.4375 10.875 C-20.4375 7.905 -20.4375 4.935 -20.4375 1.875 C-13.63666288 -1.67326284 -7.37134961 -2.41244169 0 0 Z " fill="#F7F7F7" transform="translate(371.4375,319.125)"/>
<path d="M0 0 C0 3.63 0 7.26 0 11 C2.97 11 5.94 11 9 11 C9 14.3 9 17.6 9 21 C6.03 21 3.06 21 0 21 C0.33 28.26 0.66 35.52 1 43 C2.98 43.33 4.96 43.66 7 44 C7.33 46.97 7.66 49.94 8 53 C2.96096545 54.67967818 -2.05140623 54.87064828 -6.9375 52.6875 C-9 51 -9 51 -11 48 C-11.22705078 45.08911133 -11.22705078 45.08911133 -11.1953125 41.58203125 C-11.18564453 39.70161133 -11.18564453 39.70161133 -11.17578125 37.78320312 C-11.15902344 36.47287109 -11.14226562 35.16253906 -11.125 33.8125 C-11.11496639 32.47722013 -11.1058412 31.14193311 -11.09765625 29.80664062 C-11.07405292 26.53757985 -11.04112594 23.26887972 -11 20 C-12.65 20 -14.3 20 -16 20 C-16 17.03 -16 14.06 -16 11 C-14.35 11 -12.7 11 -11 11 C-11 8.03 -11 5.06 -11 2 C-7.17010894 0.19769832 -4.21878192 -0.19622241 0 0 Z " fill="#F2F2F2" transform="translate(310,382)"/>
<path d="M0 0 C0 2.97 0 5.94 0 9 C2.31 9 4.62 9 7 9 C7 12.3 7 15.6 7 19 C4.69 19 2.38 19 0 19 C0.33 26.59 0.66 34.18 1 42 C3.31 42 5.62 42 8 42 C8.02689216 43.47906892 8.04634621 44.95827483 8.0625 46.4375 C8.07410156 47.26121094 8.08570313 48.08492188 8.09765625 48.93359375 C8 51 8 51 7 52 C1.63088502 52.50232517 -3.3103724 52.9123989 -8.125 50.3125 C-11.54096836 46.09947236 -12.25019766 42.39427178 -12.1953125 37.04296875 C-12.18886719 35.93115234 -12.18242187 34.81933594 -12.17578125 33.67382812 C-12.15902344 32.52333984 -12.14226562 31.37285156 -12.125 30.1875 C-12.11597656 29.01767578 -12.10695313 27.84785156 -12.09765625 26.64257812 C-12.07413732 23.76150947 -12.04126852 20.88086011 -12 18 C-12.99 18 -13.98 18 -15 18 C-15 15.36 -15 12.72 -15 10 C-14.01 10 -13.02 10 -12 10 C-12 8.02 -12 6.04 -12 4 C-10.56570999 3.32645501 -9.12742943 2.66140299 -7.6875 2 C-6.88699219 1.62875 -6.08648437 1.2575 -5.26171875 0.875 C-3 0 -3 0 0 0 Z " fill="#F6F6F6" transform="translate(396,309)"/>
<path d="M0 0 C3.63 0 7.26 0 11 0 C11 20.13 11 40.26 11 61 C7.37 61 3.74 61 0 61 C0 40.87 0 20.74 0 0 Z " fill="#F6F6F6" transform="translate(360,374)"/>
<path d="M0 0 C0.96808594 -0.01417969 1.93617188 -0.02835937 2.93359375 -0.04296875 C5.5625 0.1875 5.5625 0.1875 8.5625 2.1875 C8.2325 5.1575 7.9025 8.1275 7.5625 11.1875 C6.16 11.105 4.7575 11.0225 3.3125 10.9375 C0.13475024 10.75057354 -1.07597779 10.93113657 -3.70703125 12.796875 C-5.96653605 15.91835792 -5.94077102 17.8640116 -5.875 21.6875 C-5.87371094 22.8115625 -5.87242187 23.935625 -5.87109375 25.09375 C-5.39904566 28.46187688 -4.96677345 29.92215073 -2.4375 32.1875 C0.07130616 32.67011667 0.07130616 32.67011667 2.75 32.4375 C4.338125 32.355 5.92625 32.2725 7.5625 32.1875 C7.8925 35.4875 8.2225 38.7875 8.5625 42.1875 C2.89102986 44.07799005 -3.24547914 43.94474357 -8.875 42 C-13.78009074 38.53054557 -15.85855268 34.90694868 -17.4375 29.1875 C-18.72495828 13.68783997 -18.72495828 13.68783997 -14.4375 7.1875 C-9.83956788 2.53635107 -6.64341399 0.04411297 0 0 Z " fill="#F3F3F3" transform="translate(239.4375,317.8125)"/>
<path d="M0 0 C0.99 0.66 1.98 1.32 3 2 C2.67 4.64 2.34 7.28 2 10 C0.96939453 10.03867187 0.96939453 10.03867187 -0.08203125 10.078125 C-0.98308594 10.13484375 -1.88414063 10.1915625 -2.8125 10.25 C-3.70582031 10.29640625 -4.59914063 10.3428125 -5.51953125 10.390625 C-8.08603843 10.80896275 -8.08603843 10.80896275 -9.80859375 12.671875 C-11.31772329 15.62086256 -11.33250368 17.69985265 -11.25 21 C-11.23453125 22.03125 -11.2190625 23.0625 -11.203125 24.125 C-11.06807435 27.21945682 -11.06807435 27.21945682 -10 31 C-4.06 31.99 -4.06 31.99 2 33 C2.33 35.97 2.66 38.94 3 42 C-2.81385476 43.93795159 -8.92108776 44.02055692 -14.4375 41.3125 C-19.37005905 36.86116623 -22.63565842 32.69546462 -23.30078125 25.94921875 C-23.33012997 17.78049226 -22.67984409 12.15837877 -18.1875 5.1875 C-12.91344324 -0.08655676 -7.1973461 -0.95386515 0 0 Z " fill="#F4F4F4" transform="translate(128,318)"/>
<path d="M0 0 C2.01623639 1.78277744 3.37344618 3.83126157 5 6 C4.34 6.763125 3.68 7.52625 3 8.3125 C-0.0234676 12.84232157 0.36319272 17.76575482 1 23 C1.95681345 26.59279457 1.95681345 26.59279457 4 29 C6.58414426 29.96906827 6.58414426 29.96906827 9 30 C10.65 27.69 12.3 25.38 14 23 C14.33 23.66 14.66 24.32 15 25 C15.66 25.33 16.32 25.66 17 26 C17.66666667 27.33333333 18.33333333 28.66666667 19 30 C18.34 30.33 17.68 30.66 17 31 C17.66 31.99 18.32 32.98 19 34 C18.06543653 36.33640867 17.42895674 37.72186367 15.2890625 39.109375 C10.71756928 40.88804472 5.8119785 40.52248024 1 40 C-3.47870656 37.84062362 -6.18198188 35.07047061 -9 31 C-11.48069373 23.55791881 -11.50712905 13.08937621 -8.80078125 5.74609375 C-5.13914526 0 -5.13914526 0 0 0 Z " fill="#F2F2F2" transform="translate(260,321)"/>
<path d="M0 0 C3.63 0 7.26 0 11 0 C11 14.19 11 28.38 11 43 C7.37 43 3.74 43 0 43 C0 28.81 0 14.62 0 0 Z " fill="#F4F4F4" transform="translate(240,392)"/>
<path d="M0 0 C1.65 1.32 3.3 2.64 5 4 C4.67 4.99 4.34 5.98 4 7 C3.37708594 15.60846814 3.1982734 22.57914979 8 30 C8.33 30.66 8.66 31.32 9 32 C8.01 31.67 7.02 31.34 6 31 C6 30.34 6 29.68 6 29 C3.9754262 30.93254772 2.57894208 32.63158688 1 35 C0.67 32.03 0.34 29.06 0 26 C-2.10375 26.12375 -2.10375 26.12375 -4.25 26.25 C-7.69746816 26.26084109 -8.65851158 26.25611632 -11.5 24.125 C-15.01735993 19.14207343 -14.52881667 13.92748237 -14 8 C-12.625 4.75 -12.625 4.75 -10 3 C-6.62374475 2.61368866 -3.38080223 2.70966393 0 3 C0 2.01 0 1.02 0 0 Z " fill="#0D0D0D" transform="translate(130,325)"/>
<path d="M0 0 C0.33 0.66 0.66 1.32 1 2 C3.01669827 3.13350534 3.01669827 3.13350534 5 4 C4.67 4.99 4.34 5.98 4 7 C3.74863344 10.07885945 3.76874399 13.16192753 3.75 16.25 C3.729375 17.08402344 3.70875 17.91804688 3.6875 18.77734375 C3.65281529 24.30088323 4.47281677 28.07864319 7 33 C6.34 33 5.68 33 5 33 C4.67 32.34 4.34 31.68 4 31 C3.34 31.66 2.68 32.32 2 33 C1.34 32.67 0.68 32.34 0 32 C0 30.35 0 28.7 0 27 C-0.99 27.33 -1.98 27.66 -3 28 C-6.4375 28.375 -6.4375 28.375 -10 28 C-12.74698435 25.34131157 -13.88730553 23.62798022 -14.56640625 19.84375 C-14.55594964 10.89288881 -14.55594964 10.89288881 -11.9375 6.6875 C-8.33103277 4.61569968 -6.09850772 4.53601799 -2 5 C-1.34 5.33 -0.68 5.66 0 6 C0 4.02 0 2.04 0 0 Z " fill="#080808" transform="translate(247,323)"/>
<path d="M0 0 C0.33 0 0.66 0 1 0 C1.2475 1.03125 1.495 2.0625 1.75 3.125 C2.84079063 7.00600143 4.62933884 9.76009641 7 13 C8.32 12.67 9.64 12.34 11 12 C11 21.9 11 31.8 11 42 C7.37 42 3.74 42 0 42 C0 28.14 0 14.28 0 0 Z " fill="#F9F9F9" transform="translate(258,393)"/>
<path d="M0 0 C2.42204038 3.63306058 2.23302891 5.31819023 2.1953125 9.63671875 C2.18564453 11.58481445 2.18564453 11.58481445 2.17578125 13.57226562 C2.1590706 14.94401307 2.14214071 16.31575786 2.125 17.6875 C2.11496674 19.07095718 2.10584149 20.45442127 2.09765625 21.83789062 C2.07404967 25.22543452 2.04112037 28.61263072 2 32 C-1.63 32 -5.26 32 -9 32 C-9 22.1 -9 12.2 -9 2 C-4 0 -4 0 0 0 Z " fill="#F9F9F9" transform="translate(341,328)"/>
<path d="M0 0 C3.03458931 2.52882443 4.84601103 4.4323418 5.23828125 8.42578125 C5.43629344 16.12741313 5.43629344 16.12741313 3.4375 20.125 C0.2003942 22.61508138 -1.92999768 23.07267861 -6 23 C-8.94572605 20.82946501 -9.84060941 19.47817177 -11 16 C-11.51005145 11.06671551 -11.76029306 7.241812 -9.125 2.9375 C-6.03737137 0.12230919 -4.1560122 -0.49476336 0 0 Z " fill="#0B0B0B" transform="translate(218,402)"/>
<path d="M0 0 C0.99 0.99 1.98 1.98 3 3 C2.67515625 3.70511719 2.3503125 4.41023438 2.015625 5.13671875 C-0.5684529 12.42183067 0.63918098 20.79328931 3 28 C3.98482022 30.00751815 4.98152514 32.00934459 6 34 C6 34.99 6 35.98 6 37 C5.34 37 4.68 37 4 37 C3.34 36.01 2.68 35.02 2 34 C-0.56282742 33.27034634 -0.56282742 33.27034634 -3 33 C-3 31.35 -3 29.7 -3 28 C-3.969375 28.020625 -4.93875 28.04125 -5.9375 28.0625 C-9 28 -9 28 -10 27 C-10.08700342 25.36527118 -10.10701063 23.72685945 -10.09765625 22.08984375 C-10.09443359 21.10048828 -10.09121094 20.11113281 -10.08789062 19.09179688 C-10.07951172 18.05087891 -10.07113281 17.00996094 -10.0625 15.9375 C-10.05798828 14.89271484 -10.05347656 13.84792969 -10.04882812 12.77148438 C-10.03699913 10.1809334 -10.02051689 7.59049441 -10 5 C-7.03 5 -4.06 5 -1 5 C-0.67 3.35 -0.34 1.7 0 0 Z " fill="#070707" transform="translate(320,398)"/>
<path d="M0 0 C0.33 0 0.66 0 1 0 C1.33 5.28 1.66 10.56 2 16 C7.55810604 17.40723561 7.55810604 17.40723561 11 16 C11 10.72 11 5.44 11 0 C11.33 0 11.66 0 12 0 C12.33 7.59 12.66 15.18 13 23 C15.31 23 17.62 23 20 23 C20.02689216 24.47906892 20.04634621 25.95827483 20.0625 27.4375 C20.07410156 28.26121094 20.08570313 29.08492188 20.09765625 29.93359375 C20 32 20 32 19 33 C13.63088502 33.50232517 8.6896276 33.9123989 3.875 31.3125 C0.52097249 27.17586607 -0.25155194 23.52010611 -0.1953125 18.26171875 C-0.18886719 17.19501953 -0.18242187 16.12832031 -0.17578125 15.02929688 C-0.15902344 13.92650391 -0.14226562 12.82371094 -0.125 11.6875 C-0.11597656 10.56537109 -0.10695313 9.44324219 -0.09765625 8.28710938 C-0.07414486 5.52452091 -0.04128155 2.76237068 0 0 Z " fill="#E4E4E4" transform="translate(384,328)"/>
<path d="M0 0 C2.9375 0.5 2.9375 0.5 4.75 1.75 C7.80540451 6.25270139 7.52908878 12.28251564 6.9375 17.5 C5.25 21.0625 5.25 21.0625 2.9375 23.5 C0.1875 24.375 0.1875 24.375 -2.0625 24.5 C-6.67350194 18.99654608 -7.42391808 15.22868352 -7.33984375 8.17578125 C-7.0625 5.5 -7.0625 5.5 -5.4375 2.3125 C-3.0625 0.5 -3.0625 0.5 0 0 Z " fill="#0D0D0D" transform="translate(267.0625,327.5)"/>
<path d="M0 0 C2.45208751 2.42282632 2.97778642 3.81728238 3.3984375 7.27734375 C3.39070313 8.48519531 3.38296875 9.69304687 3.375 10.9375 C3.38273437 12.14277344 3.39046875 13.34804688 3.3984375 14.58984375 C2.9740912 18.22174887 2.20939339 20.11772181 0 23 C-2.4375 24.0625 -2.4375 24.0625 -5 24 C-7.82901133 21.79965786 -8.86039845 20.41880464 -10 17 C-10.1447963 15.04524991 -10.22067502 13.0848862 -10.25 11.125 C-10.28867187 9.58199219 -10.28867187 9.58199219 -10.328125 8.0078125 C-9.95503198 4.58779313 -9.03027507 2.74974147 -7 0 C-4.24438552 -1.37780724 -2.90228766 -0.92023755 0 0 Z " fill="#090909" transform="translate(341,402)"/>
<path d="M0 0 C3 0.4375 3 0.4375 4.8125 1.8125 C7.05762051 4.88477017 7.16201734 6.98366315 7.1875 10.75 C7.20167969 11.69488281 7.21585938 12.63976562 7.23046875 13.61328125 C6.89425865 17.73327962 5.93273395 20.50476605 3 23.4375 C0.0625 23.8125 0.0625 23.8125 -3 23.4375 C-5.62526222 20.99053428 -5.99208651 19.50763523 -6.3984375 15.90625 C-6.39070312 14.5965625 -6.38296875 13.286875 -6.375 11.9375 C-6.38273438 10.6278125 -6.39046875 9.318125 -6.3984375 7.96875 C-5.85555932 3.15735911 -4.97192725 0.72507272 0 0 Z " fill="#0C0C0C" transform="translate(150,327.5625)"/>
<path d="M0 0 C0 3.63 0 7.26 0 11 C-0.66 11 -1.32 11 -2 11 C-1.67 11.66 -1.34 12.32 -1 13 C-0.01 13.33 0.98 13.66 2 14 C1.67 15.32 1.34 16.64 1 18 C0.67 17.34 0.34 16.68 0 16 C-0.66 16.495 -1.32 16.99 -2 17.5 C-6.11751444 19.55875722 -8.41253398 19.50971845 -13 19 C-15.5 17 -15.5 17 -17 15 C-15.68 14.34 -14.36 13.68 -13 13 C-13 12.01 -13 11.02 -13 10 C-12.01 9.67 -11.02 9.34 -10 9 C-9.319375 7.2984375 -9.319375 7.2984375 -8.625 5.5625 C-7 2 -7 2 -4.4375 0.5625 C-2 0 -2 0 0 0 Z " fill="#F1F1F1" transform="translate(367,342)"/>
<path d="M0 0 C0.33 0 0.66 0 1 0 C1 2.97 1 5.94 1 9 C2.98 9 4.96 9 7 9 C7 12 7 12 6 14 C5.59746664 19.28910111 5.44688083 24.21290155 8 29 C6.35 29.33 4.7 29.66 3 30 C2.67 29.34 2.34 28.68 2 28 C1.67 28.99 1.34 29.98 1 31 C-3.29 31 -7.58 31 -12 31 C-12 21.1 -12 11.2 -12 1 C-11.67 1 -11.34 1 -11 1 C-11 10.57 -11 20.14 -11 30 C-7.37 30 -3.74 30 0 30 C0 20.1 0 10.2 0 0 Z " fill="#252525" transform="translate(343,330)"/>
<path d="M0 0 C1.875 1 1.875 1 3 3 C3.46523509 5.75694869 3.51601948 8.24789609 3 11 C0.93531073 13.44703913 -0.39144027 13.87828805 -3.5 14.5 C-6 14 -6 14 -8.375 11.9375 C-10.48816666 8.11754488 -10.17341001 6.14604871 -9 2 C-5.53076119 -0.31282587 -4.07794425 -0.42478586 0 0 Z " fill="#EEEEEE" transform="translate(248,375)"/>
<path d="M0 0 C0.33 0 0.66 0 1 0 C1 13.53 1 27.06 1 41 C4.63 41 8.26 41 12 41 C12 41.33 12 41.66 12 42 C8.04 42 4.08 42 0 42 C-0.33 39.36 -0.66 36.72 -1 34 C-1.66 34 -2.32 34 -3 34 C-3.33 34.66 -3.66 35.32 -4 36 C-5.64295195 37.36244796 -7.30824337 38.69864875 -9 40 C-9.66 39.67 -10.32 39.34 -11 39 C-9.76302083 37.6328125 -8.52604167 36.265625 -7.2890625 34.8984375 C-4.02054128 30.08479716 -3.76784255 25.30434487 -3.875 19.625 C-3.89304687 18.37976563 -3.91109375 17.13453125 -3.9296875 15.8515625 C-3.95289063 14.91054688 -3.97609375 13.96953125 -4 13 C-3.34 13 -2.68 13 -2 13 C-0.71553081 10.43106162 -0.67022856 8.23423663 -0.4375 5.375 C-0.35371094 4.37210937 -0.26992188 3.36921875 -0.18359375 2.3359375 C-0.12300781 1.56507813 -0.06242187 0.79421875 0 0 Z " fill="#151515" transform="translate(288,319)"/>
<path d="M0 0 C1.99948622 1.80598755 2.98658327 3.24303771 3.9375 5.75 C1.60416667 5.75 -0.72916667 5.75 -3.0625 5.75 C-6.94451101 6.50135697 -10.53448859 7.98599429 -14.0625 9.75 C-16.47064077 6.23812804 -17.42879408 4.02343092 -17.0625 -0.25 C-11.57866488 -2.07794504 -5.36753079 -2.1908289 0 0 Z " fill="#F4F4F4" transform="translate(432.0625,319.25)"/>
<path d="M0 0 C-0.66 0 -1.32 0 -2 0 C-2.433125 0.928125 -2.433125 0.928125 -2.875 1.875 C-4 4 -4 4 -6 6 C-5.34 6.33 -4.68 6.66 -4 7 C-4.45375 7.7425 -4.9075 8.485 -5.375 9.25 C-6.68640796 11.46930578 -7.88280803 13.67967822 -9 16 C-9.33 15.67 -9.66 15.34 -10 15 C-10.66 15.66 -11.32 16.32 -12 17 C-12.33 15.02 -12.66 13.04 -13 11 C-13.33 13.64 -13.66 16.28 -14 19 C-14.33 19 -14.66 19 -15 19 C-15.58004593 14.50694584 -15.96704362 10.61973146 -13.58203125 6.625 C-6.01756852 -2.14913161 -6.01756852 -2.14913161 0 0 Z " fill="#EDEDED" transform="translate(363,335)"/>
<path d="M0 0 C1.62490954 -0.02698189 3.24994633 -0.04638757 4.875 -0.0625 C5.77992188 -0.07410156 6.68484375 -0.08570313 7.6171875 -0.09765625 C10 0 10 0 12 1 C11.75 3.375 11.75 3.375 11 6 C7.7044247 8.66181082 4.06660119 8.15640774 0 8 C-1.125 6.25 -1.125 6.25 -2 4 C-1.0546875 1.859375 -1.0546875 1.859375 0 0 Z " fill="#F6F6F6" transform="translate(358,318)"/>
<path d="M0 0 C0 2.97 0 5.94 0 9 C2.31 9 4.62 9 7 9 C7 9.33 7 9.66 7 10 C4.36 10 1.72 10 -1 10 C-1.33 8.35 -1.66 6.7 -2 5 C-2.66 5 -3.32 5 -4 5 C-4 6.32 -4 7.64 -4 9 C-6.64 9 -9.28 9 -12 9 C-12 7.35 -12 5.7 -12 4 C-10.56570999 3.32645501 -9.12742943 2.66140299 -7.6875 2 C-6.88699219 1.62875 -6.08648437 1.2575 -5.26171875 0.875 C-3 0 -3 0 0 0 Z " fill="#DADADA" transform="translate(396,309)"/>
<path d="M0 0 C3.29990605 1.31996242 4.05662875 2.80938987 5.5 6 C5.5 6.99 5.5 7.98 5.5 9 C1.54 9 -2.42 9 -6.5 9 C-5.90268456 3.62416107 -5.90268456 3.62416107 -4.25 1.0625 C-2.5 0 -2.5 0 0 0 Z " fill="#1B1B1B" transform="translate(423.5,326)"/>
<path d="M0 0 C2.97 0.495 2.97 0.495 6 1 C7.01593448 7.88577812 6.83854735 14.09811029 6 21 C5.01 21.33 4.02 21.66 3 22 C2.95101563 20.83082031 2.90203125 19.66164063 2.8515625 18.45703125 C2.77649829 16.90883196 2.70095205 15.36065599 2.625 13.8125 C2.57859375 12.65911133 2.57859375 12.65911133 2.53125 11.48242188 C2.31383889 7.26102289 1.90256928 3.85927672 0 0 Z " fill="#191919" transform="translate(352,399)"/>
<path d="M0 0 C0.36174071 6.39075249 0.36174071 6.39075249 -1.1875 9 C-3 10 -3 10 -5.6875 9.6875 C-6.450625 9.460625 -7.21375 9.23375 -8 9 C-8 7.02 -8 5.04 -8 3 C-2.25 0 -2.25 0 0 0 Z " fill="#0E0E0E" transform="translate(367,342)"/>
<path d="M0 0 C1.125 1.625 1.125 1.625 2 4 C1.125 7.25 1.125 7.25 0 10 C0.99 10.66 1.98 11.32 3 12 C3.33 12.66 3.66 13.32 4 14 C-3.38461538 14.49230769 -3.38461538 14.49230769 -6.5 12 C-6.995 11.34 -7.49 10.68 -8 10 C-6.68 9.34 -5.36 8.68 -4 8 C-4 7.01 -4 6.02 -4 5 C-3.01 4.67 -2.02 4.34 -1 4 C-0.26676204 1.98491642 -0.26676204 1.98491642 0 0 Z " fill="#E9E9E9" transform="translate(358,347)"/>
<path d="M0 0 C0.33 3.3 0.66 6.6 1 10 C-1.31 10.33 -3.62 10.66 -6 11 C-5.34 10.01 -4.68 9.02 -4 8 C-4.66 7.01 -5.32 6.02 -6 5 C-6.625 2.8125 -6.625 2.8125 -7 1 C-4.50935112 0.31292445 -2.62113708 0 0 0 Z " fill="#ECECEC" transform="translate(247,350)"/>
<path d="M0 0 C0 2.97 0 5.94 0 9 C-2.64 9 -5.28 9 -8 9 C-5.83333333 0 -5.83333333 0 0 0 Z " fill="#FBFBFB" transform="translate(318,393)"/>
<path d="M0 0 C1.32 0.33 2.64 0.66 4 1 C3.01 1.33 2.02 1.66 1 2 C0.67 3.65 0.34 5.3 0 7 C-0.66 7 -1.32 7 -2 7 C-2 15.91 -2 24.82 -2 34 C-2.33 34 -2.66 34 -3 34 C-3.07430494 29.80081815 -3.12867413 25.60198726 -3.16479492 21.40234375 C-3.17985681 19.97454154 -3.20031062 18.5467854 -3.22631836 17.11914062 C-3.26281842 15.06368627 -3.27975166 13.00884495 -3.29296875 10.953125 C-3.3086792 9.71723633 -3.32438965 8.48134766 -3.34057617 7.20800781 C-2.97859576 3.79838589 -2.32290222 2.45418505 0 0 Z " fill="#1D1D1D" transform="translate(272,401)"/>
<path d="M0 0 C0.33 0 0.66 0 1 0 C1.33 1.98 1.66 3.96 2 6 C1.34 6 0.68 6 0 6 C0 4.02 0 2.04 0 0 Z M-1 6 C-0.34 6.66 0.32 7.32 1 8 C0.67 9.32 0.34 10.64 0 12 C-3.3 12 -6.6 12 -10 12 C-10.33 11.34 -10.66 10.68 -11 10 C-8.24072656 7.24072656 -5.78845948 7.48216757 -2 7 C-1.67 6.67 -1.34 6.34 -1 6 Z " fill="#070707" transform="translate(251,380)"/>
<path d="M0 0 C1.67542976 0.28604898 3.34385343 0.61781233 5 1 C5.38218767 2.65614657 5.71395102 4.32457024 6 6 C5 7 5 7 1.9375 7.0625 C0.968125 7.041875 -0.00125 7.02125 -1 7 C-1.33 6.34 -1.66 5.68 -2 5 C-1.34 5 -0.68 5 0 5 C-0.2784375 4.0409375 -0.2784375 4.0409375 -0.5625 3.0625 C-0.7790625 2.0415625 -0.7790625 2.0415625 -1 1 C-0.67 0.67 -0.34 0.34 0 0 Z " fill="#181818" transform="translate(361,327)"/>
<path d="M0 0 C0.66 0.33 1.32 0.66 2 1 C1.125 5.875 1.125 5.875 0 7 C0.66 7.66 1.32 8.32 2 9 C-1.75 12 -1.75 12 -4 12 C-4.6875 10.375 -4.6875 10.375 -5 8 C-3.65194009 4.79033355 -2.46598569 2.46598569 0 0 Z " fill="#EAEAEA" transform="translate(302,319)"/>
<path d="M0 0 C2.8125 0.125 2.8125 0.125 6 1 C8.09232309 4.20822874 9 6.15947088 9 10 C8.34 10 7.68 10 7 10 C6.34 9.01 5.68 8.02 5 7 C2.43717258 6.27034634 2.43717258 6.27034634 0 6 C0 4.02 0 2.04 0 0 Z " fill="#121212" transform="translate(317,425)"/>
<path d="M0 0 C-0.66 0 -1.32 0 -2 0 C-2.33644531 0.90492188 -2.33644531 0.90492188 -2.6796875 1.828125 C-4.40265113 4.66234919 -6.13809517 5.37142854 -9.125 6.75 C-10.49011719 7.39195312 -10.49011719 7.39195312 -11.8828125 8.046875 C-12.58148438 8.36140625 -13.28015625 8.6759375 -14 9 C-11.45138362 3.25336018 -6.54181887 -1.96254566 0 0 Z " fill="#E0E0E0" transform="translate(363,335)"/>
<path d="M0 0 C1.9375 0.8125 1.9375 0.8125 4 2 C4.33 2.99 4.66 3.98 5 5 C4.38125 5.103125 3.7625 5.20625 3.125 5.3125 C0.63473516 5.87525373 0.63473516 5.87525373 -1 9 C-4.3 8.67 -7.6 8.34 -11 8 C-11 7.67 -11 7.34 -11 7 C-7.97265625 6.26757812 -7.97265625 6.26757812 -4.9453125 5.53515625 C-2.9414343 5.05153008 -2.9414343 5.05153008 -1 4 C-0.34786708 1.97536745 -0.34786708 1.97536745 0 0 Z " fill="#E7E7E7" transform="translate(370,319)"/>
<path d="M0 0 C1.37310707 1.29233607 2.71034824 2.62437146 4 4 C3.67 4.66 3.34 5.32 3 6 C0.6859378 6.73075648 -1.64828869 7.40138258 -4 8 C-4.6875 5.6875 -4.6875 5.6875 -5 3 C-3.40083326 0.79162689 -2.76966516 0 0 0 Z " fill="#FAFAFA" transform="translate(260,321)"/>
<path d="M0 0 C0.33 1.65 0.66 3.3 1 5 C0.01 5 -0.98 5 -2 5 C-2.66 5.66 -3.32 6.32 -4 7 C-5.32 5.68 -6.64 4.36 -8 3 C-7.67 2.34 -7.34 1.68 -7 1 C-4.61370553 0.38812962 -2.46459429 0 0 0 Z " fill="#FAFAFA" transform="translate(326,322)"/>
<path d="M0 0 C0.66 0.99 1.32 1.98 2 3 C0.6875 4.5 0.6875 4.5 -1 6 C-1.99 6 -2.98 6 -4 6 C-4.66 6.66 -5.32 7.32 -6 8 C-6.33 6.02 -6.66 4.04 -7 2 C-6.030625 1.855625 -5.06125 1.71125 -4.0625 1.5625 C-1.13513227 1.32437659 -1.13513227 1.32437659 0 0 Z " fill="#171717" transform="translate(197,426)"/>
<path d="M0 0 C0.33 0 0.66 0 1 0 C1 2.64 1 5.28 1 8 C-0.65 8 -2.3 8 -4 8 C-4.33 6.68 -4.66 5.36 -5 4 C-4.360625 3.71125 -3.72125 3.4225 -3.0625 3.125 C-0.84793921 2.17176549 -0.84793921 2.17176549 0 0 Z " fill="#222222" transform="translate(380,319)"/>
<path d="M0 0 C2.475 0.99 2.475 0.99 5 2 C3.35 4.31 1.7 6.62 0 9 C-0.66 8.67 -1.32 8.34 -2 8 C-2 4.23312136 -1.76462683 3.08809695 0 0 Z " fill="#111111" transform="translate(148,384)"/>
<path d="M0 0 C4.0042343 3.49087093 5.62671065 5.64951939 6 11 C5.34 10.67 4.68 10.34 4 10 C4 9.34 4 8.68 4 8 C2.68 7.34 1.36 6.68 0 6 C0 4 0 2 0 0 Z " fill="#EAEAEA" transform="translate(337,320)"/>
<path d="M0 0 C0.66 0.33 1.32 0.66 2 1 C1.67 1.99 1.34 2.98 1 4 C0.34 4 -0.32 4 -1 4 C-1 4.66 -1 5.32 -1 6 C-1.66 6 -2.32 6 -3 6 C-3 6.66 -3 7.32 -3 8 C-4.32 8.33 -5.64 8.66 -7 9 C-5.64978174 4.58110387 -3.73884332 2.65654657 0 0 Z " fill="#E3E3E3" transform="translate(114,320)"/>
<path d="M0 0 C2.64 0 5.28 0 8 0 C8 0.33 8 0.66 8 1 C6.02 1 4.04 1 2 1 C2.99 2.32 3.98 3.64 5 5 C4.34 6.32 3.68 7.64 3 9 C0.23776722 6.23776722 0.42143709 3.79293383 0 0 Z " fill="#EEEEEE" transform="translate(258,392)"/>
<path d="M0 0 C0.66 0 1.32 0 2 0 C2.3633218 6.41868512 2.3633218 6.41868512 0.75 9 C-1 10 -1 10 -3.1875 9.6875 C-3.785625 9.460625 -4.38375 9.23375 -5 9 C-4.34 8.67 -3.68 8.34 -3 8 C-2.67 7.01 -2.34 6.02 -2 5 C-1.34 4.67 -0.68 4.34 0 4 C0 2.68 0 1.36 0 0 Z " fill="#2F2F2F" transform="translate(365,342)"/>
<path d="M0 0 C0.78375 0.2475 1.5675 0.495 2.375 0.75 C2.705 1.41 3.035 2.07 3.375 2.75 C2.385 2.75 1.395 2.75 0.375 2.75 C0.375 3.74 0.375 4.73 0.375 5.75 C-0.285 5.42 -0.945 5.09 -1.625 4.75 C-1.625 4.09 -1.625 3.43 -1.625 2.75 C-2.945 2.42 -4.265 2.09 -5.625 1.75 C-2.625 -0.25 -2.625 -0.25 0 0 Z " fill="#202020" transform="translate(338.625,401.25)"/>
<path d="M0 0 C5.75 2.625 5.75 2.625 8 6 C6.68 6 5.36 6 4 6 C4 5.01 4 4.02 4 3 C3.34 3 2.68 3 2 3 C2 3.66 2 4.32 2 5 C1.34 5 0.68 5 0 5 C-0.33 4.01 -0.66 3.02 -1 2 C-0.67 1.34 -0.34 0.68 0 0 Z " fill="#DEDEDE" transform="translate(273,319)"/>
<path d="M0 0 C0.66 0 1.32 0 2 0 C2 1.65 2 3.3 2 5 C-0.31 5.33 -2.62 5.66 -5 6 C-3.38405168 3.95880212 -1.7143618 1.95927063 0 0 Z " fill="#D8D8D8" transform="translate(246,355)"/>
<path d="M0 0 C0.33 0 0.66 0 1 0 C1 3.96 1 7.92 1 12 C-0.32 11.67 -1.64 11.34 -3 11 C-2.690625 10.484375 -2.38125 9.96875 -2.0625 9.4375 C-0.70940713 6.33334577 -0.38640576 3.34884993 0 0 Z " fill="#F8F8F8" transform="translate(283,337)"/>
<path d="M0 0 C0 0.33 0 0.66 0 1 C-1.98 1 -3.96 1 -6 1 C-6.2475 1.61875 -6.495 2.2375 -6.75 2.875 C-8.20628639 5.35068687 -9.37812506 5.95125002 -12 7 C-9.14032181 0.62071789 -7.11769183 -0.40288822 0 0 Z " fill="#2D2D2D" transform="translate(245,328)"/>
<path d="M0 0 C-0.66 1.32 -1.32 2.64 -2 4 C-2.99 4 -3.98 4 -5 4 C-5 3.34 -5 2.68 -5 2 C-5.99 1.67 -6.98 1.34 -8 1 C-2.25 -1.125 -2.25 -1.125 0 0 Z " fill="#E9E9E9" transform="translate(221,424)"/>
<path d="M0 0 C0.66 0 1.32 0 2 0 C2.33 1.65 2.66 3.3 3 5 C1.68 5.33 0.36 5.66 -1 6 C-1.042721 4.33388095 -1.04063832 2.66617115 -1 1 C-0.67 0.67 -0.34 0.34 0 0 Z " fill="#E7E7E7" transform="translate(385,312)"/>
<path d="M0 0 C2.5 2.3125 2.5 2.3125 5 5 C5 5.99 5 6.98 5 8 C3.0625 7.375 3.0625 7.375 1 6 C0.25 2.875 0.25 2.875 0 0 Z " fill="#1D1D1D" transform="translate(148,424)"/>
<path d="M0 0 C2.475 0.495 2.475 0.495 5 1 C4.1875 2.9375 4.1875 2.9375 3 5 C2.01 5.33 1.02 5.66 0 6 C0 4.02 0 2.04 0 0 Z " fill="#191919" transform="translate(317,425)"/>
<path d="M0 0 C0.33 0 0.66 0 1 0 C1.33 1.98 1.66 3.96 2 6 C1.34 6 0.68 6 0 6 C0 4.02 0 2.04 0 0 Z M-1 6 C-0.34 6.66 0.32 7.32 1 8 C0.01 9.485 0.01 9.485 -1 11 C-3 10 -3 10 -4 8 C-3.01 7.34 -2.02 6.68 -1 6 Z " fill="#272727" transform="translate(251,380)"/>
<path d="M0 0 C0 3.93169105 -1.39419615 5.16427228 -4 8 C-4.66 8 -5.32 8 -6 8 C-4.55746343 4.63408134 -2.66735273 2.48952921 0 0 Z " fill="#E5E5E5" transform="translate(155,384)"/>
<path d="M0 0 C0.33 0.66 0.66 1.32 1 2 C1.99 2.33 2.98 2.66 4 3 C2.35 4.65 0.7 6.3 -1 8 C-0.67 5.36 -0.34 2.72 0 0 Z " fill="#2A2A2A" transform="translate(247,323)"/>
<path d="M0 0 C0.33 1.32 0.66 2.64 1 4 C-0.98 5.32 -2.96 6.64 -5 8 C-3.8141763 4.62496331 -2.72426311 2.35277269 0 0 Z " fill="#DCDCDC" transform="translate(413,320)"/>
<path d="M0 0 C0.66 0.33 1.32 0.66 2 1 C1.34 2.32 0.68 3.64 0 5 C-1.65 5 -3.3 5 -5 5 C-3.35 3.35 -1.7 1.7 0 0 Z " fill="#DDDDDD" transform="translate(324,318)"/>
</svg>
