<?xml version="1.0" standalone="no"?>
<!DOCTYPE svg PUBLIC "-//W3C//DTD SVG 1.1//EN"
 "http://www.w3.org/Graphics/SVG/1.1/DTD/svg11.dtd">
<!-- Created with svg_stack (http://github.com/astraw/svg_stack) -->
<svg xmlns:sodipodi="http://sodipodi.sourceforge.net/DTD/sodipodi-0.dtd" xmlns="http://www.w3.org/2000/svg" version="1.1" width="256.0" height="256.0">
  <defs/>
  <g id="id0:id0" transform="matrix(1.25,0,0,1.25,0.0,0.0)"><g transform="translate(0.000000,204.800000) scale(0.040000,-0.040000)" fill="#a6b5be" stroke="none">
<path d="M4351 3274 c-30 -64 -33 -66 -107 -100 -41 -19 -82 -34 -91 -34 -9 0 -27 -10 -40 -22 -21 -20 -24 -20 -40 -5 -24 21 -202 25 -301 7 -58 -11 -77 -19 -89 -37 -15 -22 -14 -27 8 -71 22 -42 29 -48 74 -60 62 -16 112 -9 175 24 42 22 60 25 127 23 57 -1 86 2 104 13 75 48 200 50 248 4 15 -15 30 -24 34 -21 4 3 5 2 3 -1 -7 -8 24 -85 41 -105 8 -9 35 -19 61 -23 74 -10 152 -86 152 -150 0 -13 -3 -13 -27 0 -42 21 -47 17 -19 -17 30 -36 36 -72 21 -136 -5 -20 -12 -23 -53 -23 -28 0 -62 8 -82 19 -50 27 -183 97 -208 110 -58 30 -61 30 -65 18 -5 -14 -7 -13 -32 38 -11 22 -33 46 -48 55 -27 14 -29 14 -50 -11 -36 -42 -181 -129 -241 -143 -28 -7 -29 -8 -23 -63 8 -79 26 -94 124 -104 43 -4 95 -12 115 -19 58 -17 119 -69 169 -145 36 -54 55 -73 90 -88 l44 -19 81 43 81 43 39 -19 c49 -24 159 -31 211 -15 93 31 153 117 153 221 0 98 -52 172 -165 235 -11 6 -31 32 -45 57 -44 81 -74 104 -187 148 -12 4 -40 34 -62 66 -23 32 -51 70 -63 85 l-22 28 22 39 c22 40 27 77 16 144 -6 31 -11 37 -30 37 -16 0 -24 6 -24 18 0 11 -8 18 -24 20 -20 1 -28 -8 -55 -64z m-74 -162 c21 -13 0 -29 -78 -55 -53 -19 -84 -24 -103 -19 -26 7 -21 11 60 44 96 40 103 42 121 30z m-241 -47 c19 -15 19 -15 0 -30 -11 -8 -29 -15 -40 -15 -12 -1 -46 -9 -76 -20 -30 -11 -68 -19 -85 -20 -31 0 -95 33 -95 49 0 5 15 18 33 29 26 17 50 20 138 21 79 1 110 -3 125 -14z m501 -184 c-13 -5 -47 36 -47 57 0 11 10 4 29 -18 16 -20 24 -37 18 -39z m190 -111 c3 -11 9 -20 14 -20 5 0 9 -6 9 -14 0 -8 14 -26 31 -40 l31 -26 -31 0 c-16 0 -33 6 -38 13 -18 28 -41 107 -31 107 5 0 12 -9 15 -20z m81 -124 c34 -18 68 -54 77 -83 8 -28 2 -28 -50 -3 -22 11 -46 19 -52 20 -14 0 -43 60 -36 73 6 11 31 8 61 -7z m128 -103 c30 -70 8 -190 -42 -235 -53 -47 -162 -62 -244 -33 -62 22 -87 19 -169 -22 -54 -27 -78 -34 -90 -26 -9 5 -46 50 -83 99 -88 116 -143 144 -312 160 -82 8 -96 16 -96 54 0 25 5 29 47 40 26 6 52 15 58 20 6 5 25 11 41 14 50 9 143 -43 144 -81 0 -6 10 -28 23 -47 l22 -36 160 6 c224 8 275 17 302 51 13 16 23 31 23 35 0 4 5 19 10 34 9 23 12 25 23 12 7 -9 29 -21 49 -27 20 -7 54 -26 75 -42 22 -18 39 -26 41 -19 6 16 -17 69 -46 110 l-25 35 38 -35 c20 -19 44 -49 51 -67z"/>
<path d="M4420 2900 c11 -15 20 -33 20 -40 0 -19 53 -87 82 -104 14 -9 39 -15 55 -15 l28 1 -29 7 c-25 5 -36 18 -64 76 -34 70 -47 84 -90 97 l-22 6 20 -28z m90 -94 c0 -12 -14 5 -31 39 -8 16 -6 15 10 -4 12 -13 21 -28 21 -35z"/>
<path d="M298 2653 c7 -3 16 -2 19 1 4 3 -2 6 -13 5 -11 0 -14 -3 -6 -6z"/>
<path d="M245 2637 c-91 -54 -124 -106 -125 -192 0 -68 13 -108 51 -157 38 -47 117 -88 169 -88 19 0 69 9 109 20 l75 20 35 -25 c20 -14 54 -39 76 -55 80 -59 208 -75 286 -35 40 21 126 163 115 190 -6 16 -51 29 -151 44 -125 20 -138 20 -172 6 -18 -8 -35 -14 -38 -15 -3 0 -12 -3 -20 -6 -8 -4 -25 0 -38 8 -12 8 -49 23 -82 32 -104 32 -162 64 -184 102 -20 34 -21 34 -50 20 -32 -17 -91 -83 -91 -103 0 -7 -4 -13 -10 -13 -17 0 -23 70 -10 113 12 39 64 118 82 125 10 5 10 22 1 21 -5 0 -17 -6 -28 -12z m-78 -199 c-2 -13 -4 -3 -4 22 0 25 2 35 4 23 2 -13 2 -33 0 -45z m151 13 c9 -29 25 -47 71 -80 33 -22 65 -41 73 -41 7 0 19 -9 26 -20 11 -18 9 -22 -20 -40 -41 -25 -129 -36 -177 -22 -20 7 -51 27 -69 45 -32 33 -32 35 -18 63 8 16 22 46 31 66 14 33 48 68 66 68 3 0 11 -17 17 -39z m580 -240 c-13 -9 -22 -23 -20 -33 2 -13 -8 -18 -51 -23 -70 -9 -109 0 -138 31 l-23 24 75 -1 c86 -1 159 9 159 23 0 5 5 6 11 2 7 -4 2 -12 -13 -23z"/>
<path d="M1380 2496 c-27 -30 -20 -34 77 -46 42 -6 85 -12 94 -15 14 -5 49 21 38 28 -65 37 -108 47 -140 33 -10 -4 -23 -1 -31 8 -14 13 -18 12 -38 -8z"/>
<path d="M3126 1385 c-10 -8 -24 -16 -29 -18 -15 -5 26 -68 55 -87 54 -34 157 -51 196 -31 9 5 31 15 47 22 46 20 81 49 61 49 -9 0 -16 6 -16 13 0 31 -85 57 -205 63 -69 3 -94 0 -109 -11z"/>
<path d="M1693 1343 c-59 -23 82 -166 191 -194 89 -22 200 7 177 48 -4 8 -45 27 -90 43 -46 16 -120 47 -165 70 -83 40 -91 43 -113 33z"/>
<path d="M3278 1183 c7 -3 16 -2 19 1 4 3 -2 6 -13 5 -11 0 -14 -3 -6 -6z"/>
</g>
</g>
  <g id="id1:id1" transform="matrix(1.25,0,0,1.25,0.0,0.0)"><g transform="translate(0.000000,204.800000) scale(0.040000,-0.040000)" fill="#a0b0ba" stroke="none">
<path d="M4351 3274 c-30 -64 -33 -66 -107 -100 -41 -19 -82 -34 -91 -34 -9 0 -27 -10 -40 -22 -21 -20 -24 -20 -40 -5 -24 21 -202 25 -301 7 -58 -11 -77 -19 -89 -37 -15 -22 -14 -27 8 -71 22 -42 29 -48 74 -60 62 -16 112 -9 175 24 42 22 60 25 127 23 57 -1 86 2 104 13 75 48 200 50 248 4 15 -15 30 -24 34 -21 4 3 5 2 3 -1 -7 -8 24 -85 41 -105 8 -9 35 -19 61 -23 74 -10 152 -86 152 -150 0 -13 -3 -13 -27 0 -42 21 -47 17 -19 -17 30 -36 36 -72 21 -136 -5 -20 -12 -23 -53 -23 -28 0 -62 8 -82 19 -50 27 -183 97 -208 110 -58 30 -61 30 -65 18 -5 -14 -7 -13 -32 38 -11 22 -33 46 -48 55 -27 14 -29 14 -50 -11 -36 -42 -181 -129 -241 -143 -28 -7 -29 -8 -23 -63 8 -79 26 -94 124 -104 43 -4 95 -12 115 -19 58 -17 119 -69 169 -145 36 -54 55 -73 90 -88 l44 -19 81 43 81 43 39 -19 c49 -24 159 -31 211 -15 93 31 153 117 153 221 0 98 -52 172 -165 235 -11 6 -31 32 -45 57 -44 81 -74 104 -187 148 -12 4 -40 34 -62 66 -23 32 -51 70 -63 85 l-22 28 22 39 c22 40 27 77 16 144 -6 31 -11 37 -30 37 -16 0 -24 6 -24 18 0 11 -8 18 -24 20 -20 1 -28 -8 -55 -64z m-74 -162 c21 -13 0 -29 -78 -55 -53 -19 -84 -24 -103 -19 -26 7 -21 11 60 44 96 40 103 42 121 30z m-241 -47 c19 -15 19 -15 0 -30 -11 -8 -29 -15 -40 -15 -12 -1 -46 -9 -76 -20 -30 -11 -68 -19 -85 -20 -31 0 -95 33 -95 49 0 5 15 18 33 29 26 17 50 20 138 21 79 1 110 -3 125 -14z m501 -184 c-13 -5 -47 36 -47 57 0 11 10 4 29 -18 16 -20 24 -37 18 -39z m190 -111 c3 -11 9 -20 14 -20 5 0 9 -6 9 -14 0 -8 14 -26 31 -40 l31 -26 -31 0 c-16 0 -33 6 -38 13 -18 28 -41 107 -31 107 5 0 12 -9 15 -20z m81 -124 c34 -18 68 -54 77 -83 8 -28 2 -28 -50 -3 -22 11 -46 19 -52 20 -14 0 -43 60 -36 73 6 11 31 8 61 -7z m128 -103 c30 -70 8 -190 -42 -235 -53 -47 -162 -62 -244 -33 -62 22 -87 19 -169 -22 -54 -27 -78 -34 -90 -26 -9 5 -46 50 -83 99 -88 116 -143 144 -312 160 -82 8 -96 16 -96 54 0 25 5 29 47 40 26 6 52 15 58 20 6 5 25 11 41 14 50 9 143 -43 144 -81 0 -6 10 -28 23 -47 l22 -36 160 6 c224 8 275 17 302 51 13 16 23 31 23 35 0 4 5 19 10 34 9 23 12 25 23 12 7 -9 29 -21 49 -27 20 -7 54 -26 75 -42 22 -18 39 -26 41 -19 6 16 -17 69 -46 110 l-25 35 38 -35 c20 -19 44 -49 51 -67z"/>
<path d="M4420 2900 c11 -15 20 -33 20 -40 0 -19 53 -87 82 -104 14 -9 39 -15 55 -15 l28 1 -29 7 c-25 5 -36 18 -64 76 -34 70 -47 84 -90 97 l-22 6 20 -28z m90 -94 c0 -12 -14 5 -31 39 -8 16 -6 15 10 -4 12 -13 21 -28 21 -35z"/>
<path d="M298 2653 c7 -3 16 -2 19 1 4 3 -2 6 -13 5 -11 0 -14 -3 -6 -6z"/>
<path d="M245 2637 c-91 -54 -124 -106 -125 -192 0 -68 13 -108 51 -157 38 -47 117 -88 169 -88 19 0 69 9 109 20 l75 20 35 -25 c20 -14 54 -39 76 -55 80 -59 208 -75 286 -35 40 21 126 163 115 190 -6 16 -51 29 -151 44 -125 20 -138 20 -172 6 -18 -8 -35 -14 -38 -15 -3 0 -12 -3 -20 -6 -8 -4 -25 0 -38 8 -12 8 -49 23 -82 32 -104 32 -162 64 -184 102 -20 34 -21 34 -50 20 -32 -17 -91 -83 -91 -103 0 -7 -4 -13 -10 -13 -17 0 -23 70 -10 113 12 39 64 118 82 125 10 5 10 22 1 21 -5 0 -17 -6 -28 -12z m-78 -199 c-2 -13 -4 -3 -4 22 0 25 2 35 4 23 2 -13 2 -33 0 -45z m151 13 c9 -29 25 -47 71 -80 33 -22 65 -41 73 -41 7 0 19 -9 26 -20 11 -18 9 -22 -20 -40 -41 -25 -129 -36 -177 -22 -20 7 -51 27 -69 45 -32 33 -32 35 -18 63 8 16 22 46 31 66 14 33 48 68 66 68 3 0 11 -17 17 -39z m580 -240 c-13 -9 -22 -23 -20 -33 2 -13 -8 -18 -51 -23 -70 -9 -109 0 -138 31 l-23 24 75 -1 c86 -1 159 9 159 23 0 5 5 6 11 2 7 -4 2 -12 -13 -23z"/>
<path d="M1380 2496 c-27 -30 -20 -34 77 -46 42 -6 85 -12 94 -15 14 -5 49 21 38 28 -65 37 -108 47 -140 33 -10 -4 -23 -1 -31 8 -14 13 -18 12 -38 -8z"/>
<path d="M3126 1385 c-10 -8 -24 -16 -29 -18 -15 -5 26 -68 55 -87 54 -34 157 -51 196 -31 9 5 31 15 47 22 46 20 81 49 61 49 -9 0 -16 6 -16 13 0 31 -85 57 -205 63 -69 3 -94 0 -109 -11z"/>
<path d="M1693 1343 c-59 -23 82 -166 191 -194 89 -22 200 7 177 48 -4 8 -45 27 -90 43 -46 16 -120 47 -165 70 -83 40 -91 43 -113 33z"/>
<path d="M3278 1183 c7 -3 16 -2 19 1 4 3 -2 6 -13 5 -11 0 -14 -3 -6 -6z"/>
</g>
</g>
  <g id="id2:id2" transform="matrix(1.25,0,0,1.25,0.0,0.0)"><g transform="translate(0.000000,204.800000) scale(0.040000,-0.040000)" fill="#9fb0ba" stroke="none">
<path d="M4351 3274 c-30 -64 -33 -66 -107 -100 -41 -19 -82 -34 -91 -34 -9 0 -27 -10 -40 -22 -21 -20 -24 -20 -40 -5 -24 21 -202 25 -301 7 -58 -11 -77 -19 -89 -37 -15 -22 -14 -27 8 -71 22 -42 29 -48 74 -60 62 -16 112 -9 175 24 42 22 60 25 127 23 57 -1 86 2 104 13 75 48 200 50 248 4 15 -15 30 -24 34 -21 4 3 5 2 3 -1 -7 -8 24 -85 41 -105 8 -9 35 -19 61 -23 74 -10 152 -86 152 -150 0 -13 -3 -13 -27 0 -42 21 -47 17 -19 -17 30 -36 36 -72 21 -136 -5 -20 -12 -23 -53 -23 -28 0 -62 8 -82 19 -50 27 -183 97 -208 110 -58 30 -61 30 -65 18 -5 -14 -7 -13 -32 38 -11 22 -33 46 -48 55 -27 14 -29 14 -50 -11 -36 -42 -181 -129 -241 -143 -28 -7 -29 -8 -23 -63 8 -79 26 -94 124 -104 43 -4 95 -12 115 -19 58 -17 119 -69 169 -145 36 -54 55 -73 90 -88 l44 -19 81 43 81 43 39 -19 c49 -24 159 -31 211 -15 93 31 153 117 153 221 0 98 -52 172 -165 235 -11 6 -31 32 -45 57 -44 81 -74 104 -187 148 -12 4 -40 34 -62 66 -23 32 -51 70 -63 85 l-22 28 22 39 c22 40 27 77 16 144 -6 31 -11 37 -30 37 -16 0 -24 6 -24 18 0 11 -8 18 -24 20 -20 1 -28 -8 -55 -64z m-74 -162 c21 -13 0 -29 -78 -55 -53 -19 -84 -24 -103 -19 -26 7 -21 11 60 44 96 40 103 42 121 30z m-241 -47 c19 -15 19 -15 0 -30 -11 -8 -29 -15 -40 -15 -12 -1 -46 -9 -76 -20 -30 -11 -68 -19 -85 -20 -31 0 -95 33 -95 49 0 5 15 18 33 29 26 17 50 20 138 21 79 1 110 -3 125 -14z m501 -184 c-13 -5 -47 36 -47 57 0 11 10 4 29 -18 16 -20 24 -37 18 -39z m190 -111 c3 -11 9 -20 14 -20 5 0 9 -6 9 -14 0 -8 14 -26 31 -40 l31 -26 -31 0 c-16 0 -33 6 -38 13 -18 28 -41 107 -31 107 5 0 12 -9 15 -20z m81 -124 c34 -18 68 -54 77 -83 8 -28 2 -28 -50 -3 -22 11 -46 19 -52 20 -14 0 -43 60 -36 73 6 11 31 8 61 -7z m128 -103 c30 -70 8 -190 -42 -235 -53 -47 -162 -62 -244 -33 -62 22 -87 19 -169 -22 -54 -27 -78 -34 -90 -26 -9 5 -46 50 -83 99 -88 116 -143 144 -312 160 -82 8 -96 16 -96 54 0 25 5 29 47 40 26 6 52 15 58 20 6 5 25 11 41 14 50 9 143 -43 144 -81 0 -6 10 -28 23 -47 l22 -36 160 6 c224 8 275 17 302 51 13 16 23 31 23 35 0 4 5 19 10 34 9 23 12 25 23 12 7 -9 29 -21 49 -27 20 -7 54 -26 75 -42 22 -18 39 -26 41 -19 6 16 -17 69 -46 110 l-25 35 38 -35 c20 -19 44 -49 51 -67z"/>
<path d="M4420 2900 c11 -15 20 -33 20 -40 0 -19 53 -87 82 -104 14 -9 39 -15 55 -15 l28 1 -29 7 c-25 5 -36 18 -64 76 -34 70 -47 84 -90 97 l-22 6 20 -28z m90 -94 c0 -12 -14 5 -31 39 -8 16 -6 15 10 -4 12 -13 21 -28 21 -35z"/>
<path d="M298 2653 c7 -3 16 -2 19 1 4 3 -2 6 -13 5 -11 0 -14 -3 -6 -6z"/>
<path d="M245 2637 c-91 -54 -124 -106 -125 -192 0 -68 13 -108 51 -157 38 -47 117 -88 169 -88 19 0 69 9 109 20 l75 20 35 -25 c20 -14 54 -39 76 -55 80 -59 208 -75 286 -35 40 21 126 163 115 190 -6 16 -51 29 -151 44 -125 20 -138 20 -172 6 -18 -8 -35 -14 -38 -15 -3 0 -12 -3 -20 -6 -8 -4 -25 0 -38 8 -12 8 -49 23 -82 32 -104 32 -162 64 -184 102 -20 34 -21 34 -50 20 -32 -17 -91 -83 -91 -103 0 -7 -4 -13 -10 -13 -17 0 -23 70 -10 113 12 39 64 118 82 125 10 5 10 22 1 21 -5 0 -17 -6 -28 -12z m-78 -199 c-2 -13 -4 -3 -4 22 0 25 2 35 4 23 2 -13 2 -33 0 -45z m151 13 c9 -29 25 -47 71 -80 33 -22 65 -41 73 -41 7 0 19 -9 26 -20 11 -18 9 -22 -20 -40 -41 -25 -129 -36 -177 -22 -20 7 -51 27 -69 45 -32 33 -32 35 -18 63 8 16 22 46 31 66 14 33 48 68 66 68 3 0 11 -17 17 -39z m580 -240 c-13 -9 -22 -23 -20 -33 2 -13 -8 -18 -51 -23 -70 -9 -109 0 -138 31 l-23 24 75 -1 c86 -1 159 9 159 23 0 5 5 6 11 2 7 -4 2 -12 -13 -23z"/>
<path d="M1380 2496 c-27 -30 -20 -34 77 -46 42 -6 85 -12 94 -15 14 -5 49 21 38 28 -65 37 -108 47 -140 33 -10 -4 -23 -1 -31 8 -14 13 -18 12 -38 -8z"/>
<path d="M3126 1385 c-10 -8 -24 -16 -29 -18 -15 -5 26 -68 55 -87 54 -34 157 -51 196 -31 9 5 31 15 47 22 46 20 81 49 61 49 -9 0 -16 6 -16 13 0 31 -85 57 -205 63 -69 3 -94 0 -109 -11z"/>
<path d="M1693 1343 c-59 -23 82 -166 191 -194 89 -22 200 7 177 48 -4 8 -45 27 -90 43 -46 16 -120 47 -165 70 -83 40 -91 43 -113 33z"/>
<path d="M3278 1183 c7 -3 16 -2 19 1 4 3 -2 6 -13 5 -11 0 -14 -3 -6 -6z"/>
</g>
</g>
  <g id="id3:id3" transform="matrix(1.25,0,0,1.25,0.0,0.0)"><g transform="translate(0.000000,204.800000) scale(0.040000,-0.040000)" fill="#eef2f5" stroke="none">
<path d="M3181 4054 c-60 -21 -108 -54 -123 -84 -7 -14 -26 -47 -42 -73 -22 -38 -27 -56 -23 -83 l6 -36 -57 7 c-112 13 -137 13 -172 4 -61 -16 -68 -24 -41 -53 26 -27 98 -52 176 -60 28 -3 73 -10 100 -16 177 -34 170 -34 200 -19 18 8 31 23 33 37 2 12 7 22 12 22 4 0 34 25 67 56 32 31 75 67 96 81 48 30 77 85 59 113 -7 11 -12 25 -12 31 0 16 -26 36 -85 64 -58 29 -128 32 -194 9z"/>
<path d="M1580 3616 c-122 -34 -247 -148 -266 -242 -9 -47 9 -49 61 -4 69 60 114 78 69 28 -24 -26 -22 -97 3 -117 12 -9 22 -22 25 -30 7 -22 83 -41 123 -30 19 6 38 15 42 22 5 7 15 12 23 12 8 0 16 9 19 20 2 11 12 27 22 36 11 9 19 26 19 37 0 11 5 24 10 27 16 10 11 68 -8 91 -10 12 -28 26 -40 33 -31 16 -27 28 10 36 42 10 192 10 207 1 21 -13 11 15 -13 37 -56 52 -200 72 -306 43z m55 -106 c3 -6 -4 -10 -17 -10 -18 0 -20 2 -8 10 19 12 18 12 25 0z"/>
<path d="M4351 3274 c-30 -64 -33 -66 -107 -100 -41 -19 -82 -34 -91 -34 -9 0 -27 -10 -40 -22 -21 -20 -24 -20 -40 -5 -24 21 -202 25 -301 7 -58 -11 -77 -19 -89 -37 -15 -22 -14 -27 8 -71 22 -42 29 -48 74 -60 62 -16 112 -9 175 24 42 22 60 25 127 23 57 -1 86 2 104 13 75 48 200 50 248 4 15 -15 30 -24 34 -21 4 3 5 2 3 -1 -7 -8 24 -85 41 -105 8 -9 35 -19 61 -23 74 -10 152 -86 152 -150 0 -13 -3 -13 -27 0 -42 21 -47 17 -19 -17 30 -36 36 -72 21 -136 -5 -20 -12 -23 -53 -23 -28 0 -62 8 -82 19 -50 27 -183 97 -208 110 -58 30 -61 30 -65 18 -5 -14 -7 -13 -32 38 -11 22 -33 46 -48 55 -27 14 -29 14 -50 -11 -36 -42 -181 -129 -241 -143 -28 -7 -29 -8 -23 -63 8 -79 26 -94 124 -104 43 -4 95 -12 115 -19 58 -17 119 -69 169 -145 36 -54 55 -73 90 -88 l44 -19 81 43 81 43 39 -19 c49 -24 159 -31 211 -15 93 31 153 117 153 221 0 98 -52 172 -165 235 -11 6 -31 32 -45 57 -44 81 -74 104 -187 148 -12 4 -40 34 -62 66 -23 32 -51 70 -63 85 l-22 28 22 39 c22 40 27 77 16 144 -6 31 -11 37 -30 37 -16 0 -24 6 -24 18 0 11 -8 18 -24 20 -20 1 -28 -8 -55 -64z m-74 -162 c21 -13 0 -29 -78 -55 -53 -19 -84 -24 -103 -19 -26 7 -21 11 60 44 96 40 103 42 121 30z m-241 -47 c19 -15 19 -15 0 -30 -11 -8 -29 -15 -40 -15 -12 -1 -46 -9 -76 -20 -30 -11 -68 -19 -85 -20 -31 0 -95 33 -95 49 0 5 15 18 33 29 26 17 50 20 138 21 79 1 110 -3 125 -14z m501 -184 c-13 -5 -47 36 -47 57 0 11 10 4 29 -18 16 -20 24 -37 18 -39z m190 -111 c3 -11 9 -20 14 -20 5 0 9 -6 9 -14 0 -8 14 -26 31 -40 l31 -26 -31 0 c-16 0 -33 6 -38 13 -18 28 -41 107 -31 107 5 0 12 -9 15 -20z m81 -124 c34 -18 68 -54 77 -83 8 -28 2 -28 -50 -3 -22 11 -46 19 -52 20 -14 0 -43 60 -36 73 6 11 31 8 61 -7z m128 -103 c30 -70 8 -190 -42 -235 -53 -47 -162 -62 -244 -33 -62 22 -87 19 -169 -22 -54 -27 -78 -34 -90 -26 -9 5 -46 50 -83 99 -88 116 -143 144 -312 160 -82 8 -96 16 -96 54 0 25 5 29 47 40 26 6 52 15 58 20 6 5 25 11 41 14 50 9 143 -43 144 -81 0 -6 10 -28 23 -47 l22 -36 160 6 c224 8 275 17 302 51 13 16 23 31 23 35 0 4 5 19 10 34 9 23 12 25 23 12 7 -9 29 -21 49 -27 20 -7 54 -26 75 -42 22 -18 39 -26 41 -19 6 16 -17 69 -46 110 l-25 35 38 -35 c20 -19 44 -49 51 -67z"/>
<path d="M1855 3250 c-14 -27 -25 -52 -25 -55 0 -19 96 22 150 64 l25 20 -28 10 c-16 6 -44 11 -62 11 -31 0 -37 -5 -60 -50z"/>
<path d="M1165 3240 c-69 -10 -96 -21 -134 -51 -42 -33 -34 -52 17 -43 20 4 42 10 47 15 6 4 39 11 73 15 69 7 109 31 99 57 -7 18 -21 19 -102 7z"/>
<path d="M2975 2938 c-112 -37 -223 -103 -262 -156 -21 -28 -53 -87 -53 -97 0 -12 62 7 107 33 26 15 68 36 93 46 25 10 53 22 62 27 24 12 85 11 93 -1 3 -5 1 -18 -5 -29 -8 -16 -7 -22 9 -31 24 -12 141 -14 141 -1 0 5 13 14 29 19 33 12 63 -3 142 -69 49 -40 72 -46 111 -28 18 8 31 6 53 -5 37 -19 56 -6 48 35 -7 36 14 46 54 25 37 -19 58 -7 49 28 -16 63 -157 163 -286 202 -53 16 -338 18 -385 2z"/>
<path d="M4420 2900 c11 -15 20 -33 20 -40 0 -19 53 -87 82 -104 14 -9 39 -15 55 -15 l28 1 -29 7 c-25 5 -36 18 -64 76 -34 70 -47 84 -90 97 l-22 6 20 -28z m90 -94 c0 -12 -14 5 -31 39 -8 16 -6 15 10 -4 12 -13 21 -28 21 -35z"/>
<path d="M3058 2686 c-26 -19 -22 -26 12 -26 23 0 30 4 30 20 0 23 -17 25 -42 6z"/>
<path d="M298 2653 c7 -3 16 -2 19 1 4 3 -2 6 -13 5 -11 0 -14 -3 -6 -6z"/>
<path d="M245 2637 c-91 -54 -124 -106 -125 -192 0 -68 13 -108 51 -157 38 -47 117 -88 169 -88 19 0 69 9 109 20 l75 20 35 -25 c20 -14 54 -39 76 -55 80 -59 208 -75 286 -35 40 21 126 163 115 190 -6 16 -51 29 -151 44 -125 20 -138 20 -172 6 -18 -8 -35 -14 -38 -15 -3 0 -12 -3 -20 -6 -8 -4 -25 0 -38 8 -12 8 -49 23 -82 32 -104 32 -162 64 -184 102 -20 34 -21 34 -50 20 -32 -17 -91 -83 -91 -103 0 -7 -4 -13 -10 -13 -17 0 -23 70 -10 113 12 39 64 118 82 125 10 5 10 22 1 21 -5 0 -17 -6 -28 -12z m-78 -199 c-2 -13 -4 -3 -4 22 0 25 2 35 4 23 2 -13 2 -33 0 -45z m151 13 c9 -29 25 -47 71 -80 33 -22 65 -41 73 -41 7 0 19 -9 26 -20 11 -18 9 -22 -20 -40 -41 -25 -129 -36 -177 -22 -20 7 -51 27 -69 45 -32 33 -32 35 -18 63 8 16 22 46 31 66 14 33 48 68 66 68 3 0 11 -17 17 -39z m580 -240 c-13 -9 -22 -23 -20 -33 2 -13 -8 -18 -51 -23 -70 -9 -109 0 -138 31 l-23 24 75 -1 c86 -1 159 9 159 23 0 5 5 6 11 2 7 -4 2 -12 -13 -23z"/>
<path d="M2045 2585 c-5 -2 -41 -13 -79 -25 -76 -24 -173 -84 -200 -125 -23 -36 -14 -42 31 -21 92 44 198 66 313 66 43 0 90 -4 106 -9 16 -5 49 -14 74 -21 69 -19 133 -41 154 -52 21 -11 49 11 60 47 5 17 -4 26 -48 52 -30 17 -94 45 -142 62 -72 26 -101 31 -173 30 -47 0 -90 -2 -96 -4z"/>
<path d="M1380 2496 c-27 -30 -20 -34 77 -46 42 -6 85 -12 94 -15 14 -5 49 21 38 28 -65 37 -108 47 -140 33 -10 -4 -23 -1 -31 8 -14 13 -18 12 -38 -8z"/>
<path d="M3918 2382 c-10 -2 -18 -12 -18 -22 0 -20 11 -25 75 -36 22 -4 47 -10 55 -14 8 -4 36 -11 63 -14 38 -6 47 -4 47 8 0 41 -152 94 -222 78z"/>
<path d="M1326 2332 c-49 -16 -116 -69 -116 -91 0 -15 30 -14 82 3 94 30 139 38 180 32 135 -19 142 -19 166 4 41 38 38 40 -103 59 -104 14 -149 13 -209 -7z"/>
<path d="M920 1969 c-32 -13 -60 -39 -60 -56 0 -9 17 -13 65 -13 59 0 66 2 82 26 16 25 16 27 -2 40 -22 16 -49 17 -85 3z"/>
<path d="M3126 1385 c-10 -8 -24 -16 -29 -18 -15 -5 26 -68 55 -87 54 -34 157 -51 196 -31 9 5 31 15 47 22 46 20 81 49 61 49 -9 0 -16 6 -16 13 0 31 -85 57 -205 63 -69 3 -94 0 -109 -11z"/>
<path d="M1693 1343 c-59 -23 82 -166 191 -194 89 -22 200 7 177 48 -4 8 -45 27 -90 43 -46 16 -120 47 -165 70 -83 40 -91 43 -113 33z"/>
<path d="M3278 1183 c7 -3 16 -2 19 1 4 3 -2 6 -13 5 -11 0 -14 -3 -6 -6z"/>
</g>
</g>
  <g id="id4:id4" transform="matrix(1.25,0,0,1.25,0.0,0.0)"><g transform="translate(0.000000,204.800000) scale(0.040000,-0.040000)" fill="#dfe6eb" stroke="none">
<path d="M3154 4065 c-80 -19 -161 -65 -227 -126 -55 -52 -64 -57 -116 -62 -72 -6 -182 -62 -233 -119 -43 -46 -47 -59 -18 -51 14 4 24 -3 37 -26 19 -32 74 -61 118 -61 13 0 75 -15 137 -34 62 -19 141 -38 175 -41 55 -7 63 -5 74 13 12 19 13 19 40 -9 23 -24 37 -29 74 -29 25 0 45 4 45 9 0 5 12 12 26 15 16 4 30 19 40 41 14 33 23 39 52 36 6 -1 16 9 21 22 5 13 25 41 45 62 20 21 36 41 36 45 0 5 20 20 45 34 52 31 69 58 60 94 l-7 27 29 -27 c33 -32 34 -32 87 -17 47 13 32 29 -28 29 -33 0 -48 8 -91 48 -137 125 -269 165 -421 127z m221 -20 c59 -28 85 -48 85 -64 0 -6 5 -20 12 -31 18 -28 -11 -83 -59 -113 -21 -14 -64 -50 -96 -81 -33 -31 -63 -56 -67 -56 -5 0 -10 -10 -12 -22 -2 -14 -15 -29 -33 -37 -30 -15 -23 -15 -200 19 -27 6 -72 13 -100 16 -78 8 -150 33 -176 60 -27 29 -20 37 41 53 35 9 60 9 172 -4 l57 -7 -6 36 c-4 27 1 45 23 83 16 26 35 59 42 73 25 51 131 99 217 99 33 1 67 -7 100 -24z"/>
<path d="M3811 3663 c-27 -19 -27 -37 2 -50 32 -15 78 17 61 43 -13 23 -38 25 -63 7z"/>
<path d="M1615 3639 c-81 -16 -170 -65 -230 -126 -51 -50 -86 -110 -128 -214 l-15 -36 -75 -5 c-87 -6 -146 -34 -196 -95 -50 -60 -38 -113 17 -75 36 26 99 52 126 52 18 0 15 -5 -19 -34 -76 -65 -27 -83 244 -90 134 -4 187 5 213 35 20 23 46 24 75 4 20 -14 27 -12 96 25 76 41 152 71 247 96 30 8 66 22 78 30 28 18 55 78 48 102 -3 10 -38 42 -76 72 -59 45 -100 94 -100 118 0 4 33 -2 73 -14 16 -5 18 -2 12 18 -12 38 -46 68 -120 103 -79 37 -184 50 -270 34z m199 -26 c49 -18 96 -53 96 -73 0 -6 -5 -8 -11 -4 -15 9 -165 9 -207 -1 -37 -8 -41 -20 -10 -36 12 -7 30 -21 40 -33 19 -23 24 -81 8 -91 -5 -3 -10 -16 -10 -27 0 -11 -8 -28 -19 -37 -10 -9 -20 -25 -22 -36 -3 -11 -11 -20 -19 -20 -8 0 -18 -5 -23 -12 -4 -7 -23 -16 -42 -22 -40 -11 -116 8 -123 30 -3 8 -13 21 -25 30 -25 20 -27 91 -3 117 45 50 0 32 -69 -28 -52 -45 -70 -43 -61 4 14 68 96 161 186 210 86 47 227 60 314 29z m163 -324 l28 -10 -25 -20 c-54 -42 -150 -83 -150 -64 0 3 11 28 25 55 23 45 29 50 60 50 18 0 46 -5 62 -11z m-710 -56 c10 -26 -30 -50 -99 -57 -34 -4 -67 -11 -73 -15 -5 -5 -27 -11 -47 -15 -51 -9 -59 10 -17 43 38 30 65 41 134 51 81 12 95 11 102 -7z m43 -39 c-18 -21 -24 -10 -9 18 8 14 14 18 17 10 2 -7 -2 -19 -8 -28z"/>
<path d="M1610 3510 c-12 -8 -10 -10 8 -10 13 0 20 4 17 10 -7 12 -6 12 -25 0z"/>
<path d="M2385 3569 c-11 -17 0 -20 21 -4 17 13 17 14 2 15 -9 0 -20 -5 -23 -11z"/>
<path d="M4351 3274 c-30 -64 -33 -66 -107 -100 -41 -19 -82 -34 -91 -34 -9 0 -27 -10 -40 -22 -21 -20 -24 -20 -40 -5 -24 21 -202 25 -301 7 -58 -11 -77 -19 -89 -37 -15 -22 -14 -27 8 -71 22 -42 29 -48 74 -60 62 -16 112 -9 175 24 42 22 60 25 127 23 57 -1 86 2 104 13 75 48 200 50 248 4 15 -15 30 -24 34 -21 4 3 5 2 3 -1 -7 -8 24 -85 41 -105 8 -9 35 -19 61 -23 74 -10 152 -86 152 -150 0 -13 -3 -13 -27 0 -42 21 -47 17 -19 -17 30 -36 36 -72 21 -136 -5 -20 -12 -23 -53 -23 -28 0 -62 8 -82 19 -50 27 -183 97 -208 110 -58 30 -61 30 -65 18 -5 -14 -7 -13 -32 38 -11 22 -33 46 -48 55 -27 14 -29 14 -50 -11 -36 -42 -181 -129 -241 -143 -28 -7 -29 -8 -23 -63 8 -79 26 -94 124 -104 43 -4 95 -12 115 -19 58 -17 119 -69 169 -145 36 -54 55 -73 90 -88 l44 -19 81 43 81 43 39 -19 c49 -24 159 -31 211 -15 93 31 153 117 153 221 0 98 -52 172 -165 235 -11 6 -31 32 -45 57 -44 81 -74 104 -187 148 -12 4 -40 34 -62 66 -23 32 -51 70 -63 85 l-22 28 22 39 c22 40 27 77 16 144 -6 31 -11 37 -30 37 -16 0 -24 6 -24 18 0 11 -8 18 -24 20 -20 1 -28 -8 -55 -64z m-74 -162 c21 -13 0 -29 -78 -55 -53 -19 -84 -24 -103 -19 -26 7 -21 11 60 44 96 40 103 42 121 30z m-241 -47 c19 -15 19 -15 0 -30 -11 -8 -29 -15 -40 -15 -12 -1 -46 -9 -76 -20 -30 -11 -68 -19 -85 -20 -31 0 -95 33 -95 49 0 5 15 18 33 29 26 17 50 20 138 21 79 1 110 -3 125 -14z m501 -184 c-13 -5 -47 36 -47 57 0 11 10 4 29 -18 16 -20 24 -37 18 -39z m190 -111 c3 -11 9 -20 14 -20 5 0 9 -6 9 -14 0 -8 14 -26 31 -40 l31 -26 -31 0 c-16 0 -33 6 -38 13 -18 28 -41 107 -31 107 5 0 12 -9 15 -20z m81 -124 c34 -18 68 -54 77 -83 8 -28 2 -28 -50 -3 -22 11 -46 19 -52 20 -14 0 -43 60 -36 73 6 11 31 8 61 -7z m128 -103 c30 -70 8 -190 -42 -235 -53 -47 -162 -62 -244 -33 -62 22 -87 19 -169 -22 -54 -27 -78 -34 -90 -26 -9 5 -46 50 -83 99 -88 116 -143 144 -312 160 -82 8 -96 16 -96 54 0 25 5 29 47 40 26 6 52 15 58 20 6 5 25 11 41 14 50 9 143 -43 144 -81 0 -6 10 -28 23 -47 l22 -36 160 6 c224 8 275 17 302 51 13 16 23 31 23 35 0 4 5 19 10 34 9 23 12 25 23 12 7 -9 29 -21 49 -27 20 -7 54 -26 75 -42 22 -18 39 -26 41 -19 6 16 -17 69 -46 110 l-25 35 38 -35 c20 -19 44 -49 51 -67z"/>
<path d="M2580 3105 c-21 -25 0 -36 84 -42 85 -7 98 4 44 37 -40 24 -110 27 -128 5z"/>
<path d="M1854 3090 c-49 -24 -109 -84 -100 -99 18 -28 98 3 175 67 59 50 6 72 -75 32z"/>
<path d="M2340 3040 l-25 -20 28 -25 c33 -30 48 -31 76 -7 l21 17 -23 28 c-29 32 -43 33 -77 7z"/>
<path d="M720 2966 c-56 -14 -120 -51 -120 -70 0 -11 13 -10 70 8 38 13 73 26 77 29 3 4 18 7 32 7 26 0 59 15 51 23 -13 11 -70 13 -110 3z"/>
<path d="M3055 2964 c-102 -15 -212 -57 -280 -109 -88 -67 -148 -145 -190 -246 -15 -35 -38 -76 -52 -90 l-25 -27 -71 33 c-128 59 -191 75 -295 75 -178 0 -290 -47 -424 -178 l-88 -85 -84 16 c-110 22 -139 21 -216 -4 -78 -25 -116 -54 -154 -113 -16 -25 -33 -46 -37 -46 -5 0 -16 -14 -25 -31 -11 -23 -13 -34 -5 -42 8 -8 22 -1 49 25 50 49 124 85 216 104 70 14 84 14 155 0 43 -9 83 -16 89 -16 6 0 30 21 54 46 102 110 244 183 354 184 42 0 44 -5 22 -48 -10 -20 -17 -48 -16 -62 3 -29 15 -30 170 -16 72 6 90 5 103 -7 8 -9 15 -22 15 -30 0 -20 24 -28 61 -20 23 4 29 10 26 24 -7 27 39 62 73 55 30 -6 60 18 60 47 0 9 5 19 10 22 6 3 10 13 10 22 0 49 113 183 209 247 60 41 72 44 68 17 -3 -18 -41 -54 -81 -77 -11 -6 -24 -19 -30 -29 -6 -11 -17 -25 -24 -33 -16 -17 -7 -32 20 -32 12 0 29 -7 38 -15 9 -8 29 -14 45 -15 78 0 257 9 318 18 80 10 146 6 202 -14 51 -18 84 -18 127 1 31 12 38 12 54 0 26 -19 34 -18 34 3 0 11 15 26 37 38 26 14 40 30 47 53 8 27 13 31 30 26 50 -16 61 -12 60 22 -4 93 -170 234 -339 289 -49 15 -256 27 -320 18z m305 -28 c129 -39 270 -139 286 -202 9 -35 -12 -47 -49 -28 -40 21 -61 11 -54 -25 8 -41 -11 -54 -48 -35 -22 11 -35 13 -53 5 -39 -18 -62 -12 -111 28 -79 66 -109 81 -142 69 -16 -5 -29 -14 -29 -19 0 -13 -117 -11 -141 1 -16 9 -17 15 -9 31 6 11 8 24 5 29 -8 12 -69 13 -93 1 -9 -5 -37 -17 -62 -27 -25 -10 -67 -31 -93 -46 -45 -26 -107 -45 -107 -33 0 10 32 69 53 97 39 53 150 119 262 156 47 16 332 14 385 -2z m-260 -256 c0 -16 -7 -20 -30 -20 -34 0 -38 7 -12 26 25 19 42 17 42 -6z m-786 -121 c48 -17 112 -45 142 -62 44 -26 53 -35 48 -52 -11 -36 -39 -58 -60 -47 -21 11 -85 33 -154 52 -25 7 -58 16 -74 21 -16 5 -63 9 -106 9 -115 0 -221 -22 -313 -66 -45 -21 -54 -15 -31 21 27 41 124 101 200 125 38 12 74 23 79 25 6 2 49 4 96 4 72 1 101 -4 173 -30z m-779 -220 c112 -15 125 -18 125 -29 0 -5 -10 -19 -22 -30 -24 -23 -31 -23 -166 -4 -41 6 -86 -2 -180 -32 -52 -17 -82 -18 -82 -3 0 22 67 75 116 91 60 20 105 21 209 7z"/>
<path d="M4420 2900 c11 -15 20 -33 20 -40 0 -19 53 -87 82 -104 14 -9 39 -15 55 -15 l28 1 -29 7 c-25 5 -36 18 -64 76 -34 70 -47 84 -90 97 l-22 6 20 -28z m90 -94 c0 -12 -14 5 -31 39 -8 16 -6 15 10 -4 12 -13 21 -28 21 -35z"/>
<path d="M298 2653 c7 -3 16 -2 19 1 4 3 -2 6 -13 5 -11 0 -14 -3 -6 -6z"/>
<path d="M245 2637 c-91 -54 -124 -106 -125 -192 0 -68 13 -108 51 -157 38 -47 117 -88 169 -88 19 0 69 9 109 20 l75 20 35 -25 c20 -14 54 -39 76 -55 80 -59 208 -75 286 -35 40 21 126 163 115 190 -6 16 -51 29 -151 44 -125 20 -138 20 -172 6 -18 -8 -35 -14 -38 -15 -3 0 -12 -3 -20 -6 -8 -4 -25 0 -38 8 -12 8 -49 23 -82 32 -104 32 -162 64 -184 102 -20 34 -21 34 -50 20 -32 -17 -91 -83 -91 -103 0 -7 -4 -13 -10 -13 -17 0 -23 70 -10 113 12 39 64 118 82 125 10 5 10 22 1 21 -5 0 -17 -6 -28 -12z m-78 -199 c-2 -13 -4 -3 -4 22 0 25 2 35 4 23 2 -13 2 -33 0 -45z m151 13 c9 -29 25 -47 71 -80 33 -22 65 -41 73 -41 7 0 19 -9 26 -20 11 -18 9 -22 -20 -40 -41 -25 -129 -36 -177 -22 -20 7 -51 27 -69 45 -32 33 -32 35 -18 63 8 16 22 46 31 66 14 33 48 68 66 68 3 0 11 -17 17 -39z m580 -240 c-13 -9 -22 -23 -20 -33 2 -13 -8 -18 -51 -23 -70 -9 -109 0 -138 31 l-23 24 75 -1 c86 -1 159 9 159 23 0 5 5 6 11 2 7 -4 2 -12 -13 -23z"/>
<path d="M1380 2496 c-27 -30 -20 -34 77 -46 42 -6 85 -12 94 -15 14 -5 49 21 38 28 -65 37 -108 47 -140 33 -10 -4 -23 -1 -31 8 -14 13 -18 12 -38 -8z"/>
<path d="M3890 2397 c-16 -8 -25 -21 -25 -37 0 -30 21 -41 135 -68 47 -12 106 -28 131 -36 53 -16 74 -9 64 24 -9 27 -62 79 -95 92 -32 13 -138 37 -165 38 -11 0 -31 -6 -45 -13z m160 -29 c46 -14 90 -45 90 -64 0 -12 -9 -14 -47 -8 -27 3 -55 10 -63 14 -8 4 -33 10 -55 14 -64 11 -75 16 -75 36 0 10 8 20 18 22 23 6 90 -2 132 -14z"/>
<path d="M2202 2089 c-51 -22 -113 -42 -137 -46 -50 -6 -162 13 -185 33 -21 18 -66 27 -94 20 -23 -6 -24 -10 -21 -52 5 -64 18 -76 74 -68 25 4 51 10 57 15 6 5 14 6 17 2 4 -3 18 0 31 7 37 19 197 7 266 -20 30 -12 63 -22 73 -22 9 1 17 -3 17 -7 0 -5 9 -11 21 -14 16 -4 23 2 36 31 8 20 19 45 24 55 11 21 -18 65 -59 90 -27 15 -31 14 -120 -24z"/>
<path d="M943 1989 c-53 -10 -90 -34 -109 -72 -13 -25 -14 -31 -2 -38 7 -5 19 -7 26 -4 8 3 39 8 70 11 95 9 98 10 112 54 7 22 10 43 7 47 -10 9 -57 10 -104 2z m62 -23 c18 -13 18 -15 2 -40 -16 -24 -23 -26 -82 -26 -69 0 -82 12 -47 43 39 35 96 46 127 23z"/>
<path d="M3126 1385 c-10 -8 -24 -16 -29 -18 -15 -5 26 -68 55 -87 54 -34 157 -51 196 -31 9 5 31 15 47 22 46 20 81 49 61 49 -9 0 -16 6 -16 13 0 31 -85 57 -205 63 -69 3 -94 0 -109 -11z"/>
<path d="M1693 1343 c-59 -23 82 -166 191 -194 89 -22 200 7 177 48 -4 8 -45 27 -90 43 -46 16 -120 47 -165 70 -83 40 -91 43 -113 33z"/>
<path d="M3278 1183 c7 -3 16 -2 19 1 4 3 -2 6 -13 5 -11 0 -14 -3 -6 -6z"/>
</g>
</g>
  <g id="id5:id5" transform="matrix(1.25,0,0,1.25,0.0,0.0)"><g transform="translate(0.000000,204.800000) scale(0.040000,-0.040000)" fill="#d2dae1" stroke="none">
<path d="M3152 4079 c-68 -12 -151 -54 -235 -121 -58 -47 -78 -57 -135 -67 -122 -23 -229 -106 -278 -216 -18 -43 -30 -56 -51 -61 -75 -16 -132 -49 -114 -67 6 -6 37 -7 75 -2 63 6 96 23 96 48 0 7 5 4 11 -6 12 -21 100 -67 128 -67 11 0 22 -4 25 -9 3 -5 26 -4 52 1 32 7 54 7 71 -1 13 -6 33 -11 43 -11 18 0 80 -30 105 -50 12 -10 106 -6 147 5 17 4 46 1 77 -10 44 -14 52 -15 73 -1 20 12 125 38 146 35 20 -3 32 2 27 11 -9 14 13 40 29 34 7 -3 21 4 31 16 10 11 25 20 33 20 15 0 102 83 102 98 0 17 65 39 108 34 23 -2 42 -6 42 -9 0 -3 -11 -18 -25 -34 -30 -36 -42 -93 -25 -114 30 -37 170 7 213 67 43 58 -18 117 -108 105 l-40 -6 24 18 c28 21 23 51 -17 94 -18 19 -22 27 -11 29 8 0 19 2 24 3 6 2 14 3 20 4 15 2 -36 35 -75 48 -19 7 -53 13 -76 13 -29 0 -46 6 -60 21 -55 61 -211 150 -262 149 -9 -1 6 -8 33 -18 66 -23 136 -66 200 -124 43 -40 58 -48 91 -48 60 0 75 -16 28 -29 -53 -15 -54 -15 -87 17 l-29 27 7 -27 c9 -36 -8 -63 -60 -94 -25 -14 -45 -29 -45 -34 0 -4 -16 -24 -36 -45 -20 -21 -40 -49 -45 -62 -5 -13 -15 -23 -21 -22 -29 3 -38 -3 -52 -36 -10 -22 -24 -37 -40 -41 -14 -3 -26 -10 -26 -15 0 -5 -20 -9 -45 -9 -37 0 -51 5 -74 29 -27 28 -28 28 -40 9 -11 -18 -19 -20 -74 -13 -34 3 -113 22 -175 41 -62 19 -124 34 -137 34 -44 0 -99 29 -118 61 -13 23 -23 30 -37 26 -29 -8 -25 5 18 51 51 57 161 113 233 119 52 5 61 10 116 62 92 86 203 132 348 144 28 3 24 4 -15 4 -30 0 -79 -3 -108 -8z m722 -423 c17 -26 -29 -58 -61 -43 -29 13 -29 31 -2 50 25 18 50 16 63 -7z m-1468 -91 c-21 -16 -32 -13 -21 4 3 6 14 11 23 11 15 -1 15 -2 -2 -15z"/>
<path d="M4001 3708 c-46 -25 -35 -35 36 -34 37 1 94 -3 126 -8 67 -10 76 3 20 29 -48 23 -150 30 -182 13z"/>
<path d="M1593 3650 c-68 -14 -150 -60 -203 -114 -71 -73 -87 -96 -125 -180 -32 -71 -36 -75 -72 -81 -68 -11 -69 -13 -10 -14 l58 -1 15 38 c43 106 78 164 129 215 132 134 333 170 500 92 74 -35 108 -65 120 -103 6 -20 4 -23 -12 -18 -40 12 -73 18 -73 14 0 -24 41 -73 100 -118 38 -30 73 -62 76 -72 7 -24 -20 -84 -48 -102 -12 -8 -48 -22 -78 -30 -95 -25 -171 -55 -247 -96 -69 -37 -76 -39 -96 -25 -29 20 -55 19 -75 -4 -26 -30 -79 -39 -213 -35 -271 7 -320 25 -244 90 34 29 37 34 19 34 -27 0 -90 -26 -126 -52 -31 -22 -48 -17 -48 14 0 44 77 118 149 144 20 7 29 13 20 14 -29 0 -83 -27 -127 -66 -40 -34 -92 -120 -92 -152 0 -29 -30 -43 -102 -49 -127 -9 -205 -47 -247 -119 -39 -66 -22 -70 72 -19 82 45 148 65 219 65 l58 0 11 45 c8 33 22 53 56 81 24 20 47 33 50 30 4 -4 1 -12 -5 -18 -18 -18 -15 -83 6 -100 10 -10 64 -23 131 -33 109 -17 115 -17 144 0 34 20 140 26 225 13 51 -8 55 -7 82 22 15 16 32 30 37 31 4 1 25 2 45 3 l38 3 -6 -53 c-9 -74 7 -77 92 -18 88 60 201 114 255 121 30 4 52 17 81 44 l40 38 -4 68 c-3 67 -3 68 22 70 92 7 151 17 157 26 3 6 -6 21 -21 34 -25 21 -36 23 -100 21 l-71 -3 -6 -35 c-4 -19 -7 -27 -8 -17 0 9 -5 17 -9 17 -5 0 -14 11 -20 24 -6 13 -24 39 -42 59 -26 30 -27 34 -10 30 72 -19 -53 137 -150 187 -88 45 -212 60 -317 40z m497 -500 c0 -5 -2 -10 -4 -10 -3 0 -8 5 -11 10 -3 6 -1 10 4 10 6 0 11 -4 11 -10z m-134 -52 c14 -22 -126 -118 -172 -118 -37 0 -38 19 -3 56 57 59 155 94 175 62z m-1126 -135 c8 -8 -25 -23 -51 -23 -14 0 -29 -3 -32 -7 -4 -3 -39 -16 -77 -29 -57 -18 -70 -19 -70 -8 0 19 64 56 120 70 40 10 97 8 110 -3z"/>
<path d="M3435 3490 c-3 -5 1 -10 9 -10 9 0 16 5 16 10 0 6 -4 10 -9 10 -6 0 -13 -4 -16 -10z"/>
<path d="M4351 3274 c-30 -64 -33 -66 -107 -100 -41 -19 -82 -34 -91 -34 -9 0 -27 -10 -40 -22 -21 -20 -24 -20 -40 -5 -24 21 -202 25 -301 7 -58 -11 -77 -19 -89 -37 -15 -22 -14 -27 8 -71 22 -42 29 -48 74 -60 62 -16 112 -9 175 24 42 22 60 25 127 23 57 -1 86 2 104 13 75 48 200 50 248 4 15 -15 30 -24 34 -21 4 3 5 2 3 -1 -7 -8 24 -85 41 -105 8 -9 35 -19 61 -23 74 -10 152 -86 152 -150 0 -13 -3 -13 -27 0 -42 21 -47 17 -19 -17 30 -36 36 -72 21 -136 -5 -20 -12 -23 -53 -23 -28 0 -62 8 -82 19 -50 27 -183 97 -208 110 -58 30 -61 30 -65 18 -5 -14 -7 -13 -32 38 -11 22 -33 46 -48 55 -27 14 -29 14 -50 -11 -36 -42 -181 -129 -241 -143 -28 -7 -29 -8 -23 -63 8 -79 26 -94 124 -104 43 -4 95 -12 115 -19 58 -17 119 -69 169 -145 36 -54 55 -73 90 -88 l44 -19 81 43 81 43 39 -19 c49 -24 159 -31 211 -15 93 31 153 117 153 221 0 98 -52 172 -165 235 -11 6 -31 32 -45 57 -44 81 -74 104 -187 148 -12 4 -40 34 -62 66 -23 32 -51 70 -63 85 l-22 28 22 39 c22 40 27 77 16 144 -6 31 -11 37 -30 37 -16 0 -24 6 -24 18 0 11 -8 18 -24 20 -20 1 -28 -8 -55 -64z m-74 -162 c21 -13 0 -29 -78 -55 -53 -19 -84 -24 -103 -19 -26 7 -21 11 60 44 96 40 103 42 121 30z m-241 -47 c19 -15 19 -15 0 -30 -11 -8 -29 -15 -40 -15 -12 -1 -46 -9 -76 -20 -30 -11 -68 -19 -85 -20 -31 0 -95 33 -95 49 0 5 15 18 33 29 26 17 50 20 138 21 79 1 110 -3 125 -14z m501 -184 c-13 -5 -47 36 -47 57 0 11 10 4 29 -18 16 -20 24 -37 18 -39z m190 -111 c3 -11 9 -20 14 -20 5 0 9 -6 9 -14 0 -8 14 -26 31 -40 l31 -26 -31 0 c-16 0 -33 6 -38 13 -18 28 -41 107 -31 107 5 0 12 -9 15 -20z m81 -124 c34 -18 68 -54 77 -83 8 -28 2 -28 -50 -3 -22 11 -46 19 -52 20 -14 0 -43 60 -36 73 6 11 31 8 61 -7z m128 -103 c30 -70 8 -190 -42 -235 -53 -47 -162 -62 -244 -33 -62 22 -87 19 -169 -22 -54 -27 -78 -34 -90 -26 -9 5 -46 50 -83 99 -88 116 -143 144 -312 160 -82 8 -96 16 -96 54 0 25 5 29 47 40 26 6 52 15 58 20 6 5 25 11 41 14 50 9 143 -43 144 -81 0 -6 10 -28 23 -47 l22 -36 160 6 c224 8 275 17 302 51 13 16 23 31 23 35 0 4 5 19 10 34 9 23 12 25 23 12 7 -9 29 -21 49 -27 20 -7 54 -26 75 -42 22 -18 39 -26 41 -19 6 16 -17 69 -46 110 l-25 35 38 -35 c20 -19 44 -49 51 -67z"/>
<path d="M1301 3212 c-7 -13 -11 -26 -8 -28 8 -8 29 25 25 38 -3 8 -9 4 -17 -10z"/>
<path d="M2605 3136 c-5 -3 -22 -7 -36 -10 -29 -6 -52 -45 -39 -67 6 -9 25 -13 62 -11 29 1 84 -3 121 -9 81 -13 103 -3 71 32 -36 40 -142 78 -179 65z m103 -36 c54 -33 41 -44 -44 -37 -84 6 -105 17 -84 42 18 22 88 19 128 -5z"/>
<path d="M2318 3079 c-41 -27 -48 -36 -48 -64 0 -25 8 -40 34 -63 54 -47 88 -50 136 -12 81 64 82 87 8 140 -52 38 -71 37 -130 -1z m99 -46 l23 -28 -21 -17 c-28 -24 -43 -23 -76 7 l-28 25 25 20 c34 26 48 25 77 -7z"/>
<path d="M3042 2972 c-13 -4 47 -7 132 -7 85 0 148 3 138 7 -22 8 -239 8 -270 0z"/>
<path d="M2955 2950 c-13 -5 -14 -9 -5 -9 8 0 24 4 35 9 13 5 14 9 5 9 -8 0 -24 -4 -35 -9z"/>
<path d="M3355 2950 c11 -5 27 -9 35 -9 13 -1 13 0 0 9 -8 5 -24 9 -35 9 l-20 0 20 -9z"/>
<path d="M2833 2909 c-79 -38 -174 -140 -249 -265 -30 -51 -61 -95 -70 -98 -30 -12 -83 -6 -130 14 -26 11 -52 19 -57 17 -6 -2 12 -11 39 -21 27 -11 70 -29 95 -42 l46 -23 26 27 c14 15 37 56 52 91 33 80 60 120 126 188 57 58 98 87 174 120 28 12 41 22 30 22 -11 0 -48 -13 -82 -30z"/>
<path d="M3420 2930 c8 -5 20 -10 25 -10 6 0 3 5 -5 10 -8 5 -19 10 -25 10 -5 0 -3 -5 5 -10z"/>
<path d="M4420 2900 c11 -15 20 -33 20 -40 0 -19 53 -87 82 -104 14 -9 39 -15 55 -15 l28 1 -29 7 c-25 5 -36 18 -64 76 -34 70 -47 84 -90 97 l-22 6 20 -28z m90 -94 c0 -12 -14 5 -31 39 -8 16 -6 15 10 -4 12 -13 21 -28 21 -35z"/>
<path d="M3460 2916 c0 -3 21 -15 47 -28 95 -47 204 -169 207 -231 1 -34 -10 -38 -60 -22 -17 5 -22 1 -30 -26 -7 -23 -21 -39 -47 -53 -22 -12 -37 -27 -37 -38 0 -21 -8 -22 -34 -3 -16 12 -23 12 -54 0 -43 -19 -76 -19 -127 -1 -56 20 -122 24 -202 14 -61 -9 -240 -18 -318 -18 -16 1 -36 7 -45 15 -9 8 -26 15 -38 15 -27 0 -36 15 -20 32 7 8 18 22 24 33 6 10 19 23 30 29 40 23 78 59 81 77 4 27 -8 24 -68 -17 -96 -64 -209 -198 -209 -247 0 -9 -4 -19 -10 -22 -5 -3 -10 -13 -10 -22 0 -29 -30 -53 -60 -47 -34 7 -80 -28 -73 -55 3 -14 -3 -20 -26 -24 -37 -8 -61 0 -61 20 0 8 -7 21 -15 30 -13 12 -31 13 -103 7 -155 -14 -167 -13 -170 16 -1 14 6 42 16 62 22 43 20 48 -22 48 -110 -1 -252 -74 -354 -184 -24 -25 -48 -46 -54 -46 -6 0 -46 7 -89 16 -71 14 -85 14 -155 0 -92 -19 -166 -55 -216 -104 -27 -26 -41 -33 -49 -25 -12 12 14 73 31 73 5 0 17 14 25 31 9 16 35 49 58 71 41 41 41 41 9 22 -32 -18 -55 -41 -110 -110 -28 -34 -62 -108 -62 -133 0 -36 -28 -58 -82 -65 -77 -10 -131 -38 -157 -79 -35 -56 -8 -89 51 -61 l33 15 -30 -5 c-17 -2 -37 -1 -44 4 -21 12 16 69 59 91 38 20 147 31 157 16 3 -5 0 -27 -7 -48 -14 -41 -22 -46 -95 -52 -22 -2 -11 -4 24 -3 l64 1 26 72 c48 133 161 241 283 271 65 17 170 15 233 -3 l53 -16 81 81 c93 93 188 146 252 141 13 -1 14 -11 8 -63 -11 -100 -16 -111 -65 -137 -24 -13 -57 -35 -72 -48 -33 -29 -89 -56 -120 -58 -20 -1 -62 -31 -51 -37 2 -2 18 -11 34 -20 30 -17 30 -17 27 -95 -3 -64 -1 -82 12 -92 23 -19 84 -22 131 -5 83 28 211 15 313 -34 29 -13 57 -33 62 -42 11 -21 32 -30 79 -36 37 -5 51 6 51 44 0 45 107 202 132 195 4 -2 8 2 8 7 0 6 -7 10 -15 10 -25 0 -93 69 -101 103 -5 26 -2 34 21 53 23 18 37 21 97 18 59 -2 67 -1 52 10 -9 7 -14 18 -10 25 12 19 84 61 106 61 12 0 20 7 20 16 0 9 7 22 15 28 8 6 16 23 17 38 2 24 6 26 48 26 25 0 77 6 115 15 72 15 343 16 499 2 54 -5 77 -3 107 10 25 12 52 16 78 12 46 -6 78 11 68 37 -4 9 3 30 16 50 12 18 27 42 33 52 10 16 15 17 33 6 27 -16 41 -8 41 24 0 50 -78 169 -154 234 -49 42 -136 90 -136 76z m-1365 -776 c3 -5 -1 -10 -10 -10 -9 0 -13 5 -10 10 3 6 8 10 10 10 2 0 7 -4 10 -10z m275 -72 c14 -20 18 -33 11 -45 -5 -10 -16 -35 -24 -55 -13 -29 -20 -35 -36 -31 -12 3 -21 9 -21 14 0 4 -8 8 -17 7 -10 0 -43 10 -73 22 -69 27 -229 39 -266 20 -13 -7 -27 -10 -31 -7 -3 4 -11 3 -17 -2 -6 -5 -32 -11 -57 -15 -56 -8 -69 4 -74 68 -3 42 -2 46 21 52 28 7 73 -2 94 -20 23 -20 135 -39 185 -33 24 4 86 24 137 46 89 38 93 39 120 24 15 -9 36 -29 48 -45z"/>
<path d="M298 2653 c7 -3 16 -2 19 1 4 3 -2 6 -13 5 -11 0 -14 -3 -6 -6z"/>
<path d="M245 2637 c-91 -54 -124 -106 -125 -192 0 -68 13 -108 51 -157 38 -47 117 -88 169 -88 19 0 69 9 109 20 l75 20 35 -25 c20 -14 54 -39 76 -55 80 -59 208 -75 286 -35 40 21 126 163 115 190 -6 16 -51 29 -151 44 -125 20 -138 20 -172 6 -18 -8 -35 -14 -38 -15 -3 0 -12 -3 -20 -6 -8 -4 -25 0 -38 8 -12 8 -49 23 -82 32 -104 32 -162 64 -184 102 -20 34 -21 34 -50 20 -32 -17 -91 -83 -91 -103 0 -7 -4 -13 -10 -13 -17 0 -23 70 -10 113 12 39 64 118 82 125 10 5 10 22 1 21 -5 0 -17 -6 -28 -12z m-78 -199 c-2 -13 -4 -3 -4 22 0 25 2 35 4 23 2 -13 2 -33 0 -45z m151 13 c9 -29 25 -47 71 -80 33 -22 65 -41 73 -41 7 0 19 -9 26 -20 11 -18 9 -22 -20 -40 -41 -25 -129 -36 -177 -22 -20 7 -51 27 -69 45 -32 33 -32 35 -18 63 8 16 22 46 31 66 14 33 48 68 66 68 3 0 11 -17 17 -39z m580 -240 c-13 -9 -22 -23 -20 -33 2 -13 -8 -18 -51 -23 -70 -9 -109 0 -138 31 l-23 24 75 -1 c86 -1 159 9 159 23 0 5 5 6 11 2 7 -4 2 -12 -13 -23z"/>
<path d="M2070 2610 c-23 -5 0 -7 70 -7 83 0 96 1 60 8 -53 9 -83 9 -130 -1z"/>
<path d="M1975 2590 c-25 -11 1 -11 35 0 20 6 21 8 5 8 -11 0 -29 -3 -40 -8z"/>
<path d="M2265 2590 c11 -5 27 -9 35 -9 13 -1 13 0 0 9 -8 5 -24 9 -35 9 l-20 0 20 -9z"/>
<path d="M1856 2544 c-48 -25 -94 -61 -152 -120 -46 -46 -81 -84 -77 -84 4 0 46 38 93 85 65 63 105 93 160 120 41 19 68 35 60 35 -8 -1 -46 -17 -84 -36z"/>
<path d="M1380 2496 c-27 -30 -20 -34 77 -46 42 -6 85 -12 94 -15 14 -5 49 21 38 28 -65 37 -108 47 -140 33 -10 -4 -23 -1 -31 8 -14 13 -18 12 -38 -8z"/>
<path d="M3838 2393 c-5 -20 19 -85 34 -94 6 -4 30 -7 54 -7 71 -2 127 -20 261 -84 23 -11 46 -17 51 -14 23 14 -15 99 -62 139 -42 35 -60 38 -24 4 69 -67 59 -106 -21 -81 -25 8 -84 24 -131 36 -114 27 -135 38 -135 68 0 16 9 29 25 37 25 13 24 13 -12 13 -27 0 -38 -5 -40 -17z"/>
<path d="M3995 2400 c17 -4 39 -8 50 -8 16 0 15 2 -5 8 -14 4 -36 8 -50 8 -22 0 -22 -1 5 -8z"/>
<path d="M4080 2380 c8 -5 20 -10 25 -10 6 0 3 5 -5 10 -8 5 -19 10 -25 10 -5 0 -3 -5 5 -10z"/>
<path d="M1418 2373 c6 -2 18 -2 25 0 6 3 1 5 -13 5 -14 0 -19 -2 -12 -5z"/>
<path d="M1510 2360 c14 -4 36 -8 50 -8 22 0 22 1 -5 8 -16 4 -39 8 -50 8 -16 0 -15 -2 5 -8z"/>
<path d="M1328 2353 c7 -3 16 -2 19 1 4 3 -2 6 -13 5 -11 0 -14 -3 -6 -6z"/>
<path d="M1280 2340 c-8 -5 -10 -10 -5 -10 6 0 17 5 25 10 8 5 11 10 5 10 -5 0 -17 -5 -25 -10z"/>
<path d="M4015 2183 c28 -57 69 -99 107 -108 24 -6 29 -3 38 20 16 41 12 61 -16 94 -20 24 -33 30 -57 29 -18 -1 -46 1 -63 6 l-32 7 23 -48z"/>
<path d="M1197 2108 c3 -13 17 -34 30 -47 22 -21 30 -23 61 -15 19 5 37 14 39 20 3 9 -104 64 -126 64 -5 0 -7 -10 -4 -22z"/>
<path d="M2700 2098 c-19 -18 -48 -43 -64 -55 l-30 -23 75 -1 c92 -2 95 -1 142 13 32 10 51 28 29 28 -4 0 -19 11 -33 24 -27 24 -62 46 -76 46 -5 0 -24 -15 -43 -32z"/>
<path d="M3126 1385 c-10 -8 -24 -16 -29 -18 -15 -5 26 -68 55 -87 54 -34 157 -51 196 -31 9 5 31 15 47 22 46 20 81 49 61 49 -9 0 -16 6 -16 13 0 31 -85 57 -205 63 -69 3 -94 0 -109 -11z"/>
<path d="M1693 1343 c-59 -23 82 -166 191 -194 89 -22 200 7 177 48 -4 8 -45 27 -90 43 -46 16 -120 47 -165 70 -83 40 -91 43 -113 33z"/>
<path d="M3278 1183 c7 -3 16 -2 19 1 4 3 -2 6 -13 5 -11 0 -14 -3 -6 -6z"/>
</g>
</g>
  <g id="id6:id6" transform="matrix(1.25,0,0,1.25,0.0,0.0)"><g transform="translate(0.000000,204.800000) scale(0.040000,-0.040000)" fill="#c4cfd8" stroke="none">
<path d="M3160 4110 c0 -5 -15 -10 -34 -10 -47 0 -161 -61 -225 -120 -30 -27 -64 -50 -75 -50 -12 -1 -39 -9 -61 -20 -22 -11 -44 -19 -49 -20 -21 0 -136 -83 -159 -113 -43 -59 -41 -62 7 -10 60 67 134 108 218 124 57 10 77 20 135 67 37 30 94 67 125 83 104 53 260 61 369 19 50 -19 160 -92 193 -129 14 -15 31 -21 60 -21 23 0 57 -6 76 -13 39 -13 90 -46 75 -48 -6 -1 -14 -2 -20 -4 -5 -1 -16 -3 -24 -3 -11 -2 -7 -10 11 -29 40 -43 45 -73 17 -94 l-24 -18 40 6 c90 12 151 -47 108 -105 -43 -60 -183 -104 -213 -67 -17 21 -5 78 25 114 14 16 25 31 25 34 0 3 -19 7 -42 9 -43 5 -108 -17 -108 -34 0 -15 -87 -98 -102 -98 -8 0 -23 -9 -33 -20 -10 -12 -24 -19 -31 -16 -16 6 -38 -20 -29 -34 5 -9 -7 -14 -27 -11 -21 3 -126 -23 -146 -35 -21 -14 -29 -13 -73 1 -31 11 -60 14 -77 10 -41 -11 -135 -15 -147 -5 -25 20 -87 50 -105 50 -10 0 -30 5 -43 11 -17 8 -39 8 -71 1 -26 -5 -49 -6 -52 -1 -3 5 -14 9 -25 9 -28 0 -116 46 -128 67 -6 10 -11 13 -11 6 0 -25 -33 -42 -94 -48 -35 -4 -70 -4 -76 0 -16 10 14 41 47 50 14 3 23 8 21 11 -14 13 -108 -45 -108 -67 0 -4 10 -11 23 -15 12 -4 37 -20 55 -35 18 -16 44 -29 57 -29 14 0 25 -5 25 -11 0 -6 6 -9 13 -6 6 2 20 -2 29 -10 9 -9 31 -16 48 -17 17 -1 34 -6 38 -11 4 -6 18 -18 32 -27 25 -15 27 -14 58 13 45 40 93 39 188 -6 73 -34 76 -34 196 -32 121 2 123 2 148 31 23 25 32 28 84 27 32 0 74 -6 94 -12 41 -14 136 -6 187 15 20 9 39 26 44 39 12 31 39 42 60 24 50 -44 154 -14 232 66 l51 52 87 -1 c47 0 107 -4 133 -9 45 -7 48 -6 57 18 5 14 15 27 21 29 19 6 -30 59 -74 79 -59 27 -156 25 -205 -3 -37 -21 -39 -21 -65 -4 -15 9 -30 25 -33 34 -4 9 -15 30 -26 45 -14 20 -16 31 -8 41 26 31 -92 95 -179 96 -28 0 -51 13 -110 60 -95 76 -146 100 -245 115 -44 6 -73 14 -65 17 8 4 -9 7 -37 7 -29 1 -53 -3 -53 -9z m1023 -415 c56 -26 47 -39 -20 -29 -32 5 -89 9 -126 8 -71 -1 -82 9 -36 34 32 17 134 10 182 -13z m-723 -205 c0 -5 -7 -10 -16 -10 -8 0 -12 5 -9 10 3 6 10 10 16 10 5 0 9 -4 9 -10z"/>
<path d="M2505 3699 c-4 -6 -5 -12 -2 -15 2 -3 7 2 10 11 7 17 1 20 -8 4z"/>
<path d="M1565 3670 c-3 -5 -16 -10 -29 -10 -25 0 -76 -21 -76 -32 0 -5 -6 -8 -14 -8 -22 0 -166 -148 -166 -170 0 -6 -4 -10 -10 -10 -5 0 -10 -9 -10 -20 0 -11 -4 -20 -8 -20 -5 0 -19 -21 -31 -46 -13 -25 -31 -48 -40 -51 -9 -4 -18 -9 -21 -13 -3 -3 -21 -11 -40 -18 l-35 -11 45 5 c101 11 99 10 135 90 38 84 54 107 125 180 180 185 509 160 662 -50 34 -47 37 -71 8 -63 -17 4 -16 0 10 -30 18 -20 36 -46 42 -59 6 -13 15 -24 20 -24 4 0 9 -8 9 -17 1 -10 4 -2 8 17 l6 35 71 3 c64 2 75 0 100 -21 15 -13 24 -28 21 -34 -6 -9 -65 -19 -157 -26 -25 -2 -25 -3 -22 -70 l4 -68 -40 -38 c-29 -27 -51 -40 -81 -44 -54 -7 -167 -61 -255 -121 -85 -59 -101 -56 -92 18 l6 53 -38 -3 c-20 -1 -41 -2 -45 -3 -5 -1 -22 -15 -37 -31 -27 -29 -31 -30 -82 -22 -85 13 -191 7 -225 -13 -29 -17 -35 -17 -144 0 -67 10 -121 23 -131 33 -21 17 -24 82 -6 100 6 6 9 14 5 18 -3 3 -26 -10 -50 -30 -34 -28 -48 -48 -56 -81 l-11 -45 -58 0 c-71 0 -137 -20 -219 -65 -64 -35 -93 -43 -93 -26 0 23 45 83 83 111 22 16 37 30 32 30 -4 0 -27 -15 -51 -32 -49 -39 -104 -114 -104 -145 0 -12 -5 -25 -10 -28 -6 -3 -10 -10 -10 -16 0 -19 27 -8 61 27 67 69 238 144 296 129 24 -6 24 -7 8 -24 -12 -14 -15 -28 -10 -54 9 -45 31 -65 75 -67 55 -3 58 -2 77 30 15 26 23 30 60 30 49 0 143 -18 159 -31 6 -5 14 -6 17 -2 4 3 7 1 7 -5 0 -27 28 -9 45 27 20 45 30 51 100 61 39 6 56 3 80 -11 40 -25 109 -25 134 0 10 10 29 20 42 23 13 3 31 8 39 12 12 5 14 -2 12 -44 -5 -62 7 -64 65 -12 23 21 63 44 90 51 26 8 55 18 63 22 123 58 153 70 182 73 18 1 52 12 75 24 67 35 100 29 94 -16 -3 -20 37 -79 67 -101 43 -30 88 -36 120 -15 40 26 132 124 132 140 0 13 16 14 101 10 55 -3 118 -9 140 -12 46 -8 52 7 18 50 -23 30 -108 76 -136 75 -12 0 -10 -3 7 -8 70 -22 133 -72 113 -92 -8 -8 -30 -8 -80 0 -37 6 -92 10 -121 9 -37 -2 -56 2 -62 11 -13 22 10 61 39 67 43 9 47 12 19 13 -15 1 -40 -10 -58 -25 -30 -26 -32 -26 -68 -11 -20 8 -45 18 -55 21 -9 3 -20 14 -24 23 -13 39 -54 82 -83 88 -44 10 -26 25 30 25 49 0 66 14 54 44 -13 34 -58 49 -157 55 -99 6 -116 14 -117 51 0 26 -67 116 -112 153 -59 47 -126 84 -184 102 -56 17 -239 21 -249 5z m883 -590 c74 -53 73 -76 -8 -140 -48 -38 -82 -35 -136 12 -26 23 -34 38 -34 63 0 28 7 37 48 64 59 38 78 39 130 1z m-1497 -93 c-14 -36 -31 -43 -31 -13 0 14 8 29 17 35 23 13 26 9 14 -22z"/>
<path d="M2476 3645 c-9 -14 -26 -25 -38 -25 -12 0 -19 -3 -15 -6 12 -12 56 6 68 27 16 30 4 34 -15 4z"/>
<path d="M4351 3274 c-30 -64 -33 -66 -107 -100 -41 -19 -82 -34 -91 -34 -9 0 -27 -10 -40 -22 -21 -20 -24 -20 -40 -5 -24 21 -202 25 -301 7 -58 -11 -77 -19 -89 -37 -15 -22 -14 -27 8 -71 22 -42 29 -48 74 -60 62 -16 112 -9 175 24 42 22 60 25 127 23 57 -1 86 2 104 13 75 48 200 50 248 4 15 -15 30 -24 34 -21 4 3 5 2 3 -1 -7 -8 24 -85 41 -105 8 -9 35 -19 61 -23 74 -10 152 -86 152 -150 0 -13 -3 -13 -27 0 -42 21 -47 17 -19 -17 30 -36 36 -72 21 -136 -5 -20 -12 -23 -53 -23 -28 0 -62 8 -82 19 -50 27 -183 97 -208 110 -58 30 -61 30 -65 18 -5 -14 -7 -13 -32 38 -11 22 -33 46 -48 55 -27 14 -29 14 -50 -11 -36 -42 -181 -129 -241 -143 -28 -7 -29 -8 -23 -63 8 -79 26 -94 124 -104 43 -4 95 -12 115 -19 58 -17 119 -69 169 -145 36 -54 55 -73 90 -88 l44 -19 81 43 81 43 39 -19 c49 -24 159 -31 211 -15 93 31 153 117 153 221 0 98 -52 172 -165 235 -11 6 -31 32 -45 57 -44 81 -74 104 -187 148 -12 4 -40 34 -62 66 -23 32 -51 70 -63 85 l-22 28 22 39 c22 40 27 77 16 144 -6 31 -11 37 -30 37 -16 0 -24 6 -24 18 0 11 -8 18 -24 20 -20 1 -28 -8 -55 -64z m-74 -162 c21 -13 0 -29 -78 -55 -53 -19 -84 -24 -103 -19 -26 7 -21 11 60 44 96 40 103 42 121 30z m-241 -47 c19 -15 19 -15 0 -30 -11 -8 -29 -15 -40 -15 -12 -1 -46 -9 -76 -20 -30 -11 -68 -19 -85 -20 -31 0 -95 33 -95 49 0 5 15 18 33 29 26 17 50 20 138 21 79 1 110 -3 125 -14z m501 -184 c-13 -5 -47 36 -47 57 0 11 10 4 29 -18 16 -20 24 -37 18 -39z m190 -111 c3 -11 9 -20 14 -20 5 0 9 -6 9 -14 0 -8 14 -26 31 -40 l31 -26 -31 0 c-16 0 -33 6 -38 13 -18 28 -41 107 -31 107 5 0 12 -9 15 -20z m81 -124 c34 -18 68 -54 77 -83 8 -28 2 -28 -50 -3 -22 11 -46 19 -52 20 -14 0 -43 60 -36 73 6 11 31 8 61 -7z m128 -103 c30 -70 8 -190 -42 -235 -53 -47 -162 -62 -244 -33 -62 22 -87 19 -169 -22 -54 -27 -78 -34 -90 -26 -9 5 -46 50 -83 99 -88 116 -143 144 -312 160 -82 8 -96 16 -96 54 0 25 5 29 47 40 26 6 52 15 58 20 6 5 25 11 41 14 50 9 143 -43 144 -81 0 -6 10 -28 23 -47 l22 -36 160 6 c224 8 275 17 302 51 13 16 23 31 23 35 0 4 5 19 10 34 9 23 12 25 23 12 7 -9 29 -21 49 -27 20 -7 54 -26 75 -42 22 -18 39 -26 41 -19 6 16 -17 69 -46 110 l-25 35 38 -35 c20 -19 44 -49 51 -67z"/>
<path d="M1050 3250 c-8 -5 -10 -10 -5 -10 6 0 17 5 25 10 8 5 11 10 5 10 -5 0 -17 -5 -25 -10z"/>
<path d="M975 3198 c-33 -29 -59 -65 -85 -120 -20 -43 -35 -78 -33 -78 10 0 33 30 33 42 0 34 52 119 97 157 26 22 45 41 42 41 -3 0 -28 -19 -54 -42z"/>
<path d="M2075 3150 c3 -5 8 -10 11 -10 2 0 4 5 4 10 0 6 -5 10 -11 10 -5 0 -7 -4 -4 -10z"/>
<path d="M765 3000 l-60 -7 57 -1 c31 -1 60 3 63 8 3 6 5 9 3 8 -2 -1 -30 -4 -63 -8z"/>
<path d="M3010 2975 c-52 -14 -102 -23 -111 -20 -28 9 -121 -40 -171 -90 -48 -47 -121 -146 -148 -198 -8 -15 -29 -46 -48 -67 -29 -34 -39 -40 -73 -40 -22 0 -70 11 -107 23 -146 51 -221 56 -362 21 -60 -15 -180 -68 -180 -79 0 -3 23 6 52 21 60 30 118 48 206 64 78 14 180 0 279 -37 146 -55 166 -50 237 70 71 119 170 228 240 262 133 65 380 95 508 61 154 -40 248 -97 334 -201 89 -107 117 -227 43 -183 -18 11 -23 10 -33 -6 -6 -10 -21 -34 -33 -52 -13 -20 -20 -41 -16 -50 10 -26 -22 -43 -68 -37 -26 4 -53 0 -78 -12 -30 -13 -53 -15 -107 -10 -156 14 -427 13 -499 -2 -38 -9 -90 -15 -115 -15 -42 0 -46 -2 -48 -26 -1 -15 -9 -32 -17 -38 -8 -6 -15 -19 -15 -28 0 -9 -8 -16 -20 -16 -22 0 -94 -42 -106 -61 -4 -7 1 -18 10 -25 15 -11 7 -12 -52 -10 -60 3 -74 0 -97 -18 -23 -19 -26 -27 -21 -53 8 -34 76 -103 101 -103 8 0 15 -4 15 -10 0 -5 -4 -9 -8 -7 -25 7 -132 -150 -132 -195 0 -38 -14 -49 -51 -44 -47 6 -68 15 -79 36 -5 9 -33 29 -62 42 -102 49 -230 62 -313 34 -47 -17 -108 -14 -131 5 -13 10 -15 28 -12 92 3 78 3 78 -27 95 -16 9 -32 18 -34 20 -11 6 31 36 51 37 31 2 87 29 120 58 15 13 48 35 72 48 49 26 54 37 65 137 6 52 5 62 -8 63 -30 2 -46 -2 -109 -31 -44 -21 -85 -52 -143 -110 l-81 -81 -53 16 c-61 17 -172 20 -230 4 -66 -17 -120 -48 -169 -97 -77 -78 -92 -100 -115 -170 -13 -37 -30 -73 -39 -81 -13 -10 -14 -12 -2 -9 8 2 24 23 35 46 20 41 35 54 35 30 0 -12 60 -53 101 -70 18 -7 77 30 125 79 52 53 143 67 245 37 110 -32 111 -32 123 -106 4 -20 19 -50 35 -67 l28 -30 133 4 c85 2 141 0 154 -7 33 -17 80 -59 87 -76 8 -22 106 -50 204 -58 l85 -7 0 28 c0 28 14 81 32 121 6 12 34 48 63 80 l52 58 89 2 c49 1 105 4 124 8 90 16 178 24 203 19 21 -4 33 0 48 16 24 25 19 36 -18 44 -45 10 -90 43 -127 94 -30 41 -33 50 -21 59 21 16 19 27 -14 59 -45 46 -21 79 71 99 23 5 194 6 463 2 54 -1 81 4 116 22 25 12 53 22 62 22 9 0 18 4 21 9 3 5 22 12 41 15 26 5 35 12 35 27 0 10 13 37 29 60 17 22 32 46 34 52 3 9 9 9 26 0 30 -18 31 -17 31 26 0 54 -58 164 -126 239 -46 51 -74 71 -158 112 -55 28 -108 50 -116 50 -8 0 -33 7 -55 15 -63 22 -195 18 -305 -10z m-1085 -619 c11 -82 7 -90 -45 -96 -44 -5 -110 -36 -110 -52 0 -4 -16 -8 -35 -8 -19 0 -35 5 -35 10 0 6 -7 10 -15 10 -19 0 -19 7 -1 26 17 16 30 19 21 4 -3 -6 5 -10 19 -10 14 0 30 8 35 19 13 24 4 33 -21 20 -35 -19 -29 -4 16 39 49 46 122 92 148 92 13 0 18 -13 23 -54z m875 -126 c0 -13 -11 -13 -30 0 -12 8 -11 10 8 10 12 0 22 -4 22 -10z m-1223 -26 c-3 -3 -12 -4 -19 -1 -8 3 -5 6 6 6 11 1 17 -2 13 -5z m48 -24 c-3 -5 -10 -10 -16 -10 -5 0 -9 5 -9 10 0 6 7 10 16 10 8 0 12 -4 9 -10z m-35 -19 c0 -11 -68 -41 -91 -41 -14 0 -19 5 -17 18 2 12 14 18 41 20 20 2 37 7 37 12 0 5 7 7 15 4 8 -4 15 -9 15 -13z m-320 -58 c33 -15 59 -31 57 -37 -2 -6 -20 -15 -39 -20 -31 -8 -39 -6 -61 15 -25 25 -42 69 -26 69 5 0 36 -12 69 -27z m1503 16 c11 -7 32 -22 46 -35 14 -13 29 -24 33 -24 22 0 3 -18 -29 -28 -47 -14 -50 -15 -142 -13 l-75 1 30 23 c16 12 45 37 64 55 38 36 42 37 73 21z"/>
<path d="M665 2980 c-13 -6 -15 -9 -5 -9 8 0 22 4 30 9 18 12 2 12 -25 0z"/>
<path d="M4420 2900 c11 -15 20 -33 20 -40 0 -19 53 -87 82 -104 14 -9 39 -15 55 -15 l28 1 -29 7 c-25 5 -36 18 -64 76 -34 70 -47 84 -90 97 l-22 6 20 -28z m90 -94 c0 -12 -14 5 -31 39 -8 16 -6 15 10 -4 12 -13 21 -28 21 -35z"/>
<path d="M298 2653 c7 -3 16 -2 19 1 4 3 -2 6 -13 5 -11 0 -14 -3 -6 -6z"/>
<path d="M245 2637 c-91 -54 -124 -106 -125 -192 0 -68 13 -108 51 -157 38 -47 117 -88 169 -88 19 0 69 9 109 20 l75 20 35 -25 c20 -14 54 -39 76 -55 80 -59 208 -75 286 -35 40 21 126 163 115 190 -6 16 -51 29 -151 44 -125 20 -138 20 -172 6 -18 -8 -35 -14 -38 -15 -3 0 -12 -3 -20 -6 -8 -4 -25 0 -38 8 -12 8 -49 23 -82 32 -104 32 -162 64 -184 102 -20 34 -21 34 -50 20 -32 -17 -91 -83 -91 -103 0 -7 -4 -13 -10 -13 -17 0 -23 70 -10 113 12 39 64 118 82 125 10 5 10 22 1 21 -5 0 -17 -6 -28 -12z m-78 -199 c-2 -13 -4 -3 -4 22 0 25 2 35 4 23 2 -13 2 -33 0 -45z m151 13 c9 -29 25 -47 71 -80 33 -22 65 -41 73 -41 7 0 19 -9 26 -20 11 -18 9 -22 -20 -40 -41 -25 -129 -36 -177 -22 -20 7 -51 27 -69 45 -32 33 -32 35 -18 63 8 16 22 46 31 66 14 33 48 68 66 68 3 0 11 -17 17 -39z m580 -240 c-13 -9 -22 -23 -20 -33 2 -13 -8 -18 -51 -23 -70 -9 -109 0 -138 31 l-23 24 75 -1 c86 -1 159 9 159 23 0 5 5 6 11 2 7 -4 2 -12 -13 -23z"/>
<path d="M359 2604 c-11 -14 -10 -15 11 -12 13 1 25 9 28 16 5 17 -23 15 -39 -4z"/>
<path d="M1380 2496 c-27 -30 -20 -34 77 -46 42 -6 85 -12 94 -15 14 -5 49 21 38 28 -65 37 -108 47 -140 33 -10 -4 -23 -1 -31 8 -14 13 -18 12 -38 -8z"/>
<path d="M1776 2505 c-11 -8 -17 -17 -14 -20 2 -3 13 4 23 15 21 23 18 25 -9 5z"/>
<path d="M1709 2443 l-34 -38 38 34 c34 33 42 41 34 41 -2 0 -19 -17 -38 -37z"/>
<path d="M3820 2405 c0 -29 30 -109 43 -117 7 -4 31 -8 54 -8 70 0 73 -6 31 -52 -21 -23 -38 -45 -38 -49 0 -22 74 -120 112 -148 33 -24 52 -31 90 -31 45 0 49 2 67 38 29 57 36 106 17 121 -9 8 -16 20 -16 28 0 10 13 6 42 -16 23 -17 46 -31 51 -31 19 0 -2 79 -34 129 -18 27 -35 48 -37 46 -2 -2 5 -16 15 -32 23 -33 34 -81 21 -89 -5 -3 -28 3 -51 14 -134 64 -190 82 -261 84 -54 1 -60 4 -78 48 -25 62 -17 69 75 72 l82 3 -93 5 c-87 5 -92 4 -92 -15z m267 -187 c24 1 37 -5 57 -29 28 -33 32 -53 16 -94 -9 -23 -14 -26 -38 -20 -38 9 -79 51 -107 108 l-23 48 32 -7 c17 -5 45 -7 63 -6z"/>
<path d="M1649 2373 l-24 -28 28 24 c25 23 32 31 24 31 -2 0 -14 -12 -28 -27z"/>
<path d="M4060 2396 c0 -2 9 -6 20 -9 11 -3 18 -1 14 4 -5 9 -34 13 -34 5z"/>
<path d="M1378 2373 c6 -2 18 -2 25 0 6 3 1 5 -13 5 -14 0 -19 -2 -12 -5z"/>
<path d="M1463 2373 c9 -2 25 -2 35 0 9 3 1 5 -18 5 -19 0 -27 -2 -17 -5z"/>
<path d="M4110 2376 c0 -2 7 -7 16 -10 8 -3 12 -2 9 4 -6 10 -25 14 -25 6z"/>
<path d="M1286 2351 c-4 -5 3 -7 14 -4 23 6 26 13 6 13 -8 0 -17 -4 -20 -9z"/>
<path d="M4150 2356 c0 -2 8 -10 18 -17 15 -13 16 -12 3 4 -13 16 -21 21 -21 13z"/>
<path d="M1245 2330 c-3 -6 1 -7 9 -4 18 7 21 14 7 14 -6 0 -13 -4 -16 -10z"/>
<path d="M1151 2253 c-22 -26 -38 -50 -35 -53 3 -2 10 3 16 13 5 10 23 34 40 53 16 19 28 34 25 34 -3 0 -24 -21 -46 -47z"/>
<path d="M1081 2159 c-10 -17 -26 -55 -36 -84 -14 -45 -21 -54 -43 -58 l-27 -4 27 -2 c30 -1 58 29 58 64 0 11 11 41 24 68 26 53 25 62 -3 16z"/>
<path d="M2075 2140 c-3 -5 1 -10 10 -10 9 0 13 5 10 10 -3 6 -8 10 -10 10 -2 0 -7 -4 -10 -10z"/>
<path d="M938 2003 c6 -2 18 -2 25 0 6 3 1 5 -13 5 -14 0 -19 -2 -12 -5z"/>
<path d="M874 1984 c-19 -15 -19 -15 1 -6 11 5 27 12 35 15 13 5 13 6 -1 6 -8 1 -24 -6 -35 -15z"/>
<path d="M816 1937 c-37 -49 -30 -97 13 -97 11 0 9 5 -7 20 -28 26 -27 27 3 73 32 46 25 49 -9 4z"/>
<path d="M908 1873 c7 -3 16 -2 19 1 4 3 -2 6 -13 5 -11 0 -14 -3 -6 -6z"/>
<path d="M3126 1385 c-10 -8 -24 -16 -29 -18 -15 -5 26 -68 55 -87 54 -34 157 -51 196 -31 9 5 31 15 47 22 46 20 81 49 61 49 -9 0 -16 6 -16 13 0 31 -85 57 -205 63 -69 3 -94 0 -109 -11z"/>
<path d="M1693 1343 c-59 -23 82 -166 191 -194 89 -22 200 7 177 48 -4 8 -45 27 -90 43 -46 16 -120 47 -165 70 -83 40 -91 43 -113 33z"/>
<path d="M3278 1183 c7 -3 16 -2 19 1 4 3 -2 6 -13 5 -11 0 -14 -3 -6 -6z"/>
</g>
</g>
  <g id="id7:id7" transform="matrix(1.25,0,0,1.25,0.0,0.0)"><g transform="translate(0.000000,204.800000) scale(0.040000,-0.040000)" fill="#b7c5cf" stroke="none">
<path d="M4351 3274 c-30 -64 -33 -66 -107 -100 -41 -19 -82 -34 -91 -34 -9 0 -27 -10 -40 -22 -21 -20 -24 -20 -40 -5 -24 21 -202 25 -301 7 -58 -11 -77 -19 -89 -37 -15 -22 -14 -27 8 -71 22 -42 29 -48 74 -60 62 -16 112 -9 175 24 42 22 60 25 127 23 57 -1 86 2 104 13 75 48 200 50 248 4 15 -15 30 -24 34 -21 4 3 5 2 3 -1 -7 -8 24 -85 41 -105 8 -9 35 -19 61 -23 74 -10 152 -86 152 -150 0 -13 -3 -13 -27 0 -42 21 -47 17 -19 -17 30 -36 36 -72 21 -136 -5 -20 -12 -23 -53 -23 -28 0 -62 8 -82 19 -50 27 -183 97 -208 110 -58 30 -61 30 -65 18 -5 -14 -7 -13 -32 38 -11 22 -33 46 -48 55 -27 14 -29 14 -50 -11 -36 -42 -181 -129 -241 -143 -28 -7 -29 -8 -23 -63 8 -79 26 -94 124 -104 43 -4 95 -12 115 -19 58 -17 119 -69 169 -145 36 -54 55 -73 90 -88 l44 -19 81 43 81 43 39 -19 c49 -24 159 -31 211 -15 93 31 153 117 153 221 0 98 -52 172 -165 235 -11 6 -31 32 -45 57 -44 81 -74 104 -187 148 -12 4 -40 34 -62 66 -23 32 -51 70 -63 85 l-22 28 22 39 c22 40 27 77 16 144 -6 31 -11 37 -30 37 -16 0 -24 6 -24 18 0 11 -8 18 -24 20 -20 1 -28 -8 -55 -64z m-74 -162 c21 -13 0 -29 -78 -55 -53 -19 -84 -24 -103 -19 -26 7 -21 11 60 44 96 40 103 42 121 30z m-241 -47 c19 -15 19 -15 0 -30 -11 -8 -29 -15 -40 -15 -12 -1 -46 -9 -76 -20 -30 -11 -68 -19 -85 -20 -31 0 -95 33 -95 49 0 5 15 18 33 29 26 17 50 20 138 21 79 1 110 -3 125 -14z m501 -184 c-13 -5 -47 36 -47 57 0 11 10 4 29 -18 16 -20 24 -37 18 -39z m190 -111 c3 -11 9 -20 14 -20 5 0 9 -6 9 -14 0 -8 14 -26 31 -40 l31 -26 -31 0 c-16 0 -33 6 -38 13 -18 28 -41 107 -31 107 5 0 12 -9 15 -20z m81 -124 c34 -18 68 -54 77 -83 8 -28 2 -28 -50 -3 -22 11 -46 19 -52 20 -14 0 -43 60 -36 73 6 11 31 8 61 -7z m128 -103 c30 -70 8 -190 -42 -235 -53 -47 -162 -62 -244 -33 -62 22 -87 19 -169 -22 -54 -27 -78 -34 -90 -26 -9 5 -46 50 -83 99 -88 116 -143 144 -312 160 -82 8 -96 16 -96 54 0 25 5 29 47 40 26 6 52 15 58 20 6 5 25 11 41 14 50 9 143 -43 144 -81 0 -6 10 -28 23 -47 l22 -36 160 6 c224 8 275 17 302 51 13 16 23 31 23 35 0 4 5 19 10 34 9 23 12 25 23 12 7 -9 29 -21 49 -27 20 -7 54 -26 75 -42 22 -18 39 -26 41 -19 6 16 -17 69 -46 110 l-25 35 38 -35 c20 -19 44 -49 51 -67z"/>
<path d="M4420 2900 c11 -15 20 -33 20 -40 0 -19 53 -87 82 -104 14 -9 39 -15 55 -15 l28 1 -29 7 c-25 5 -36 18 -64 76 -34 70 -47 84 -90 97 l-22 6 20 -28z m90 -94 c0 -12 -14 5 -31 39 -8 16 -6 15 10 -4 12 -13 21 -28 21 -35z"/>
<path d="M298 2653 c7 -3 16 -2 19 1 4 3 -2 6 -13 5 -11 0 -14 -3 -6 -6z"/>
<path d="M245 2637 c-91 -54 -124 -106 -125 -192 0 -68 13 -108 51 -157 38 -47 117 -88 169 -88 19 0 69 9 109 20 l75 20 35 -25 c20 -14 54 -39 76 -55 80 -59 208 -75 286 -35 40 21 126 163 115 190 -6 16 -51 29 -151 44 -125 20 -138 20 -172 6 -18 -8 -35 -14 -38 -15 -3 0 -12 -3 -20 -6 -8 -4 -25 0 -38 8 -12 8 -49 23 -82 32 -104 32 -162 64 -184 102 -20 34 -21 34 -50 20 -32 -17 -91 -83 -91 -103 0 -7 -4 -13 -10 -13 -17 0 -23 70 -10 113 12 39 64 118 82 125 10 5 10 22 1 21 -5 0 -17 -6 -28 -12z m-78 -199 c-2 -13 -4 -3 -4 22 0 25 2 35 4 23 2 -13 2 -33 0 -45z m151 13 c9 -29 25 -47 71 -80 33 -22 65 -41 73 -41 7 0 19 -9 26 -20 11 -18 9 -22 -20 -40 -41 -25 -129 -36 -177 -22 -20 7 -51 27 -69 45 -32 33 -32 35 -18 63 8 16 22 46 31 66 14 33 48 68 66 68 3 0 11 -17 17 -39z m580 -240 c-13 -9 -22 -23 -20 -33 2 -13 -8 -18 -51 -23 -70 -9 -109 0 -138 31 l-23 24 75 -1 c86 -1 159 9 159 23 0 5 5 6 11 2 7 -4 2 -12 -13 -23z"/>
<path d="M1380 2496 c-27 -30 -20 -34 77 -46 42 -6 85 -12 94 -15 14 -5 49 21 38 28 -65 37 -108 47 -140 33 -10 -4 -23 -1 -31 8 -14 13 -18 12 -38 -8z"/>
<path d="M3126 1385 c-10 -8 -24 -16 -29 -18 -15 -5 26 -68 55 -87 54 -34 157 -51 196 -31 9 5 31 15 47 22 46 20 81 49 61 49 -9 0 -16 6 -16 13 0 31 -85 57 -205 63 -69 3 -94 0 -109 -11z"/>
<path d="M1693 1343 c-59 -23 82 -166 191 -194 89 -22 200 7 177 48 -4 8 -45 27 -90 43 -46 16 -120 47 -165 70 -83 40 -91 43 -113 33z"/>
<path d="M3278 1183 c7 -3 16 -2 19 1 4 3 -2 6 -13 5 -11 0 -14 -3 -6 -6z"/>
</g>
</g>
  <g id="id8:id8" transform="matrix(1.25,0,0,1.25,0.0,0.0)"><g transform="translate(0.000000,204.800000) scale(0.040000,-0.040000)" fill="#a9bac6" stroke="none">
<path d="M4351 3274 c-30 -64 -33 -66 -107 -100 -41 -19 -82 -34 -91 -34 -9 0 -27 -10 -40 -22 -21 -20 -24 -20 -40 -5 -24 21 -202 25 -301 7 -58 -11 -77 -19 -89 -37 -15 -22 -14 -27 8 -71 22 -42 29 -48 74 -60 62 -16 112 -9 175 24 42 22 60 25 127 23 57 -1 86 2 104 13 75 48 200 50 248 4 15 -15 30 -24 34 -21 4 3 5 2 3 -1 -7 -8 24 -85 41 -105 8 -9 35 -19 61 -23 74 -10 152 -86 152 -150 0 -13 -3 -13 -27 0 -42 21 -47 17 -19 -17 30 -36 36 -72 21 -136 -5 -20 -12 -23 -53 -23 -28 0 -62 8 -82 19 -50 27 -183 97 -208 110 -58 30 -61 30 -65 18 -5 -14 -7 -13 -32 38 -11 22 -33 46 -48 55 -27 14 -29 14 -50 -11 -36 -42 -181 -129 -241 -143 -28 -7 -29 -8 -23 -63 8 -79 26 -94 124 -104 43 -4 95 -12 115 -19 58 -17 119 -69 169 -145 36 -54 55 -73 90 -88 l44 -19 81 43 81 43 39 -19 c49 -24 159 -31 211 -15 93 31 153 117 153 221 0 98 -52 172 -165 235 -11 6 -31 32 -45 57 -44 81 -74 104 -187 148 -12 4 -40 34 -62 66 -23 32 -51 70 -63 85 l-22 28 22 39 c22 40 27 77 16 144 -6 31 -11 37 -30 37 -16 0 -24 6 -24 18 0 11 -8 18 -24 20 -20 1 -28 -8 -55 -64z m-74 -162 c21 -13 0 -29 -78 -55 -53 -19 -84 -24 -103 -19 -26 7 -21 11 60 44 96 40 103 42 121 30z m-241 -47 c19 -15 19 -15 0 -30 -11 -8 -29 -15 -40 -15 -12 -1 -46 -9 -76 -20 -30 -11 -68 -19 -85 -20 -31 0 -95 33 -95 49 0 5 15 18 33 29 26 17 50 20 138 21 79 1 110 -3 125 -14z m501 -184 c-13 -5 -47 36 -47 57 0 11 10 4 29 -18 16 -20 24 -37 18 -39z m190 -111 c3 -11 9 -20 14 -20 5 0 9 -6 9 -14 0 -8 14 -26 31 -40 l31 -26 -31 0 c-16 0 -33 6 -38 13 -18 28 -41 107 -31 107 5 0 12 -9 15 -20z m81 -124 c34 -18 68 -54 77 -83 8 -28 2 -28 -50 -3 -22 11 -46 19 -52 20 -14 0 -43 60 -36 73 6 11 31 8 61 -7z m128 -103 c30 -70 8 -190 -42 -235 -53 -47 -162 -62 -244 -33 -62 22 -87 19 -169 -22 -54 -27 -78 -34 -90 -26 -9 5 -46 50 -83 99 -88 116 -143 144 -312 160 -82 8 -96 16 -96 54 0 25 5 29 47 40 26 6 52 15 58 20 6 5 25 11 41 14 50 9 143 -43 144 -81 0 -6 10 -28 23 -47 l22 -36 160 6 c224 8 275 17 302 51 13 16 23 31 23 35 0 4 5 19 10 34 9 23 12 25 23 12 7 -9 29 -21 49 -27 20 -7 54 -26 75 -42 22 -18 39 -26 41 -19 6 16 -17 69 -46 110 l-25 35 38 -35 c20 -19 44 -49 51 -67z"/>
<path d="M4420 2900 c11 -15 20 -33 20 -40 0 -19 53 -87 82 -104 14 -9 39 -15 55 -15 l28 1 -29 7 c-25 5 -36 18 -64 76 -34 70 -47 84 -90 97 l-22 6 20 -28z m90 -94 c0 -12 -14 5 -31 39 -8 16 -6 15 10 -4 12 -13 21 -28 21 -35z"/>
<path d="M298 2653 c7 -3 16 -2 19 1 4 3 -2 6 -13 5 -11 0 -14 -3 -6 -6z"/>
<path d="M245 2637 c-91 -54 -124 -106 -125 -192 0 -68 13 -108 51 -157 38 -47 117 -88 169 -88 19 0 69 9 109 20 l75 20 35 -25 c20 -14 54 -39 76 -55 80 -59 208 -75 286 -35 40 21 126 163 115 190 -6 16 -51 29 -151 44 -125 20 -138 20 -172 6 -18 -8 -35 -14 -38 -15 -3 0 -12 -3 -20 -6 -8 -4 -25 0 -38 8 -12 8 -49 23 -82 32 -104 32 -162 64 -184 102 -20 34 -21 34 -50 20 -32 -17 -91 -83 -91 -103 0 -7 -4 -13 -10 -13 -17 0 -23 70 -10 113 12 39 64 118 82 125 10 5 10 22 1 21 -5 0 -17 -6 -28 -12z m-78 -199 c-2 -13 -4 -3 -4 22 0 25 2 35 4 23 2 -13 2 -33 0 -45z m151 13 c9 -29 25 -47 71 -80 33 -22 65 -41 73 -41 7 0 19 -9 26 -20 11 -18 9 -22 -20 -40 -41 -25 -129 -36 -177 -22 -20 7 -51 27 -69 45 -32 33 -32 35 -18 63 8 16 22 46 31 66 14 33 48 68 66 68 3 0 11 -17 17 -39z m580 -240 c-13 -9 -22 -23 -20 -33 2 -13 -8 -18 -51 -23 -70 -9 -109 0 -138 31 l-23 24 75 -1 c86 -1 159 9 159 23 0 5 5 6 11 2 7 -4 2 -12 -13 -23z"/>
<path d="M1380 2496 c-27 -30 -20 -34 77 -46 42 -6 85 -12 94 -15 14 -5 49 21 38 28 -65 37 -108 47 -140 33 -10 -4 -23 -1 -31 8 -14 13 -18 12 -38 -8z"/>
<path d="M3126 1385 c-10 -8 -24 -16 -29 -18 -15 -5 26 -68 55 -87 54 -34 157 -51 196 -31 9 5 31 15 47 22 46 20 81 49 61 49 -9 0 -16 6 -16 13 0 31 -85 57 -205 63 -69 3 -94 0 -109 -11z"/>
<path d="M1693 1343 c-59 -23 82 -166 191 -194 89 -22 200 7 177 48 -4 8 -45 27 -90 43 -46 16 -120 47 -165 70 -83 40 -91 43 -113 33z"/>
<path d="M3278 1183 c7 -3 16 -2 19 1 4 3 -2 6 -13 5 -11 0 -14 -3 -6 -6z"/>
</g>
</g>
  <g id="id9:id9" transform="matrix(1.25,0,0,1.25,0.0,0.0)"><g transform="translate(0.000000,204.800000) scale(0.040000,-0.040000)" fill="#8fa3af" stroke="none">
<path d="M4351 3274 c-30 -64 -33 -66 -107 -100 -41 -19 -82 -34 -91 -34 -9 0 -27 -10 -40 -22 -21 -20 -24 -20 -40 -5 -24 21 -202 25 -301 7 -58 -11 -77 -19 -89 -37 -15 -22 -14 -27 8 -71 22 -42 29 -48 74 -60 62 -16 112 -9 175 24 42 22 60 25 127 23 57 -1 86 2 104 13 75 48 200 50 248 4 15 -15 30 -24 34 -21 4 3 5 2 3 -1 -7 -8 24 -85 41 -105 8 -9 35 -19 61 -23 74 -10 152 -86 152 -150 0 -13 -3 -13 -27 0 -42 21 -47 17 -19 -17 30 -36 36 -72 21 -136 -5 -20 -12 -23 -53 -23 -28 0 -62 8 -82 19 -50 27 -183 97 -208 110 -58 30 -61 30 -65 18 -5 -14 -7 -13 -32 38 -11 22 -33 46 -48 55 -27 14 -29 14 -50 -11 -36 -42 -181 -129 -241 -143 -28 -7 -29 -8 -23 -63 8 -79 26 -94 124 -104 43 -4 95 -12 115 -19 58 -17 119 -69 169 -145 36 -54 55 -73 90 -88 l44 -19 81 43 81 43 39 -19 c49 -24 159 -31 211 -15 93 31 153 117 153 221 0 98 -52 172 -165 235 -11 6 -31 32 -45 57 -44 81 -74 104 -187 148 -12 4 -40 34 -62 66 -23 32 -51 70 -63 85 l-22 28 22 39 c22 40 27 77 16 144 -6 31 -11 37 -30 37 -16 0 -24 6 -24 18 0 11 -8 18 -24 20 -20 1 -28 -8 -55 -64z m-74 -162 c21 -13 0 -29 -78 -55 -53 -19 -84 -24 -103 -19 -26 7 -21 11 60 44 96 40 103 42 121 30z m-241 -47 c19 -15 19 -15 0 -30 -11 -8 -29 -15 -40 -15 -12 -1 -46 -9 -76 -20 -30 -11 -68 -19 -85 -20 -31 0 -95 33 -95 49 0 5 15 18 33 29 26 17 50 20 138 21 79 1 110 -3 125 -14z m501 -184 c-13 -5 -47 36 -47 57 0 11 10 4 29 -18 16 -20 24 -37 18 -39z m190 -111 c3 -11 9 -20 14 -20 5 0 9 -6 9 -14 0 -8 14 -26 31 -40 l31 -26 -31 0 c-16 0 -33 6 -38 13 -18 28 -41 107 -31 107 5 0 12 -9 15 -20z m81 -124 c34 -18 68 -54 77 -83 8 -28 2 -28 -50 -3 -22 11 -46 19 -52 20 -14 0 -43 60 -36 73 6 11 31 8 61 -7z m128 -103 c30 -70 8 -190 -42 -235 -53 -47 -162 -62 -244 -33 -62 22 -87 19 -169 -22 -54 -27 -78 -34 -90 -26 -9 5 -46 50 -83 99 -88 116 -143 144 -312 160 -82 8 -96 16 -96 54 0 25 5 29 47 40 26 6 52 15 58 20 6 5 25 11 41 14 50 9 143 -43 144 -81 0 -6 10 -28 23 -47 l22 -36 160 6 c224 8 275 17 302 51 13 16 23 31 23 35 0 4 5 19 10 34 9 23 12 25 23 12 7 -9 29 -21 49 -27 20 -7 54 -26 75 -42 22 -18 39 -26 41 -19 6 16 -17 69 -46 110 l-25 35 38 -35 c20 -19 44 -49 51 -67z"/>
<path d="M4420 2900 c11 -15 20 -33 20 -40 0 -19 53 -87 82 -104 14 -9 39 -15 55 -15 l28 1 -29 7 c-25 5 -36 18 -64 76 -34 70 -47 84 -90 97 l-22 6 20 -28z m90 -94 c0 -12 -14 5 -31 39 -8 16 -6 15 10 -4 12 -13 21 -28 21 -35z"/>
<path d="M298 2653 c7 -3 16 -2 19 1 4 3 -2 6 -13 5 -11 0 -14 -3 -6 -6z"/>
<path d="M245 2637 c-91 -54 -124 -106 -125 -192 0 -68 13 -108 51 -157 38 -47 117 -88 169 -88 19 0 69 9 109 20 l75 20 35 -25 c20 -14 54 -39 76 -55 80 -59 208 -75 286 -35 40 21 126 163 115 190 -6 16 -51 29 -151 44 -125 20 -138 20 -172 6 -18 -8 -35 -14 -38 -15 -3 0 -12 -3 -20 -6 -8 -4 -25 0 -38 8 -12 8 -49 23 -82 32 -104 32 -162 64 -184 102 -20 34 -21 34 -50 20 -32 -17 -91 -83 -91 -103 0 -7 -4 -13 -10 -13 -17 0 -23 70 -10 113 12 39 64 118 82 125 10 5 10 22 1 21 -5 0 -17 -6 -28 -12z m-78 -199 c-2 -13 -4 -3 -4 22 0 25 2 35 4 23 2 -13 2 -33 0 -45z m151 13 c9 -29 25 -47 71 -80 33 -22 65 -41 73 -41 7 0 19 -9 26 -20 11 -18 9 -22 -20 -40 -41 -25 -129 -36 -177 -22 -20 7 -51 27 -69 45 -32 33 -32 35 -18 63 8 16 22 46 31 66 14 33 48 68 66 68 3 0 11 -17 17 -39z m580 -240 c-13 -9 -22 -23 -20 -33 2 -13 -8 -18 -51 -23 -70 -9 -109 0 -138 31 l-23 24 75 -1 c86 -1 159 9 159 23 0 5 5 6 11 2 7 -4 2 -12 -13 -23z"/>
<path d="M1380 2496 c-27 -30 -20 -34 77 -46 42 -6 85 -12 94 -15 14 -5 49 21 38 28 -65 37 -108 47 -140 33 -10 -4 -23 -1 -31 8 -14 13 -18 12 -38 -8z"/>
<path d="M3126 1385 c-10 -8 -24 -16 -29 -18 -15 -5 26 -68 55 -87 54 -34 157 -51 196 -31 9 5 31 15 47 22 46 20 81 49 61 49 -9 0 -16 6 -16 13 0 31 -85 57 -205 63 -69 3 -94 0 -109 -11z"/>
<path d="M1693 1343 c-59 -23 82 -166 191 -194 89 -22 200 7 177 48 -4 8 -45 27 -90 43 -46 16 -120 47 -165 70 -83 40 -91 43 -113 33z"/>
<path d="M3278 1183 c7 -3 16 -2 19 1 4 3 -2 6 -13 5 -11 0 -14 -3 -6 -6z"/>
</g>
</g>
  <g id="id10:id10" transform="matrix(1.25,0,0,1.25,0.0,0.0)"><g transform="translate(0.000000,204.800000) scale(0.040000,-0.040000)" fill="#9aaebc" stroke="none">
<path d="M3742 3931 c31 -10 72 -28 91 -40 45 -27 89 -92 91 -132 1 -26 6 -33 23 -34 12 -1 28 2 35 7 10 6 8 8 -4 8 -11 0 -26 17 -39 43 -12 23 -32 56 -45 73 -13 17 -21 34 -16 38 4 4 0 6 -8 4 -8 -1 -14 3 -12 10 1 6 -7 12 -17 12 -11 0 -21 4 -23 9 -1 4 -32 11 -68 14 l-65 6 57 -18z"/>
<path d="M4013 3743 c9 -2 23 -2 30 0 6 3 -1 5 -18 5 -16 0 -22 -2 -12 -5z"/>
<path d="M4118 3743 c6 -2 18 -2 25 0 6 3 1 5 -13 5 -14 0 -19 -2 -12 -5z"/>
<path d="M4280 3660 c27 -38 31 -51 26 -84 -15 -92 -54 -120 -135 -95 -100 30 -206 3 -289 -75 -32 -30 -37 -31 -110 -29 -91 2 -133 -9 -186 -51 -34 -28 -45 -31 -105 -30 -36 0 -88 8 -114 17 -59 21 -111 22 -127 2 -7 -9 -11 -38 -8 -77 l3 -63 -80 0 c-44 0 -94 6 -110 13 -17 6 -40 13 -52 15 -12 2 -25 6 -29 9 -3 4 -20 4 -38 1 -18 -3 -58 0 -89 7 -47 9 -67 9 -118 -4 -114 -30 -167 -20 -204 38 -24 36 -123 116 -145 116 -15 0 -70 71 -70 91 0 14 -10 25 -30 32 -16 6 -30 14 -30 18 0 17 84 79 139 104 38 17 61 34 61 44 0 13 2 13 9 2 5 -7 11 -9 14 -4 3 5 2 15 -3 22 -6 11 -12 9 -26 -8 -10 -11 -26 -21 -35 -21 -9 0 -26 -9 -38 -19 -13 -11 -29 -17 -37 -14 -9 3 -12 0 -9 -8 3 -8 -9 -24 -29 -37 -41 -28 -62 -57 -73 -103 -12 -44 -49 -53 -59 -15 -7 28 -24 36 -24 11 0 -9 7 -31 14 -50 13 -31 19 -35 53 -35 24 0 33 3 25 9 -21 13 11 81 38 81 18 0 21 -5 19 -32 -2 -18 -11 -40 -21 -48 -16 -14 -15 -15 25 -16 56 -1 98 -24 144 -80 35 -44 38 -52 36 -105 -1 -44 2 -59 14 -63 9 -4 21 -2 27 3 6 5 41 15 76 21 80 15 127 4 202 -46 29 -20 45 -27 35 -16 -10 10 -41 32 -70 48 -56 30 -133 38 -208 21 -35 -8 -37 -7 -42 20 -7 35 -2 40 19 22 13 -10 52 -14 148 -15 91 -1 145 -6 178 -17 25 -8 49 -13 52 -10 3 3 45 -9 93 -27 71 -26 108 -33 195 -37 138 -7 144 -5 117 44 -14 25 -22 57 -23 93 l-1 55 35 -3 c19 -2 60 -12 90 -22 30 -10 84 -21 120 -24 64 -7 66 -6 104 29 21 19 50 38 65 42 14 3 29 10 32 15 3 5 22 2 42 -7 41 -17 113 -20 122 -5 3 6 14 10 24 10 10 0 44 14 75 31 57 31 61 32 152 26 l93 -5 38 33 c34 29 39 41 49 101 13 81 6 117 -36 164 l-31 35 31 -45z"/>
<path d="M4351 3274 c-30 -64 -33 -66 -107 -100 -41 -19 -82 -34 -91 -34 -9 0 -27 -10 -40 -22 -21 -20 -24 -20 -40 -5 -24 21 -202 25 -301 7 -58 -11 -77 -19 -89 -37 -15 -22 -14 -27 8 -71 22 -42 29 -48 74 -60 62 -16 112 -9 175 24 42 22 60 25 127 23 57 -1 86 2 104 13 75 48 200 50 248 4 15 -15 30 -24 34 -21 4 3 5 2 3 -1 -7 -8 24 -85 41 -105 8 -9 35 -19 61 -23 74 -10 152 -86 152 -150 0 -13 -3 -13 -27 0 -42 21 -47 17 -19 -17 30 -36 36 -72 21 -136 -5 -20 -12 -23 -53 -23 -28 0 -62 8 -82 19 -50 27 -183 97 -208 110 -58 30 -61 30 -65 18 -5 -14 -7 -13 -32 38 -11 22 -33 46 -48 55 -27 14 -29 14 -50 -11 -36 -42 -181 -129 -241 -143 -28 -7 -29 -8 -23 -63 8 -79 26 -94 124 -104 43 -4 95 -12 115 -19 58 -17 119 -69 169 -145 36 -54 55 -73 90 -88 l44 -19 81 43 81 43 39 -19 c49 -24 159 -31 211 -15 93 31 153 117 153 221 0 98 -52 172 -165 235 -11 6 -31 32 -45 57 -44 81 -74 104 -187 148 -12 4 -40 34 -62 66 -23 32 -51 70 -63 85 l-22 28 22 39 c22 40 27 77 16 144 -6 31 -11 37 -30 37 -16 0 -24 6 -24 18 0 11 -8 18 -24 20 -20 1 -28 -8 -55 -64z m-74 -162 c21 -13 0 -29 -78 -55 -53 -19 -84 -24 -103 -19 -26 7 -21 11 60 44 96 40 103 42 121 30z m-241 -47 c19 -15 19 -15 0 -30 -11 -8 -29 -15 -40 -15 -12 -1 -46 -9 -76 -20 -30 -11 -68 -19 -85 -20 -31 0 -95 33 -95 49 0 5 15 18 33 29 26 17 50 20 138 21 79 1 110 -3 125 -14z m501 -184 c-13 -5 -47 36 -47 57 0 11 10 4 29 -18 16 -20 24 -37 18 -39z m190 -111 c3 -11 9 -20 14 -20 5 0 9 -6 9 -14 0 -8 14 -26 31 -40 l31 -26 -31 0 c-16 0 -33 6 -38 13 -18 28 -41 107 -31 107 5 0 12 -9 15 -20z m81 -124 c34 -18 68 -54 77 -83 8 -28 2 -28 -50 -3 -22 11 -46 19 -52 20 -14 0 -43 60 -36 73 6 11 31 8 61 -7z m128 -103 c30 -70 8 -190 -42 -235 -53 -47 -162 -62 -244 -33 -62 22 -87 19 -169 -22 -54 -27 -78 -34 -90 -26 -9 5 -46 50 -83 99 -88 116 -143 144 -312 160 -82 8 -96 16 -96 54 0 25 5 29 47 40 26 6 52 15 58 20 6 5 25 11 41 14 50 9 143 -43 144 -81 0 -6 10 -28 23 -47 l22 -36 160 6 c224 8 275 17 302 51 13 16 23 31 23 35 0 4 5 19 10 34 9 23 12 25 23 12 7 -9 29 -21 49 -27 20 -7 54 -26 75 -42 22 -18 39 -26 41 -19 6 16 -17 69 -46 110 l-25 35 38 -35 c20 -19 44 -49 51 -67z"/>
<path d="M3825 3270 c-4 -6 7 -10 25 -10 18 0 29 4 25 10 -3 6 -15 10 -25 10 -10 0 -22 -4 -25 -10z"/>
<path d="M851 3111 c-1 -13 -4 -22 -7 -18 -3 3 -16 -6 -28 -20 -16 -18 -35 -26 -69 -30 -26 -3 -47 -10 -47 -14 0 -5 -18 -16 -40 -25 -59 -24 -44 -26 24 -3 33 10 73 19 90 19 59 0 78 10 71 37 -3 15 -2 22 4 19 14 -9 19 6 10 34 l-7 25 -1 -24z"/>
<path d="M3103 3060 c-23 -5 -76 -22 -118 -39 -42 -17 -83 -31 -90 -31 -8 0 -21 13 -30 29 -8 17 -19 33 -25 36 -5 3 0 -10 11 -30 34 -56 39 -56 169 -5 42 17 78 22 155 23 147 2 251 -34 413 -141 100 -67 120 -99 202 -316 l56 -151 55 -2 c50 -1 50 0 -8 13 -35 7 -69 68 -116 205 -24 68 -51 139 -61 157 -17 33 -149 138 -218 173 -121 62 -304 98 -395 79z"/>
<path d="M4208 2996 c-35 -26 -19 -34 70 -32 48 0 99 -2 115 -7 23 -6 27 -4 27 13 0 13 -10 24 -26 30 -38 15 -166 12 -186 -4z m151 -2 c17 -4 31 -11 31 -16 0 -6 -14 -7 -37 -2 -44 9 -64 9 -118 -1 -37 -6 -39 -5 -21 9 21 17 88 21 145 10z"/>
<path d="M552 2940 c-27 -22 -53 -47 -56 -56 -4 -9 6 -3 21 13 16 15 44 41 63 56 19 15 32 27 29 27 -4 0 -29 -18 -57 -40z"/>
<path d="M3998 2933 c-44 -33 -46 -39 -15 -47 46 -11 144 31 122 53 -24 24 -69 22 -107 -6z"/>
<path d="M4420 2900 c11 -15 20 -33 20 -40 0 -19 53 -87 82 -104 14 -9 39 -15 55 -15 l28 1 -29 7 c-25 5 -36 18 -64 76 -34 70 -47 84 -90 97 l-22 6 20 -28z m90 -94 c0 -12 -14 5 -31 39 -8 16 -6 15 10 -4 12 -13 21 -28 21 -35z"/>
<path d="M2653 2910 c-13 -5 -23 -14 -23 -20 0 -5 -12 -10 -26 -10 -31 0 -59 -14 -101 -50 -50 -44 -93 -54 -169 -40 -50 10 -73 20 -108 51 l-44 39 -69 -24 c-37 -13 -89 -27 -114 -30 -26 -4 -91 -23 -145 -43 -55 -19 -109 -37 -121 -40 -12 -3 -32 -16 -44 -29 -14 -15 -34 -24 -51 -24 -16 0 -49 -5 -74 -11 -34 -9 -47 -9 -59 1 -23 19 -19 30 26 72 41 39 47 58 12 39 -10 -5 -47 -19 -83 -31 -40 -12 -79 -33 -100 -53 -19 -18 -43 -36 -52 -40 -10 -3 -18 -12 -18 -20 0 -7 -19 -32 -43 -55 -33 -33 -48 -41 -67 -36 -112 24 -199 35 -282 35 -95 0 -97 0 -117 28 -11 15 -23 51 -27 79 -7 57 -7 57 -91 52 -23 -1 -59 4 -79 10 -33 11 -38 10 -63 -14 -31 -30 -67 -96 -75 -141 -4 -16 -3 -23 0 -15 32 78 47 100 60 89 9 -7 35 -10 72 -7 31 3 76 3 99 -1 39 -6 44 -10 70 -61 37 -72 61 -83 193 -87 58 -2 117 -8 131 -14 14 -6 30 -9 35 -7 5 1 19 -3 32 -10 21 -12 28 -9 84 40 33 29 86 79 117 110 37 38 67 60 88 64 32 6 33 6 30 -31 -3 -50 25 -62 80 -33 28 15 59 21 124 22 78 2 90 4 137 35 56 36 156 71 203 71 16 0 52 9 80 19 79 30 140 17 196 -43 35 -38 52 -48 94 -56 72 -14 68 -15 137 40 34 28 62 49 62 47 0 -3 -16 -36 -35 -73 -19 -38 -35 -73 -35 -79 0 -9 20 23 74 120 17 31 88 118 114 138 39 33 19 48 -35 27z"/>
<path d="M4543 2834 c-8 -22 39 -64 72 -64 33 0 33 24 -1 55 -31 29 -62 32 -71 9z"/>
<path d="M425 2749 c-4 -6 -5 -12 -2 -15 2 -3 7 2 10 11 7 17 1 20 -8 4z"/>
<path d="M411 2693 c-1 -16 -12 -28 -33 -38 -24 -11 -26 -13 -8 -9 34 8 53 28 47 50 -4 16 -5 15 -6 -3z"/>
<path d="M2090 2682 c-59 -3 -200 -37 -270 -64 -65 -25 -97 -52 -155 -134 -44 -61 -91 -94 -136 -94 -33 0 -20 -6 29 -14 41 -6 44 -4 82 36 21 24 58 68 82 98 43 55 107 95 188 118 152 44 160 45 252 39 94 -6 168 -26 247 -66 24 -13 45 -20 48 -18 6 6 -107 60 -162 77 -48 16 -144 26 -205 22z"/>
<path d="M298 2653 c7 -3 16 -2 19 1 4 3 -2 6 -13 5 -11 0 -14 -3 -6 -6z"/>
<path d="M245 2637 c-91 -54 -124 -106 -125 -192 0 -68 13 -108 51 -157 38 -47 117 -88 169 -88 19 0 69 9 109 20 l75 20 35 -25 c20 -14 54 -39 76 -55 80 -59 208 -75 286 -35 40 21 126 163 115 190 -6 16 -51 29 -151 44 -125 20 -138 20 -172 6 -18 -8 -35 -14 -38 -15 -3 0 -12 -3 -20 -6 -8 -4 -25 0 -38 8 -12 8 -49 23 -82 32 -104 32 -162 64 -184 102 -20 34 -21 34 -50 20 -32 -17 -91 -83 -91 -103 0 -7 -4 -13 -10 -13 -17 0 -23 70 -10 113 12 39 64 118 82 125 10 5 10 22 1 21 -5 0 -17 -6 -28 -12z m-78 -199 c-2 -13 -4 -3 -4 22 0 25 2 35 4 23 2 -13 2 -33 0 -45z m151 13 c9 -29 25 -47 71 -80 33 -22 65 -41 73 -41 7 0 19 -9 26 -20 11 -18 9 -22 -20 -40 -41 -25 -129 -36 -177 -22 -20 7 -51 27 -69 45 -32 33 -32 35 -18 63 8 16 22 46 31 66 14 33 48 68 66 68 3 0 11 -17 17 -39z m580 -240 c-13 -9 -22 -23 -20 -33 2 -13 -8 -18 -51 -23 -70 -9 -109 0 -138 31 l-23 24 75 -1 c86 -1 159 9 159 23 0 5 5 6 11 2 7 -4 2 -12 -13 -23z"/>
<path d="M270 2601 c-30 -28 -41 -46 -38 -63 4 -29 39 -36 70 -14 22 16 22 16 -10 16 -27 0 -32 4 -32 24 0 23 32 54 70 69 12 4 12 6 -2 6 -9 1 -36 -17 -58 -38z"/>
<path d="M388 2553 c6 -2 18 -2 25 0 6 3 1 5 -13 5 -14 0 -19 -2 -12 -5z"/>
<path d="M338 2543 c7 -3 16 -2 19 1 4 3 -2 6 -13 5 -11 0 -14 -3 -6 -6z"/>
<path d="M1380 2496 c-27 -30 -20 -34 77 -46 42 -6 85 -12 94 -15 14 -5 49 21 38 28 -65 37 -108 47 -140 33 -10 -4 -23 -1 -31 8 -14 13 -18 12 -38 -8z"/>
<path d="M3998 2423 c6 -2 18 -2 25 0 6 3 1 5 -13 5 -14 0 -19 -2 -12 -5z"/>
<path d="M1413 2393 c15 -2 39 -2 55 0 15 2 2 4 -28 4 -30 0 -43 -2 -27 -4z"/>
<path d="M1293 2374 c-45 -19 -41 -27 5 -10 20 8 46 17 57 19 16 4 15 5 -5 5 -14 0 -40 -6 -57 -14z"/>
<path d="M1202 2330 c-12 -11 -28 -17 -37 -14 -11 5 -18 0 -22 -15 -3 -11 -10 -21 -15 -21 -5 0 -6 -4 -3 -10 3 -5 -4 -15 -17 -21 -13 -5 -33 -24 -46 -42 -12 -18 -34 -45 -50 -62 -15 -16 -38 -44 -50 -62 -13 -18 -35 -34 -52 -38 -17 -4 -28 -10 -25 -15 3 -5 -10 -17 -28 -29 -18 -11 -43 -35 -56 -53 -23 -31 -22 -31 18 7 25 24 65 48 99 60 31 12 58 26 58 33 1 7 2 17 3 23 0 6 22 32 49 59 26 26 69 74 96 105 27 31 67 70 89 86 22 16 33 29 25 29 -8 0 -24 -9 -36 -20z"/>
<path d="M4210 2325 c13 -14 26 -25 28 -25 3 0 -5 11 -18 25 -13 14 -26 25 -28 25 -3 0 5 -11 18 -25z"/>
<path d="M3667 2303 c-4 -3 -7 -16 -7 -28 0 -13 -6 -28 -14 -35 -20 -16 -8 -43 16 -37 10 3 24 -1 31 -8 11 -10 20 -9 52 6 57 28 62 36 39 58 -14 12 -30 17 -46 14 -17 -3 -32 2 -45 16 -11 12 -23 18 -26 14z"/>
<path d="M4240 2286 c0 -2 8 -10 18 -17 15 -13 16 -12 3 4 -13 16 -21 21 -21 13z"/>
<path d="M4305 2185 c4 -11 10 -39 12 -63 6 -42 5 -43 -21 -36 -29 7 -30 5 -26 -83 2 -50 1 -52 -41 -82 -58 -43 -105 -56 -154 -42 -21 5 -42 8 -46 5 -9 -5 -198 43 -214 55 -15 11 -131 4 -175 -11 -8 -3 -33 -11 -55 -18 -46 -14 -105 -66 -105 -92 0 -19 -8 -20 -156 -23 -38 -1 -74 -4 -80 -7 -14 -9 -244 -9 -257 0 -23 14 -133 33 -205 35 -66 2 -76 0 -92 -20 -10 -13 -23 -23 -28 -23 -21 0 -72 -59 -72 -83 0 -13 -7 -30 -14 -37 -12 -9 -14 -30 -11 -90 l4 -79 -54 -31 c-34 -19 -62 -29 -74 -25 -10 3 -36 6 -57 7 -22 0 -43 4 -49 8 -5 4 -38 10 -73 14 -87 8 -172 32 -245 66 -33 17 -64 30 -69 30 -4 0 -27 20 -51 44 -24 24 -61 49 -83 56 -56 17 -110 54 -130 90 -20 33 -28 37 -91 45 -24 3 -59 14 -78 25 -39 22 -98 26 -141 10 -34 -13 -93 -64 -117 -101 -28 -43 -147 -94 -162 -69 -4 6 -7 27 -7 46 0 29 -10 44 -62 96 -66 67 -83 72 -153 43 -37 -16 -44 -26 -12 -18 16 4 20 2 17 -12 -2 -13 16 -33 54 -62 32 -24 65 -59 74 -78 25 -54 87 -115 117 -115 14 0 28 4 32 9 3 5 31 15 63 22 31 7 66 20 77 29 20 16 54 33 88 44 9 3 17 15 17 27 0 16 5 20 20 16 11 -3 20 -1 20 4 0 12 37 12 45 -1 3 -5 15 -6 26 -2 11 4 53 5 94 1 69 -7 77 -10 139 -60 62 -49 81 -72 55 -67 -6 2 -13 -2 -16 -8 -4 -11 45 -44 127 -86 51 -27 248 -94 297 -103 24 -4 45 -10 48 -15 3 -4 27 -11 55 -15 56 -8 135 14 250 69 l65 31 -3 63 c-2 48 1 69 16 90 10 15 29 48 41 75 13 26 32 52 44 58 27 15 125 5 252 -26 225 -53 304 -56 455 -14 41 11 89 23 105 26 17 3 44 18 60 33 17 15 44 35 62 44 41 21 184 36 348 36 110 0 137 4 175 21 28 13 68 21 107 22 69 2 89 -10 146 -93 31 -44 31 -48 30 -152 l-1 -107 27 12 c14 6 33 16 41 23 26 21 83 50 123 64 22 6 51 18 65 26 42 21 50 7 77 -133 6 -28 11 -33 35 -33 19 0 36 9 49 26 l20 26 -21 41 c-11 23 -35 57 -53 76 -20 20 -40 56 -50 90 -33 114 -56 152 -113 188 -34 22 -70 36 -104 40 -28 3 -69 16 -92 28 -33 17 -47 20 -69 12 -41 -13 -54 5 -66 85 -5 37 -15 75 -21 85 -11 17 -11 16 -5 -2z m257 -232 c72 -28 114 -62 142 -113 51 -94 22 -131 -105 -136 -67 -2 -67 -2 -80 30 -16 41 -80 136 -109 161 -42 38 -44 53 -8 64 52 15 114 12 160 -6z"/>
<path d="M766 1895 c-9 -26 -7 -32 5 -12 6 10 9 21 6 23 -2 3 -7 -2 -11 -11z"/>
<path d="M763 1821 c2 -41 14 -47 46 -22 l23 18 -30 -5 c-26 -3 -31 0 -35 19 -3 15 -4 11 -4 -10z"/>
<path d="M1665 1610 c-3 -5 1 -10 10 -10 9 0 13 5 10 10 -3 6 -8 10 -10 10 -2 0 -7 -4 -10 -10z"/>
<path d="M3126 1385 c-10 -8 -24 -16 -29 -18 -15 -5 26 -68 55 -87 54 -34 157 -51 196 -31 9 5 31 15 47 22 46 20 81 49 61 49 -9 0 -16 6 -16 13 0 31 -85 57 -205 63 -69 3 -94 0 -109 -11z"/>
<path d="M2860 1374 c0 -14 59 -63 65 -54 3 6 3 15 0 20 -8 13 -65 43 -65 34z"/>
<path d="M1693 1343 c-59 -23 82 -166 191 -194 89 -22 200 7 177 48 -4 8 -45 27 -90 43 -46 16 -120 47 -165 70 -83 40 -91 43 -113 33z"/>
<path d="M1584 1218 c-5 -8 -2 -9 11 -5 9 4 25 2 34 -5 14 -12 14 -11 2 5 -16 20 -37 22 -47 5z"/>
<path d="M3278 1183 c7 -3 16 -2 19 1 4 3 -2 6 -13 5 -11 0 -14 -3 -6 -6z"/>
<path d="M2153 1093 c9 -2 25 -2 35 0 9 3 1 5 -18 5 -19 0 -27 -2 -17 -5z"/>
<path d="M2968 1073 c7 -3 16 -2 19 1 4 3 -2 6 -13 5 -11 0 -14 -3 -6 -6z"/>
</g>
</g>
  <g id="id11:id11" transform="matrix(1.25,0,0,1.25,0.0,0.0)"><g transform="translate(0.000000,204.800000) scale(0.040000,-0.040000)" fill="#8ca3b2" stroke="none">
<path d="M4351 3274 c-30 -64 -33 -66 -107 -100 -41 -19 -82 -34 -91 -34 -9 0 -27 -10 -40 -22 -21 -20 -24 -20 -40 -5 -24 21 -202 25 -301 7 -58 -11 -77 -19 -89 -37 -15 -22 -14 -27 8 -71 22 -42 29 -48 74 -60 62 -16 112 -9 175 24 42 22 60 25 127 23 57 -1 86 2 104 13 75 48 200 50 248 4 15 -15 30 -24 34 -21 4 3 5 2 3 -1 -7 -8 24 -85 41 -105 8 -9 35 -19 61 -23 74 -10 152 -86 152 -150 0 -13 -3 -13 -27 0 -42 21 -47 17 -19 -17 30 -36 36 -72 21 -136 -5 -20 -12 -23 -53 -23 -28 0 -62 8 -82 19 -50 27 -183 97 -208 110 -58 30 -61 30 -65 18 -5 -14 -7 -13 -32 38 -11 22 -33 46 -48 55 -27 14 -29 14 -50 -11 -36 -42 -181 -129 -241 -143 -28 -7 -29 -8 -23 -63 8 -79 26 -94 124 -104 43 -4 95 -12 115 -19 58 -17 119 -69 169 -145 36 -54 55 -73 90 -88 l44 -19 81 43 81 43 39 -19 c49 -24 159 -31 211 -15 93 31 153 117 153 221 0 98 -52 172 -165 235 -11 6 -31 32 -45 57 -44 81 -74 104 -187 148 -12 4 -40 34 -62 66 -23 32 -51 70 -63 85 l-22 28 22 39 c22 40 27 77 16 144 -6 31 -11 37 -30 37 -16 0 -24 6 -24 18 0 11 -8 18 -24 20 -20 1 -28 -8 -55 -64z m-74 -162 c21 -13 0 -29 -78 -55 -53 -19 -84 -24 -103 -19 -26 7 -21 11 60 44 96 40 103 42 121 30z m-241 -47 c19 -15 19 -15 0 -30 -11 -8 -29 -15 -40 -15 -12 -1 -46 -9 -76 -20 -30 -11 -68 -19 -85 -20 -31 0 -95 33 -95 49 0 5 15 18 33 29 26 17 50 20 138 21 79 1 110 -3 125 -14z m501 -184 c-13 -5 -47 36 -47 57 0 11 10 4 29 -18 16 -20 24 -37 18 -39z m190 -111 c3 -11 9 -20 14 -20 5 0 9 -6 9 -14 0 -8 14 -26 31 -40 l31 -26 -31 0 c-16 0 -33 6 -38 13 -18 28 -41 107 -31 107 5 0 12 -9 15 -20z m81 -124 c34 -18 68 -54 77 -83 8 -28 2 -28 -50 -3 -22 11 -46 19 -52 20 -14 0 -43 60 -36 73 6 11 31 8 61 -7z m128 -103 c30 -70 8 -190 -42 -235 -53 -47 -162 -62 -244 -33 -62 22 -87 19 -169 -22 -54 -27 -78 -34 -90 -26 -9 5 -46 50 -83 99 -88 116 -143 144 -312 160 -82 8 -96 16 -96 54 0 25 5 29 47 40 26 6 52 15 58 20 6 5 25 11 41 14 50 9 143 -43 144 -81 0 -6 10 -28 23 -47 l22 -36 160 6 c224 8 275 17 302 51 13 16 23 31 23 35 0 4 5 19 10 34 9 23 12 25 23 12 7 -9 29 -21 49 -27 20 -7 54 -26 75 -42 22 -18 39 -26 41 -19 6 16 -17 69 -46 110 l-25 35 38 -35 c20 -19 44 -49 51 -67z"/>
<path d="M4420 2900 c11 -15 20 -33 20 -40 0 -19 53 -87 82 -104 14 -9 39 -15 55 -15 l28 1 -29 7 c-25 5 -36 18 -64 76 -34 70 -47 84 -90 97 l-22 6 20 -28z m90 -94 c0 -12 -14 5 -31 39 -8 16 -6 15 10 -4 12 -13 21 -28 21 -35z"/>
<path d="M298 2653 c7 -3 16 -2 19 1 4 3 -2 6 -13 5 -11 0 -14 -3 -6 -6z"/>
<path d="M245 2637 c-91 -54 -124 -106 -125 -192 0 -68 13 -108 51 -157 38 -47 117 -88 169 -88 19 0 69 9 109 20 l75 20 35 -25 c20 -14 54 -39 76 -55 80 -59 208 -75 286 -35 40 21 126 163 115 190 -6 16 -51 29 -151 44 -125 20 -138 20 -172 6 -18 -8 -35 -14 -38 -15 -3 0 -12 -3 -20 -6 -8 -4 -25 0 -38 8 -12 8 -49 23 -82 32 -104 32 -162 64 -184 102 -20 34 -21 34 -50 20 -32 -17 -91 -83 -91 -103 0 -7 -4 -13 -10 -13 -17 0 -23 70 -10 113 12 39 64 118 82 125 10 5 10 22 1 21 -5 0 -17 -6 -28 -12z m-78 -199 c-2 -13 -4 -3 -4 22 0 25 2 35 4 23 2 -13 2 -33 0 -45z m151 13 c9 -29 25 -47 71 -80 33 -22 65 -41 73 -41 7 0 19 -9 26 -20 11 -18 9 -22 -20 -40 -41 -25 -129 -36 -177 -22 -20 7 -51 27 -69 45 -32 33 -32 35 -18 63 8 16 22 46 31 66 14 33 48 68 66 68 3 0 11 -17 17 -39z m580 -240 c-13 -9 -22 -23 -20 -33 2 -13 -8 -18 -51 -23 -70 -9 -109 0 -138 31 l-23 24 75 -1 c86 -1 159 9 159 23 0 5 5 6 11 2 7 -4 2 -12 -13 -23z"/>
<path d="M1380 2496 c-27 -30 -20 -34 77 -46 42 -6 85 -12 94 -15 14 -5 49 21 38 28 -65 37 -108 47 -140 33 -10 -4 -23 -1 -31 8 -14 13 -18 12 -38 -8z"/>
<path d="M3126 1385 c-10 -8 -24 -16 -29 -18 -15 -5 26 -68 55 -87 54 -34 157 -51 196 -31 9 5 31 15 47 22 46 20 81 49 61 49 -9 0 -16 6 -16 13 0 31 -85 57 -205 63 -69 3 -94 0 -109 -11z"/>
<path d="M1693 1343 c-59 -23 82 -166 191 -194 89 -22 200 7 177 48 -4 8 -45 27 -90 43 -46 16 -120 47 -165 70 -83 40 -91 43 -113 33z"/>
<path d="M3278 1183 c7 -3 16 -2 19 1 4 3 -2 6 -13 5 -11 0 -14 -3 -6 -6z"/>
</g>
</g>
  <g id="id12:id12" transform="matrix(1.25,0,0,1.25,0.0,0.0)"><g transform="translate(0.000000,204.800000) scale(0.040000,-0.040000)" fill="#7e97a8" stroke="none">
<path d="M4351 3274 c-30 -64 -33 -66 -107 -100 -41 -19 -82 -34 -91 -34 -9 0 -27 -10 -40 -22 -21 -20 -24 -20 -40 -5 -24 21 -202 25 -301 7 -58 -11 -77 -19 -89 -37 -15 -22 -14 -27 8 -71 22 -42 29 -48 74 -60 62 -16 112 -9 175 24 42 22 60 25 127 23 57 -1 86 2 104 13 75 48 200 50 248 4 15 -15 30 -24 34 -21 4 3 5 2 3 -1 -7 -8 24 -85 41 -105 8 -9 35 -19 61 -23 74 -10 152 -86 152 -150 0 -13 -3 -13 -27 0 -42 21 -47 17 -19 -17 30 -36 36 -72 21 -136 -5 -20 -12 -23 -53 -23 -28 0 -62 8 -82 19 -50 27 -183 97 -208 110 -58 30 -61 30 -65 18 -5 -14 -7 -13 -32 38 -11 22 -33 46 -48 55 -27 14 -29 14 -50 -11 -36 -42 -181 -129 -241 -143 -28 -7 -29 -8 -23 -63 8 -79 26 -94 124 -104 43 -4 95 -12 115 -19 58 -17 119 -69 169 -145 36 -54 55 -73 90 -88 l44 -19 81 43 81 43 39 -19 c49 -24 159 -31 211 -15 93 31 153 117 153 221 0 98 -52 172 -165 235 -11 6 -31 32 -45 57 -44 81 -74 104 -187 148 -12 4 -40 34 -62 66 -23 32 -51 70 -63 85 l-22 28 22 39 c22 40 27 77 16 144 -6 31 -11 37 -30 37 -16 0 -24 6 -24 18 0 11 -8 18 -24 20 -20 1 -28 -8 -55 -64z m-74 -162 c21 -13 0 -29 -78 -55 -53 -19 -84 -24 -103 -19 -26 7 -21 11 60 44 96 40 103 42 121 30z m-241 -47 c19 -15 19 -15 0 -30 -11 -8 -29 -15 -40 -15 -12 -1 -46 -9 -76 -20 -30 -11 -68 -19 -85 -20 -31 0 -95 33 -95 49 0 5 15 18 33 29 26 17 50 20 138 21 79 1 110 -3 125 -14z m501 -184 c-13 -5 -47 36 -47 57 0 11 10 4 29 -18 16 -20 24 -37 18 -39z m190 -111 c3 -11 9 -20 14 -20 5 0 9 -6 9 -14 0 -8 14 -26 31 -40 l31 -26 -31 0 c-16 0 -33 6 -38 13 -18 28 -41 107 -31 107 5 0 12 -9 15 -20z m81 -124 c34 -18 68 -54 77 -83 8 -28 2 -28 -50 -3 -22 11 -46 19 -52 20 -14 0 -43 60 -36 73 6 11 31 8 61 -7z m128 -103 c30 -70 8 -190 -42 -235 -53 -47 -162 -62 -244 -33 -62 22 -87 19 -169 -22 -54 -27 -78 -34 -90 -26 -9 5 -46 50 -83 99 -88 116 -143 144 -312 160 -82 8 -96 16 -96 54 0 25 5 29 47 40 26 6 52 15 58 20 6 5 25 11 41 14 50 9 143 -43 144 -81 0 -6 10 -28 23 -47 l22 -36 160 6 c224 8 275 17 302 51 13 16 23 31 23 35 0 4 5 19 10 34 9 23 12 25 23 12 7 -9 29 -21 49 -27 20 -7 54 -26 75 -42 22 -18 39 -26 41 -19 6 16 -17 69 -46 110 l-25 35 38 -35 c20 -19 44 -49 51 -67z"/>
<path d="M4420 2900 c11 -15 20 -33 20 -40 0 -19 53 -87 82 -104 14 -9 39 -15 55 -15 l28 1 -29 7 c-25 5 -36 18 -64 76 -34 70 -47 84 -90 97 l-22 6 20 -28z m90 -94 c0 -12 -14 5 -31 39 -8 16 -6 15 10 -4 12 -13 21 -28 21 -35z"/>
<path d="M298 2653 c7 -3 16 -2 19 1 4 3 -2 6 -13 5 -11 0 -14 -3 -6 -6z"/>
<path d="M245 2637 c-91 -54 -124 -106 -125 -192 0 -68 13 -108 51 -157 38 -47 117 -88 169 -88 19 0 69 9 109 20 l75 20 35 -25 c20 -14 54 -39 76 -55 80 -59 208 -75 286 -35 40 21 126 163 115 190 -6 16 -51 29 -151 44 -125 20 -138 20 -172 6 -18 -8 -35 -14 -38 -15 -3 0 -12 -3 -20 -6 -8 -4 -25 0 -38 8 -12 8 -49 23 -82 32 -104 32 -162 64 -184 102 -20 34 -21 34 -50 20 -32 -17 -91 -83 -91 -103 0 -7 -4 -13 -10 -13 -17 0 -23 70 -10 113 12 39 64 118 82 125 10 5 10 22 1 21 -5 0 -17 -6 -28 -12z m-78 -199 c-2 -13 -4 -3 -4 22 0 25 2 35 4 23 2 -13 2 -33 0 -45z m151 13 c9 -29 25 -47 71 -80 33 -22 65 -41 73 -41 7 0 19 -9 26 -20 11 -18 9 -22 -20 -40 -41 -25 -129 -36 -177 -22 -20 7 -51 27 -69 45 -32 33 -32 35 -18 63 8 16 22 46 31 66 14 33 48 68 66 68 3 0 11 -17 17 -39z m580 -240 c-13 -9 -22 -23 -20 -33 2 -13 -8 -18 -51 -23 -70 -9 -109 0 -138 31 l-23 24 75 -1 c86 -1 159 9 159 23 0 5 5 6 11 2 7 -4 2 -12 -13 -23z"/>
<path d="M1380 2496 c-27 -30 -20 -34 77 -46 42 -6 85 -12 94 -15 14 -5 49 21 38 28 -65 37 -108 47 -140 33 -10 -4 -23 -1 -31 8 -14 13 -18 12 -38 -8z"/>
<path d="M3126 1385 c-10 -8 -24 -16 -29 -18 -15 -5 26 -68 55 -87 54 -34 157 -51 196 -31 9 5 31 15 47 22 46 20 81 49 61 49 -9 0 -16 6 -16 13 0 31 -85 57 -205 63 -69 3 -94 0 -109 -11z"/>
<path d="M1693 1343 c-59 -23 82 -166 191 -194 89 -22 200 7 177 48 -4 8 -45 27 -90 43 -46 16 -120 47 -165 70 -83 40 -91 43 -113 33z"/>
<path d="M3278 1183 c7 -3 16 -2 19 1 4 3 -2 6 -13 5 -11 0 -14 -3 -6 -6z"/>
</g>
</g>
  <g id="id13:id13" transform="matrix(1.25,0,0,1.25,0.0,0.0)"><g transform="translate(0.000000,204.800000) scale(0.040000,-0.040000)" fill="#728c9d" stroke="none">
<path d="M4355 3452 c5 -44 3 -82 -4 -104 -13 -41 -70 -97 -126 -126 -97 -49 -126 -54 -323 -54 -222 0 -244 -6 -263 -68 -11 -36 -10 -44 7 -68 23 -32 20 -72 -7 -79 -24 -7 -25 -20 -1 -26 9 -3 67 -6 128 -6 107 -1 114 0 170 30 52 28 68 31 137 30 64 -1 83 2 104 19 36 28 80 38 153 33 70 -5 103 -25 121 -72 11 -27 -7 -47 -26 -31 -6 5 -31 12 -55 15 -40 6 -43 5 -27 -8 21 -17 22 -43 2 -64 -19 -18 -107 -9 -126 13 -20 24 -47 17 -54 -15 -9 -43 -71 -94 -171 -141 -69 -33 -93 -40 -120 -35 -19 3 -34 11 -34 17 0 6 -2 9 -5 7 -8 -8 25 -191 40 -219 21 -41 34 -47 120 -54 44 -4 102 -14 129 -23 63 -20 131 -87 177 -173 46 -87 67 -90 194 -24 l92 48 39 -19 c49 -24 159 -31 211 -15 120 40 181 170 141 302 -14 46 -77 113 -133 143 -25 13 -48 37 -64 67 -45 82 -75 106 -187 148 -19 7 -108 123 -121 158 -3 7 7 36 23 65 23 41 29 65 28 112 0 75 -19 112 -95 186 -33 32 -59 64 -59 72 0 9 -5 19 -11 22 -7 5 -8 -14 -4 -63z m-78 -340 c21 -13 0 -29 -78 -55 -53 -19 -84 -24 -103 -19 -26 7 -21 11 60 44 96 40 103 42 121 30z m-241 -47 c19 -15 19 -15 0 -30 -11 -8 -29 -15 -40 -15 -12 -1 -46 -9 -76 -20 -30 -11 -68 -19 -85 -20 -31 0 -95 33 -95 49 0 5 15 18 33 29 26 17 50 20 138 21 79 1 110 -3 125 -14z m501 -184 c-13 -5 -47 36 -47 57 0 11 10 4 29 -18 16 -20 24 -37 18 -39z m-27 -75 c0 -12 -14 5 -31 39 -8 16 -6 15 10 -4 12 -13 21 -28 21 -35z m135 11 c50 -49 63 -94 23 -81 -13 4 -43 13 -68 19 -32 9 -51 21 -67 45 -34 49 -30 60 22 60 39 0 50 -5 90 -43z m82 -47 c3 -11 9 -20 14 -20 5 0 9 -6 9 -14 0 -8 14 -26 31 -40 l31 -26 -31 0 c-16 0 -33 6 -38 13 -18 28 -41 107 -31 107 5 0 12 -9 15 -20z m-87 -120 c0 -5 -4 -10 -10 -10 -5 0 -10 5 -10 10 0 6 5 10 10 10 6 0 10 -4 10 -10z m210 -50 c9 -17 8 -20 -8 -20 -47 0 -89 40 -66 63 10 10 62 -21 74 -43z m86 -57 c30 -70 8 -190 -42 -235 -53 -47 -162 -62 -244 -33 -62 22 -87 19 -169 -22 -54 -27 -78 -34 -90 -26 -9 5 -46 50 -83 99 -88 116 -143 144 -312 160 -82 8 -96 16 -96 54 0 25 5 29 47 40 26 6 52 15 58 20 6 5 25 11 41 14 50 9 143 -43 144 -81 0 -6 10 -28 23 -47 l22 -36 160 6 c224 8 275 17 302 51 13 16 23 31 23 35 0 4 5 19 10 34 9 23 12 25 23 12 7 -9 29 -21 49 -27 20 -7 54 -26 75 -42 22 -18 39 -26 41 -19 6 16 -17 69 -46 110 l-25 35 38 -35 c20 -19 44 -49 51 -67z"/>
<path d="M2830 3117 c0 -3 11 -28 26 -56 26 -54 38 -60 70 -37 18 14 18 15 -10 38 -40 31 -86 61 -86 55z"/>
<path d="M381 2753 c-33 -45 -58 -66 -119 -98 -60 -32 -84 -51 -109 -89 -30 -44 -33 -55 -33 -123 0 -104 29 -157 115 -212 41 -26 59 -31 109 -31 34 0 79 7 101 15 43 15 105 20 105 8 0 -5 21 -21 45 -38 25 -16 45 -33 45 -37 0 -17 118 -50 179 -49 91 0 121 13 164 71 20 27 37 52 37 54 0 3 16 31 35 63 19 32 35 63 35 68 0 26 -88 63 -190 80 -58 9 -130 23 -160 31 -74 19 -107 18 -142 -7 l-29 -21 -84 32 c-46 18 -86 39 -90 47 -9 26 -79 8 -137 -37 -29 -22 -57 -40 -61 -40 -12 0 2 78 19 112 21 41 62 78 109 98 41 18 67 40 47 40 -6 0 -5 10 1 24 7 13 15 22 19 20 8 -5 43 64 36 71 -3 3 -24 -21 -47 -52z m-214 -315 c-2 -13 -4 -3 -4 22 0 25 2 35 4 23 2 -13 2 -33 0 -45z m151 13 c9 -29 25 -47 71 -80 33 -22 65 -41 73 -41 7 0 19 -9 26 -20 11 -18 9 -22 -20 -40 -41 -25 -129 -36 -177 -22 -20 7 -51 27 -69 45 -32 33 -32 35 -18 63 8 16 22 46 31 66 14 33 48 68 66 68 3 0 11 -17 17 -39z m580 -240 c-13 -9 -22 -23 -20 -33 2 -13 -8 -18 -51 -23 -70 -9 -109 0 -138 31 l-23 24 75 -1 c86 -1 159 9 159 23 0 5 5 6 11 2 7 -4 2 -12 -13 -23z"/>
<path d="M1475 2562 l-38 -27 -14 23 c-22 31 -38 28 -74 -18 -18 -22 -40 -40 -49 -40 -20 0 -98 -65 -88 -75 3 -3 23 -2 45 4 49 14 169 14 250 0 l63 -11 30 33 c38 43 38 63 0 79 -16 7 -35 19 -41 27 -27 32 -45 33 -84 5z"/>
<path d="M784 1739 c-3 -6 -15 -9 -25 -6 -23 6 -24 0 -1 -45 9 -20 41 -56 70 -79 29 -24 70 -70 91 -104 21 -33 47 -67 57 -76 23 -19 97 -49 123 -49 10 0 51 -29 90 -64 40 -36 92 -72 117 -82 57 -22 153 -15 212 15 39 20 62 24 104 19 9 -1 44 -25 77 -54 132 -115 254 -137 423 -76 49 18 103 32 120 32 18 0 40 5 48 10 42 26 -82 80 -187 80 -32 0 -71 8 -100 22 -27 12 -79 36 -118 54 -221 101 -222 102 -276 44 -33 -35 -43 -40 -81 -40 -90 1 -211 47 -278 107 -29 25 -133 66 -144 56 -12 -12 -76 35 -177 133 -37 35 -70 64 -74 64 -4 0 -16 11 -27 25 -21 27 -33 31 -44 14z"/>
<path d="M4245 1712 c-16 -10 -48 -29 -70 -43 -22 -14 -49 -29 -60 -34 -19 -8 -27 -10 -65 -17 -8 -1 -34 4 -58 12 -34 11 -50 11 -76 2 -18 -7 -42 -12 -54 -12 -11 0 -23 -4 -26 -9 -3 -5 -27 -12 -53 -16 -26 -4 -61 -14 -77 -22 -17 -9 -51 -18 -75 -20 -25 -2 -48 -8 -51 -12 -3 -4 -12 -8 -20 -8 -17 -1 -97 -19 -147 -34 -18 -6 -41 -12 -51 -14 -26 -5 -200 19 -281 39 -43 10 -70 12 -82 5 -10 -5 -26 -9 -36 -9 -18 0 -53 -32 -53 -48 0 -5 11 -19 25 -32 14 -13 25 -27 25 -32 0 -10 78 -126 90 -133 4 -3 6 -15 3 -26 -4 -14 0 -25 12 -31 13 -8 14 -12 5 -18 -18 -11 -7 -33 26 -50 16 -8 43 -25 60 -37 101 -75 236 -70 409 15 26 13 54 18 80 15 22 -2 94 -6 161 -8 118 -4 164 3 229 35 11 6 63 12 115 15 52 2 127 11 165 20 41 10 123 18 200 19 142 3 169 11 249 75 22 18 56 39 75 47 57 25 85 42 89 53 5 14 -25 14 -33 1 -4 -6 -28 -21 -54 -35 l-48 -24 -32 23 c-30 23 -34 23 -94 10 -41 -8 -96 -11 -162 -7 -82 4 -114 1 -175 -15 -78 -21 -203 -32 -216 -19 -14 14 -59 6 -83 -14 -16 -13 -26 -33 -28 -56 -1 -20 -5 -38 -9 -42 -5 -6 -124 -6 -202 0 -22 1 -39 10 -49 25 -8 12 -27 26 -43 29 -37 8 -57 32 -44 52 13 21 84 44 103 34 33 -17 91 -22 113 -9 13 7 50 13 83 15 33 1 67 3 75 5 18 4 67 36 94 60 11 10 26 18 33 18 7 0 13 3 13 8 0 4 20 29 44 55 30 34 46 60 51 90 8 43 16 127 12 126 -1 0 -15 -8 -32 -17z"/>
<path d="M2617 1179 c6 -20 3 -21 -123 -18 -166 4 -186 -7 -121 -68 50 -48 143 -76 259 -77 65 0 101 3 110 12 6 6 20 12 29 12 17 0 69 53 69 70 0 17 -72 50 -109 50 -20 0 -42 5 -49 12 -9 9 -15 8 -27 -8 -14 -18 -14 -18 -15 9 0 16 -5 27 -14 27 -9 0 -12 -7 -9 -21z"/>
</g>
</g>
  <g id="id14:id14" transform="matrix(1.25,0,0,1.25,0.0,0.0)"><g transform="translate(0.000000,204.800000) scale(0.040000,-0.040000)" fill="#667d8e" stroke="none">
<path d="M4351 3274 c-30 -64 -33 -66 -107 -100 -41 -19 -82 -34 -91 -34 -9 0 -27 -10 -40 -22 -21 -20 -24 -20 -40 -5 -24 21 -202 25 -301 7 -58 -11 -77 -19 -89 -37 -15 -22 -14 -27 8 -71 22 -42 29 -48 74 -60 62 -16 112 -9 175 24 42 22 60 25 127 23 57 -1 86 2 104 13 75 48 200 50 248 4 15 -15 30 -24 34 -21 4 3 5 2 3 -1 -7 -8 24 -85 41 -105 8 -9 35 -19 61 -23 74 -10 152 -86 152 -150 0 -13 -3 -13 -27 0 -42 21 -47 17 -19 -17 30 -36 36 -72 21 -136 -5 -20 -12 -23 -53 -23 -28 0 -62 8 -82 19 -50 27 -183 97 -208 110 -58 30 -61 30 -65 18 -5 -14 -7 -13 -32 38 -11 22 -33 46 -48 55 -27 14 -29 14 -50 -11 -36 -42 -181 -129 -241 -143 -28 -7 -29 -8 -23 -63 8 -79 26 -94 124 -104 43 -4 95 -12 115 -19 58 -17 119 -69 169 -145 36 -54 55 -73 90 -88 l44 -19 81 43 81 43 39 -19 c49 -24 159 -31 211 -15 93 31 153 117 153 221 0 98 -52 172 -165 235 -11 6 -31 32 -45 57 -44 81 -74 104 -187 148 -12 4 -40 34 -62 66 -23 32 -51 70 -63 85 l-22 28 22 39 c22 40 27 77 16 144 -6 31 -11 37 -30 37 -16 0 -24 6 -24 18 0 11 -8 18 -24 20 -20 1 -28 -8 -55 -64z m-74 -162 c21 -13 0 -29 -78 -55 -53 -19 -84 -24 -103 -19 -26 7 -21 11 60 44 96 40 103 42 121 30z m-241 -47 c19 -15 19 -15 0 -30 -11 -8 -29 -15 -40 -15 -12 -1 -46 -9 -76 -20 -30 -11 -68 -19 -85 -20 -31 0 -95 33 -95 49 0 5 15 18 33 29 26 17 50 20 138 21 79 1 110 -3 125 -14z m501 -184 c-13 -5 -47 36 -47 57 0 11 10 4 29 -18 16 -20 24 -37 18 -39z m190 -111 c3 -11 9 -20 14 -20 5 0 9 -6 9 -14 0 -8 14 -26 31 -40 l31 -26 -31 0 c-16 0 -33 6 -38 13 -18 28 -41 107 -31 107 5 0 12 -9 15 -20z m81 -124 c34 -18 68 -54 77 -83 8 -28 2 -28 -50 -3 -22 11 -46 19 -52 20 -14 0 -43 60 -36 73 6 11 31 8 61 -7z m128 -103 c30 -70 8 -190 -42 -235 -53 -47 -162 -62 -244 -33 -62 22 -87 19 -169 -22 -54 -27 -78 -34 -90 -26 -9 5 -46 50 -83 99 -88 116 -143 144 -312 160 -82 8 -96 16 -96 54 0 25 5 29 47 40 26 6 52 15 58 20 6 5 25 11 41 14 50 9 143 -43 144 -81 0 -6 10 -28 23 -47 l22 -36 160 6 c224 8 275 17 302 51 13 16 23 31 23 35 0 4 5 19 10 34 9 23 12 25 23 12 7 -9 29 -21 49 -27 20 -7 54 -26 75 -42 22 -18 39 -26 41 -19 6 16 -17 69 -46 110 l-25 35 38 -35 c20 -19 44 -49 51 -67z"/>
<path d="M4420 2900 c11 -15 20 -33 20 -40 0 -19 53 -87 82 -104 14 -9 39 -15 55 -15 l28 1 -29 7 c-25 5 -36 18 -64 76 -34 70 -47 84 -90 97 l-22 6 20 -28z m90 -94 c0 -12 -14 5 -31 39 -8 16 -6 15 10 -4 12 -13 21 -28 21 -35z"/>
<path d="M298 2653 c7 -3 16 -2 19 1 4 3 -2 6 -13 5 -11 0 -14 -3 -6 -6z"/>
<path d="M245 2637 c-91 -54 -124 -106 -125 -192 0 -68 13 -108 51 -157 38 -47 117 -88 169 -88 19 0 69 9 109 20 l75 20 35 -25 c20 -14 54 -39 76 -55 80 -59 208 -75 286 -35 40 21 126 163 115 190 -6 16 -51 29 -151 44 -125 20 -138 20 -172 6 -18 -8 -35 -14 -38 -15 -3 0 -12 -3 -20 -6 -8 -4 -25 0 -38 8 -12 8 -49 23 -82 32 -104 32 -162 64 -184 102 -20 34 -21 34 -50 20 -32 -17 -91 -83 -91 -103 0 -7 -4 -13 -10 -13 -17 0 -23 70 -10 113 12 39 64 118 82 125 10 5 10 22 1 21 -5 0 -17 -6 -28 -12z m-78 -199 c-2 -13 -4 -3 -4 22 0 25 2 35 4 23 2 -13 2 -33 0 -45z m151 13 c9 -29 25 -47 71 -80 33 -22 65 -41 73 -41 7 0 19 -9 26 -20 11 -18 9 -22 -20 -40 -41 -25 -129 -36 -177 -22 -20 7 -51 27 -69 45 -32 33 -32 35 -18 63 8 16 22 46 31 66 14 33 48 68 66 68 3 0 11 -17 17 -39z m580 -240 c-13 -9 -22 -23 -20 -33 2 -13 -8 -18 -51 -23 -70 -9 -109 0 -138 31 l-23 24 75 -1 c86 -1 159 9 159 23 0 5 5 6 11 2 7 -4 2 -12 -13 -23z"/>
<path d="M1380 2496 c-27 -30 -20 -34 77 -46 42 -6 85 -12 94 -15 14 -5 49 21 38 28 -65 37 -108 47 -140 33 -10 -4 -23 -1 -31 8 -14 13 -18 12 -38 -8z"/>
<path d="M3126 1385 c-10 -8 -24 -16 -29 -18 -15 -5 26 -68 55 -87 54 -34 157 -51 196 -31 9 5 31 15 47 22 46 20 81 49 61 49 -9 0 -16 6 -16 13 0 31 -85 57 -205 63 -69 3 -94 0 -109 -11z"/>
<path d="M1693 1343 c-59 -23 82 -166 191 -194 89 -22 200 7 177 48 -4 8 -45 27 -90 43 -46 16 -120 47 -165 70 -83 40 -91 43 -113 33z"/>
<path d="M3278 1183 c7 -3 16 -2 19 1 4 3 -2 6 -13 5 -11 0 -14 -3 -6 -6z"/>
</g>
</g>
  <g id="id15:id15" transform="matrix(1.25,0,0,1.25,0.0,0.0)"><g transform="translate(0.000000,204.800000) scale(0.040000,-0.040000)" fill="#516b7c" stroke="none">
<path d="M4351 3274 c-30 -64 -33 -66 -107 -100 -41 -19 -82 -34 -91 -34 -9 0 -27 -10 -40 -22 -21 -20 -24 -20 -40 -5 -24 21 -202 25 -301 7 -58 -11 -77 -19 -89 -37 -15 -22 -14 -27 8 -71 22 -42 29 -48 74 -60 62 -16 112 -9 175 24 42 22 60 25 127 23 57 -1 86 2 104 13 45 29 100 41 162 35 49 -4 65 -11 92 -37 18 -17 38 -49 45 -70 17 -51 35 -66 91 -74 72 -11 149 -88 149 -150 0 -13 -3 -13 -27 0 -42 21 -47 17 -19 -17 30 -36 36 -72 21 -136 -5 -20 -12 -23 -53 -23 -28 0 -62 8 -82 19 -50 27 -183 97 -208 110 -58 30 -61 30 -65 18 -5 -14 -7 -13 -32 38 -11 22 -33 46 -48 55 -27 14 -29 14 -50 -11 -36 -42 -181 -129 -241 -143 -28 -7 -29 -8 -23 -63 8 -79 26 -94 124 -104 43 -4 95 -12 115 -19 58 -17 119 -69 169 -145 36 -54 55 -73 90 -88 l44 -19 81 43 81 43 39 -19 c49 -24 159 -31 211 -15 93 31 153 117 153 221 0 98 -52 172 -165 235 -11 6 -31 32 -45 57 -44 81 -74 104 -187 148 -12 4 -40 34 -62 66 -23 32 -51 70 -63 85 l-22 28 22 39 c22 40 27 77 16 144 -6 31 -11 37 -30 37 -16 0 -24 6 -24 18 0 11 -8 18 -24 20 -20 1 -28 -8 -55 -64z m457 -628 c34 -18 68 -54 77 -83 8 -28 2 -28 -50 -3 -22 11 -46 19 -52 20 -14 0 -43 60 -36 73 6 11 31 8 61 -7z"/>
<path d="M4420 2900 c11 -15 20 -33 20 -40 0 -19 53 -87 82 -104 14 -9 39 -15 55 -15 l28 1 -29 7 c-25 5 -36 18 -64 76 -34 70 -47 84 -90 97 l-22 6 20 -28z"/>
<path d="M298 2653 c7 -3 16 -2 19 1 4 3 -2 6 -13 5 -11 0 -14 -3 -6 -6z"/>
<path d="M245 2637 c-91 -54 -124 -106 -125 -192 0 -68 13 -108 51 -157 38 -47 117 -88 169 -88 19 0 69 9 109 20 l75 20 35 -25 c20 -14 54 -39 76 -55 80 -59 208 -75 286 -35 40 21 126 163 115 190 -6 16 -51 29 -151 44 -125 20 -138 20 -172 6 -18 -8 -35 -14 -38 -15 -3 0 -12 -3 -20 -6 -8 -4 -25 0 -38 8 -12 8 -49 23 -82 32 -104 32 -162 64 -184 102 -20 34 -21 34 -50 20 -32 -17 -91 -83 -91 -103 0 -7 -4 -13 -10 -13 -17 0 -23 70 -10 113 12 39 64 118 82 125 10 5 10 22 1 21 -5 0 -17 -6 -28 -12z"/>
<path d="M1380 2496 c-27 -30 -20 -34 77 -46 42 -6 85 -12 94 -15 14 -5 49 21 38 28 -65 37 -108 47 -140 33 -10 -4 -23 -1 -31 8 -14 13 -18 12 -38 -8z"/>
<path d="M3126 1385 c-10 -8 -24 -16 -29 -18 -15 -5 26 -68 55 -87 54 -34 157 -51 196 -31 9 5 31 15 47 22 46 20 81 49 61 49 -9 0 -16 6 -16 13 0 31 -85 57 -205 63 -69 3 -94 0 -109 -11z"/>
<path d="M1693 1343 c-59 -23 82 -166 191 -194 89 -22 200 7 177 48 -4 8 -45 27 -90 43 -46 16 -120 47 -165 70 -83 40 -91 43 -113 33z"/>
<path d="M3278 1183 c7 -3 16 -2 19 1 4 3 -2 6 -13 5 -11 0 -14 -3 -6 -6z"/>
</g>
</g>
</svg>
