<?xml version="1.0" ?><svg xmlns="http://www.w3.org/2000/svg" width="24" height="24" viewBox="0 0 24 24" fill="none"><path d="M11.5 5.5C10.2286 5.5 9.09619 6.09339 8.36402 7.01675C7.81019 6.68852 7.17599 6.5 6.5 6.5C4.23023 6.5 2.5 8.57952 2.5 11C2.5 11.3823 2.54239 11.7542 2.62248 12.1099C2.67385 12.338 2.87645 12.5 3.11027 12.5H19.9646C20.2133 12.5 20.4243 12.3171 20.4595 12.0708C20.4862 11.8841 20.5 11.6935 20.5 11.5C20.5 9.29086 18.7091 7.5 16.5 7.5C16.0076 7.5 15.5353 7.58918 15.0989 7.7524C14.4504 6.41938 13.0831 5.5 11.5 5.5Z" fill="black"/><path d="M5 17C4.44772 17 4 16.7111 4 16.0463C4 15.3815 5 14 5 14C5 14 6 15.3815 6 16.0463C6 16.7111 5.55228 17 5 17Z" fill="black"/><path d="M8 18.0463C8 18.7111 8.44772 19 9 19C9.55228 19 10 18.7111 10 18.0463C10 17.3815 9 16 9 16C9 16 8 17.3815 8 18.0463Z" fill="black"/><path d="M12 17C11.4477 17 11 16.7111 11 16.0463C11 15.3815 12 14 12 14C12 14 13 15.3815 13 16.0463C13 16.7111 12.5523 17 12 17Z" fill="black"/><path d="M14.5 16.0463C14.5 16.7111 14.9477 17 15.5 17C16.0523 17 16.5 16.7111 16.5 16.0463C16.5 15.3815 15.5 14 15.5 14C15.5 14 14.5 15.3815 14.5 16.0463Z" fill="black"/><path d="M18.5 19C17.9477 19 17.5 18.7111 17.5 18.0463C17.5 17.3815 18.5 16 18.5 16C18.5 16 19.5 17.3815 19.5 18.0463C19.5 18.7111 19.0523 19 18.5 19Z" fill="black"/></svg>
